####
#
# OBJ File Generated by Meshlab
#
####
# Object Cover.obj
#
# Vertices: 101
# Faces: 202
#
####
vn -4.252310 0.683526 2.301331
v 1145.000000 -620.022949 1219.536377
vn 1.618645 -1.536191 1.719829
v 1150.000000 -625.000000 1220.015015
vn -2.729372 -1.057840 2.460207
v 1145.000000 -619.976929 1220.015015
vn -1.570796 -1.570796 4.712389
v 1145.000000 1995.000000 1220.015015
vn 1.570796 1.570796 1.570796
v 1150.000000 2000.000000 1220.015015
vn -1.570811 1.713953 1.413238
v 560.000000 -620.022949 1219.536377
vn -1.570781 -1.413217 1.713927
v 560.000000 -625.000000 1220.015015
vn -3.045734 -3.134381 0.150345
v 560.000000 -650.000000 960.015015
vn -3.237452 3.134381 -0.150345
v 560.000000 -645.000000 959.775146
vn -3.045733 3.134381 -0.150345
v 1145.000000 -645.000000 959.775146
vn -0.864093 5.124764 1.786170
v 560.000000 -645.000000 -49.673710
vn -3.017238 3.129463 0.194834
v 1145.000000 -645.000000 -49.673710
vn 3.045734 -3.134381 0.150345
v 1150.000000 -650.000000 960.015015
vn -1.446681 -4.876318 1.169691
v 560.000000 -650.000000 -49.985001
vn -1.573094 -0.169141 2.716764
v 560.000000 -647.500000 -49.829357
vn 3.017238 -3.129463 -0.194833
v 1150.000000 -650.000000 -49.985001
vn 1.568498 -0.558809 5.834098
v 559.730408 -647.519287 -49.674911
vn 1.568430 2.948208 3.106414
v 559.730408 -645.019287 -49.519268
vn 0.737799 2.309984 3.268573
v 559.460815 -645.038635 -49.364826
vn -1.568499 -0.558807 5.834098
v -559.730408 -647.519287 -49.674911
vn 1.446681 -4.876318 1.169691
v -560.000000 -650.000000 -49.985001
vn -0.737891 2.309958 3.268781
v -559.460815 -645.038635 -49.364826
vn -1.568386 2.948243 3.106115
v -559.730408 -645.019287 -49.519268
vn 0.864225 5.124769 1.786119
v -560.000000 -645.000000 -49.673710
vn 1.573095 -0.169139 2.716765
v -560.000000 -647.500000 -49.829357
vn 2.349835 0.328278 -2.886152
v 1150.000000 540.000000 -249.985001
vn 1.570796 1.570796 -1.570796
v 1150.000000 2000.000000 -249.985001
vn 1.695151 -1.558666 -1.765630
v 1150.000000 -625.000000 -249.985001
vn 1.570796 -1.570796 4.712389
v -490.000000 1995.000000 1220.015015
vn 1.570796 1.570796 4.712389
v -495.000000 2000.000000 1220.015015
vn -4.456948 1.899074 0.779038
v 1145.000000 540.000000 -244.985001
vn -5.198249 -1.187408 -2.056656
v 1145.000000 544.330139 -247.485001
vn -1.570796 -1.570796 -4.712389
v 1145.000000 1995.000000 -249.985001
vn -3.091135 -0.273167 -3.091135
v 1145.000000 548.660278 -249.985001
vn -1.695151 1.558666 1.765630
v 1145.000000 -620.586060 -244.985001
vn -2.056656 -1.187408 -5.198249
v 1147.500000 544.330139 -249.985001
vn 1.570796 -1.570796 -4.712389
v -490.000000 1995.000000 -249.985001
vn 4.712389 1.570796 -1.570796
v -495.000000 2000.000000 -249.985001
vn 1.570796 -1.570796 1.570796
v -490.000000 1360.000000 1220.015015
vn 1.570796 -1.570796 -1.570796
v -490.000000 1360.000000 -249.985001
vn 1.570796 -1.570796 -4.712389
v -495.000000 1365.000000 -249.985001
vn -2.056656 1.954185 -2.056656
v 1147.500000 540.000000 -247.485001
vn -1.570796 1.570796 -1.570796
v 900.000000 540.000000 -249.985001
vn -1.570796 1.570796 1.570796
v 900.000000 540.000000 -244.985001
vn -1.570796 1.570796 4.712389
v 900.000000 -505.000000 -244.985001
vn -1.570796 1.570796 -4.712389
v 900.000000 -505.000000 -249.985001
vn -1.570796 1.570796 1.570796
v 555.000000 -505.000000 -244.985001
vn -1.804085 4.485554 1.276214
v 555.000000 -620.586060 -244.985001
vn -1.570796 1.570796 -1.570796
v 555.000000 -505.000000 -249.985001
vn -0.391579 -2.255691 -3.232410
v 555.000000 -625.000000 -249.985001
vn -1.893715 2.161415 -1.908059
v 555.000000 -622.793030 -247.485001
vn 1.247866 5.278771 -1.518384
v 551.177429 -620.312378 -247.174911
vn 1.247885 2.551099 -5.025368
v 551.177429 -622.519287 -249.674911
vn 0.301911 3.438549 -2.679528
v 547.354858 -620.038635 -249.364822
vn 0.391579 -2.255691 -3.232410
v -555.000000 -625.000000 -249.985001
vn -1.247880 2.551096 -5.025374
v -551.177429 -622.519287 -249.674911
vn -0.301911 3.438549 -2.679528
v -547.354858 -620.038635 -249.364822
vn -1.247853 5.278782 -1.518380
v -551.177429 -620.312378 -247.174911
vn 1.893701 2.161404 -1.908062
v -555.000000 -622.793030 -247.485001
vn 1.804081 4.485556 1.276220
v -555.000000 -620.586060 -244.985001
vn 0.328278 -3.933351 -2.886152
v -900.000000 1365.000000 -249.985001
vn -1.187408 -2.056656 -5.198249
v -895.669861 1362.500000 -249.985001
vn -0.273167 -3.091135 -3.091135
v -891.339722 1360.000000 -249.985001
vn -1.187408 -5.198249 -2.056656
v -895.669861 1360.000000 -247.485001
vn 1.899074 -4.456948 0.779038
v -900.000000 1360.000000 -244.985001
vn 1.954185 -2.056656 -2.056656
v -900.000000 1362.500000 -247.485001
vn 1.570796 -1.570796 -1.570796
v -495.000000 1365.000000 -839.984985
vn 1.570796 1.570796 -1.570796
v -495.000000 2355.000000 -839.984985
vn 1.570796 1.570796 1.570796
v -495.000000 2355.000000 1220.015015
vn -1.570796 1.570796 -1.570796
v -1150.000000 2355.000000 -839.984985
vn -1.570796 1.570796 1.570796
v -1150.000000 2355.000000 1220.015015
vn -3.141593 0.000000 3.141593
v -1150.000000 1365.000000 1220.015015
vn 1.570796 -1.570796 4.712389
v -1145.000000 1360.000000 1220.015015
vn -1.570796 -1.570796 -1.570796
v -1150.000000 1365.000000 -839.984985
vn -4.712389 -1.570796 -1.570796
v -1150.000000 1365.000000 -249.985001
vn -3.017238 -3.129463 -0.194833
v -1150.000000 -650.000000 -49.985001
vn -1.695151 -1.558666 -1.765630
v -1150.000000 -625.000000 -249.985001
vn -1.618645 -1.536191 1.719829
v -1150.000000 -625.000000 1220.015015
vn -3.045734 -3.134381 0.150345
v -1150.000000 -650.000000 960.015015
vn 3.045734 -3.134381 0.150345
v -560.000000 -650.000000 960.015015
vn 1.570796 1.570796 -1.570796
v -555.000000 -505.000000 -249.985001
vn 1.570796 1.570796 -4.712389
v -900.000000 -505.000000 -249.985001
vn 1.570796 1.570796 1.570796
v -555.000000 -505.000000 -244.985001
vn 1.570796 1.570796 4.712389
v -900.000000 -505.000000 -244.985001
vn 1.570796 -1.570796 1.570796
v -1145.000000 1360.000000 -244.985001
vn 1.695151 1.558666 1.765630
v -1145.000000 -620.586060 -244.985001
vn 3.017238 3.129463 0.194834
v -1145.000000 -645.000000 -49.673710
vn 2.729372 -1.057840 2.460207
v -1145.000000 -619.976929 1220.015015
vn 4.252310 0.683526 2.301331
v -1145.000000 -620.022949 1219.536377
vn 3.045733 3.134381 -0.150345
v -1145.000000 -645.000000 959.775146
vn 3.237452 3.134381 -0.150345
v -560.000000 -645.000000 959.775146
vn 1.570811 1.713953 1.413238
v -560.000000 -620.022949 1219.536377
vn 1.570781 -1.413217 1.713927
v -560.000000 -625.000000 1220.015015
vn 1.570796 1.570796 -4.712389
v -1145.000000 1370.000000 -839.984985
vn -1.570796 1.570796 -4.712389
v -500.000000 1370.000000 -839.984985
vn -1.570796 -1.570796 -4.712389
v -500.000000 2350.000000 -839.984985
vn 1.570796 -1.570796 -4.712389
v -1145.000000 2350.000000 -839.984985
vn -1.570796 1.570796 -1.570796
v -500.000000 1370.000000 1215.015015
vn 1.570796 1.570796 -1.570796
v -1145.000000 1370.000000 1215.015015
vn 1.570796 -1.570796 -1.570796
v -1145.000000 2350.000000 1215.015015
vn -1.570796 -1.570796 -1.570796
v -500.000000 2350.000000 1215.015015
# 101 vertices, 0 vertices normals

f 1//1 2//2 3//3
f 3//3 2//2 4//4
f 4//4 2//2 5//5
f 6//6 7//7 1//1
f 1//1 7//7 2//2
f 7//7 6//6 8//8
f 8//8 6//6 9//9
f 9//9 6//6 10//10
f 10//10 6//6 1//1
f 11//11 9//9 12//12
f 12//12 9//9 10//10
f 7//7 8//8 2//2
f 2//2 8//8 13//13
f 14//14 8//8 15//15
f 15//15 8//8 9//9
f 15//15 9//9 11//11
f 8//8 14//14 13//13
f 13//13 14//14 16//16
f 17//17 14//14 15//15
f 15//15 11//11 17//17
f 17//17 11//11 18//18
f 17//17 18//18 19//19
f 20//20 21//21 14//14
f 20//20 14//14 22//22
f 22//22 14//14 17//17
f 22//22 17//17 19//19
f 20//20 22//22 23//23
f 24//24 25//25 23//23
f 23//23 25//25 21//21
f 23//23 21//21 20//20
f 26//26 27//27 5//5
f 16//16 28//28 13//13
f 13//13 28//28 26//26
f 13//13 26//26 2//2
f 2//2 26//26 5//5
f 4//4 5//5 29//29
f 29//29 5//5 30//30
f 31//31 4//4 32//32
f 32//32 4//4 33//33
f 32//32 33//33 34//34
f 3//3 4//4 1//1
f 1//1 4//4 31//31
f 1//1 31//31 10//10
f 10//10 31//31 35//35
f 10//10 35//35 12//12
f 27//27 26//26 33//33
f 33//33 26//26 36//36
f 33//33 36//36 34//34
f 37//37 38//38 33//33
f 33//33 38//38 27//27
f 29//29 37//37 4//4
f 4//4 37//37 33//33
f 39//39 40//40 29//29
f 29//29 40//40 37//37
f 38//38 30//30 27//27
f 27//27 30//30 5//5
f 40//40 41//41 37//37
f 37//37 41//41 38//38
f 36//36 26//26 42//42
f 31//31 32//32 42//42
f 42//42 32//32 34//34
f 42//42 34//34 36//36
f 26//26 43//43 42//42
f 42//42 43//43 44//44
f 42//42 44//44 31//31
f 44//44 43//43 45//45
f 45//45 43//43 46//46
f 47//47 48//48 45//45
f 45//45 48//48 35//35
f 45//45 35//35 44//44
f 44//44 35//35 31//31
f 43//43 26//26 46//46
f 46//46 26//26 28//28
f 46//46 28//28 49//49
f 49//49 28//28 50//50
f 45//45 46//46 47//47
f 47//47 46//46 49//49
f 48//48 47//47 51//51
f 51//51 47//47 49//49
f 51//51 49//49 50//50
f 52//52 48//48 51//51
f 50//50 53//53 51//51
f 51//51 53//53 54//54
f 51//51 54//54 52//52
f 53//53 50//50 55//55
f 53//53 55//55 54//54
f 54//54 55//55 56//56
f 54//54 56//56 57//57
f 58//58 57//57 56//56
f 55//55 59//59 56//56
f 56//56 59//59 60//60
f 56//56 60//60 58//58
f 61//61 41//41 62//62
f 62//62 41//41 40//40
f 62//62 40//40 63//63
f 62//62 63//63 64//64
f 65//65 66//66 64//64
f 64//64 66//66 61//61
f 64//64 61//61 62//62
f 41//41 67//67 38//38
f 38//38 67//67 68//68
f 38//38 68//68 30//30
f 30//30 68//68 69//69
f 68//68 70//70 69//69
f 69//69 70//70 71//71
f 69//69 71//71 30//30
f 30//30 71//71 72//72
f 30//30 72//72 29//29
f 29//29 72//72 73//73
f 29//29 73//73 39//39
f 67//67 41//41 74//74
f 74//74 41//41 61//61
f 74//74 61//61 75//75
f 76//76 77//77 21//21
f 21//21 77//77 55//55
f 21//21 55//55 14//14
f 14//14 55//55 50//50
f 14//14 50//50 16//16
f 16//16 50//50 28//28
f 70//70 74//74 71//71
f 71//71 74//74 75//75
f 71//71 75//75 72//72
f 72//72 75//75 77//77
f 72//72 77//77 78//78
f 78//78 77//77 76//76
f 78//78 76//76 79//79
f 79//79 76//76 80//80
f 80//80 76//76 21//21
f 81//81 55//55 82//82
f 82//82 55//55 77//77
f 82//82 77//77 61//61
f 61//61 77//77 75//75
f 55//55 81//81 59//59
f 59//59 81//81 83//83
f 59//59 83//83 60//60
f 83//83 81//81 84//84
f 84//84 81//81 82//82
f 82//82 61//61 84//84
f 84//84 61//61 66//66
f 84//84 66//66 65//65
f 65//65 85//85 84//84
f 84//84 85//85 86//86
f 84//84 86//86 83//83
f 83//83 86//86 60//60
f 73//73 85//85 39//39
f 39//39 85//85 65//65
f 39//39 65//65 40//40
f 40//40 65//65 64//64
f 40//40 64//64 63//63
f 23//23 22//22 19//19
f 12//12 35//35 11//11
f 11//11 35//35 48//48
f 48//48 52//52 11//11
f 11//11 52//52 54//54
f 11//11 54//54 18//18
f 18//18 54//54 57//57
f 18//18 57//57 19//19
f 19//19 57//57 24//24
f 19//19 24//24 23//23
f 86//86 87//87 60//60
f 60//60 87//87 24//24
f 60//60 24//24 58//58
f 58//58 24//24 57//57
f 73//73 72//72 88//88
f 88//88 72//72 78//78
f 89//89 90//90 87//87
f 86//86 85//85 87//87
f 87//87 85//85 73//73
f 87//87 73//73 89//89
f 89//89 73//73 88//88
f 87//87 90//90 24//24
f 24//24 90//90 91//91
f 80//80 21//21 91//91
f 91//91 21//21 25//25
f 91//91 25//25 24//24
f 92//92 93//93 91//91
f 91//91 93//93 80//80
f 93//93 92//92 78//78
f 78//78 92//92 89//89
f 90//90 89//89 91//91
f 91//91 89//89 92//92
f 78//78 79//79 93//93
f 93//93 79//79 80//80
f 88//88 78//78 89//89
f 94//94 74//74 70//70
f 74//74 94//94 67//67
f 67//67 94//94 95//95
f 67//67 95//95 68//68
f 68//68 95//95 96//96
f 68//68 96//96 70//70
f 70//70 96//96 97//97
f 70//70 97//97 94//94
f 95//95 94//94 98//98
f 98//98 94//94 99//99
f 100//100 99//99 97//97
f 97//97 99//99 94//94
f 97//97 96//96 100//100
f 100//100 96//96 101//101
f 98//98 101//101 95//95
f 95//95 101//101 96//96
f 101//101 98//98 100//100
f 100//100 98//98 99//99
# 202 faces, 0 coords texture

# End of File
