####
#
# OBJ File Generated by Meshlab
#
####
# Object MAGAZINE_DOOR.obj
#
# Vertices: 40
# Faces: 52
#
####
vn 1.570796 1.570796 -1.570796
v 555.000000 601.000000 -260.000000
vn 1.570796 -1.570796 -1.570796
v 555.000000 600.000000 -260.000000
vn -0.602209 3.021571 -2.748142
v 264.800690 601.000000 -260.000000
vn 0.602208 -3.021571 -3.535043
v 265.000000 600.000000 -260.000000
vn 1.570796 1.570796 1.570796
v 555.000000 601.000000 295.000000
vn 1.570796 -1.570796 1.570796
v 555.000000 600.000000 295.000000
vn 0.602208 -3.021571 3.535043
v 265.000000 600.000000 295.000000
vn -0.602209 3.021571 2.748142
v 264.800690 601.000000 295.000000
vn -0.000000 2.901549 -3.928494
v 132.500000 546.082703 -260.000000
vn -0.000000 2.901549 3.928494
v 132.500000 546.082703 295.000000
vn 0.000000 -2.901549 -2.354691
v 132.500000 545.000000 -260.000000
vn -0.000000 -2.901549 2.354691
v 132.500000 545.000000 295.000000
vn 0.602208 1.450774 0.000000
v 0.000000 601.082703 -260.000000
vn 0.602208 1.450774 0.000000
v 0.000000 601.082703 295.000000
vn 0.000000 0.000000 -1.177346
v -0.000000 601.082703 -260.000000
vn 0.000000 0.000000 -1.964247
v -0.000000 600.000000 -260.000000
vn 0.000000 0.000000 1.177346
v -0.000000 601.082703 295.000000
vn 0.000000 0.000000 1.964247
v -0.000000 600.000000 295.000000
vn 0.000000 2.901549 -3.928494
v -132.500000 546.082703 -260.000000
vn 0.000000 2.901549 3.928494
v -132.500000 546.082703 295.000000
vn -0.602208 1.450774 0.000000
v 0.000000 601.082703 -260.000000
vn -0.602208 1.450774 0.000000
v 0.000000 601.082703 295.000000
vn -0.602208 -1.450774 0.000000
v 0.000000 600.000000 295.000000
vn -0.602208 -1.450774 0.000000
v 0.000000 600.000000 -260.000000
vn 0.000000 0.000000 -1.177346
v 0.000000 601.082703 -260.000000
vn 0.000000 0.000000 -1.964247
v 0.000000 600.000000 -260.000000
vn 0.000000 -2.901549 -2.354691
v -132.500000 545.000000 -260.000000
vn -0.000000 -2.901549 2.354691
v -132.500000 545.000000 295.000000
vn 0.000000 0.000000 1.177346
v 0.000000 601.082703 295.000000
vn 0.000000 0.000000 1.964247
v 0.000000 600.000000 295.000000
vn 0.602209 3.021571 -2.748142
v -264.800690 601.000000 -260.000000
vn 0.602209 3.021571 2.748142
v -264.800690 601.000000 295.000000
vn 0.602208 -1.450774 0.000000
v 0.000000 600.000000 295.000000
vn 0.602208 -1.450774 0.000000
v 0.000000 600.000000 -260.000000
vn -0.602208 -3.021571 -3.535043
v -265.000000 600.000000 -260.000000
vn -0.602208 -3.021571 3.535043
v -265.000000 600.000000 295.000000
vn -1.570796 1.570796 -1.570796
v -555.000000 601.000000 -260.000000
vn -1.570796 1.570796 1.570796
v -555.000000 601.000000 295.000000
vn -1.570796 -1.570796 -1.570796
v -555.000000 600.000000 -260.000000
vn -1.570796 -1.570796 1.570796
v -555.000000 600.000000 295.000000
# 40 vertices, 0 vertices normals

f 1//1 2//2 3//3
f 3//3 2//2 4//4
f 5//5 6//6 1//1
f 1//1 6//6 2//2
f 6//6 5//5 7//7
f 7//7 5//5 8//8
f 3//3 8//8 1//1
f 1//1 8//8 5//5
f 9//9 10//10 3//3
f 3//3 10//10 8//8
f 7//7 4//4 6//6
f 6//6 4//4 2//2
f 3//3 4//4 9//9
f 9//9 4//4 11//11
f 10//10 12//12 8//8
f 8//8 12//12 7//7
f 13//13 14//14 9//9
f 9//9 14//14 10//10
f 12//12 11//11 7//7
f 7//7 11//11 4//4
f 9//9 11//11 15//15
f 15//15 11//11 16//16
f 17//17 18//18 10//10
f 10//10 18//18 12//12
f 19//19 20//20 21//21
f 21//21 20//20 22//22
f 23//23 24//24 12//12
f 12//12 24//24 11//11
f 25//25 26//26 19//19
f 19//19 26//26 27//27
f 20//20 28//28 29//29
f 29//29 28//28 30//30
f 31//31 32//32 19//19
f 19//19 32//32 20//20
f 28//28 27//27 33//33
f 33//33 27//27 34//34
f 19//19 27//27 31//31
f 31//31 27//27 35//35
f 32//32 36//36 20//20
f 20//20 36//36 28//28
f 37//37 38//38 31//31
f 31//31 38//38 32//32
f 39//39 37//37 35//35
f 35//35 37//37 31//31
f 37//37 39//39 38//38
f 38//38 39//39 40//40
f 38//38 40//40 32//32
f 32//32 40//40 36//36
f 36//36 35//35 28//28
f 28//28 35//35 27//27
f 40//40 39//39 36//36
f 36//36 39//39 35//35
# 52 faces, 0 coords texture

# End of File
