####
#
# OBJ File Generated by Meshlab
#
####
# Object Proof.obj
#
# Vertices: 30
# Faces: 40
#
####
vn 0.000000 1.570796 0.000000
v -555.000000 600.000000 295.000000
vn 0.602208 3.021571 0.000000
v -265.000000 600.000000 295.000000
vn 0.602208 3.021571 0.000000
v -265.000000 600.000000 -260.000000
vn 0.000000 1.570796 0.000000
v -555.000000 600.000000 -260.000000
vn -0.000000 2.901549 0.000000
v -132.500000 545.000000 295.000000
vn 0.000000 2.901549 0.000000
v -132.500000 545.000000 -260.000000
vn 0.000000 2.901549 0.000000
v 0.000000 600.000000 295.000000
vn -0.000000 2.901549 0.000000
v 0.000000 600.000000 -260.000000
vn -0.000000 2.901549 0.000000
v 132.500000 545.000000 295.000000
vn 0.000000 2.901549 0.000000
v 132.500000 545.000000 -260.000000
vn -0.602208 3.021571 0.000000
v 265.000000 600.000000 295.000000
vn -0.602208 3.021571 0.000000
v 265.000000 600.000000 -260.000000
vn 0.000000 1.570796 0.000000
v 555.000000 600.000000 295.000000
vn 0.000000 1.570796 0.000000
v 555.000000 600.000000 -260.000000
vn -1.570796 1.570796 -1.570796
v -1145.000000 541.000000 -250.000000
vn -1.570796 -1.570796 -1.570796
v -1145.000000 540.000000 -250.000000
vn -1.570796 1.570796 1.570796
v -1145.000000 541.000000 1220.000000
vn -1.570796 -1.570796 1.570796
v -1145.000000 540.000000 1220.000000
vn 1.570796 1.570796 1.570796
v 1145.000000 541.000000 1220.000000
vn 1.570796 -1.570796 1.570796
v 1145.000000 540.000000 1220.000000
vn 1.570796 1.570796 -1.570796
v 1145.000000 541.000000 -250.000000
vn 1.570796 -1.570796 -1.570796
v 1145.000000 540.000000 -250.000000
vn -1.570796 1.570796 -1.570796
v 555.000000 541.000000 -250.000000
vn -1.570796 -1.570796 -1.570796
v 555.000000 540.000000 -250.000000
vn -1.570796 4.712389 -1.570796
v 555.000000 541.000000 295.015015
vn -1.570796 -4.712389 -1.570796
v 555.000000 540.000000 295.015015
vn 1.570796 1.570796 -1.570796
v -555.000000 541.000000 -250.000000
vn 1.570796 4.712389 -1.570796
v -555.000000 541.000000 295.015015
vn 1.570796 -4.712389 -1.570796
v -555.000000 540.000000 295.015015
vn 1.570796 -1.570796 -1.570796
v -555.000000 540.000000 -250.000000
# 30 vertices, 0 vertices normals

f 1//1 2//2 3//3
f 1//1 3//3 4//4
f 2//2 5//5 6//6
f 2//2 6//6 3//3
f 5//5 7//7 8//8
f 5//5 8//8 6//6
f 7//7 9//9 10//10
f 7//7 10//10 8//8
f 9//9 11//11 12//12
f 9//9 12//12 10//10
f 11//11 13//13 14//14
f 11//11 14//14 12//12
f 15//15 16//16 17//17
f 17//17 16//16 18//18
f 17//17 18//18 19//19
f 19//19 18//18 20//20
f 19//19 20//20 21//21
f 21//21 20//20 22//22
f 21//21 22//22 23//23
f 23//23 22//22 24//24
f 23//23 24//24 25//25
f 25//25 24//24 26//26
f 27//27 15//15 28//28
f 28//28 15//15 17//17
f 28//28 17//17 25//25
f 25//25 17//17 19//19
f 25//25 19//19 23//23
f 23//23 19//19 21//21
f 24//24 22//22 26//26
f 26//26 22//22 20//20
f 26//26 20//20 29//29
f 29//29 20//20 18//18
f 29//29 18//18 30//30
f 30//30 18//18 16//16
f 25//25 26//26 28//28
f 28//28 26//26 29//29
f 28//28 29//29 27//27
f 27//27 29//29 30//30
f 27//27 30//30 15//15
f 15//15 30//30 16//16
# 40 faces, 0 coords texture

# End of File
