####
#
# OBJ File Generated by Meshlab
#
####
# Object X_AXIS.obj
#
# Vertices: 72
# Faces: 140
#
####
vn 1.570796 1.570796 -1.570796
v 445.000000 1250.000000 660.015015
vn 1.570796 -1.570796 -1.570796
v 445.000000 590.000000 660.015015
vn -1.570796 1.570796 -1.570796
v -445.000000 1250.000000 660.015015
vn -1.570796 -1.570796 -1.570796
v -445.000000 590.000000 660.015015
vn 4.712389 -1.570796 -1.570796
v 445.000000 590.000000 690.015015
vn -4.712389 -1.570796 -1.570796
v -445.000000 590.000000 690.015015
vn -4.712389 1.570796 -1.570796
v -445.000000 545.000000 690.015015
vn 4.712389 1.570796 -1.570796
v 445.000000 545.000000 690.015015
vn -1.570796 1.570796 -1.570796
v -445.000000 545.000000 660.015015
vn 1.570796 1.570796 -1.570796
v 445.000000 545.000000 660.015015
vn 4.712389 1.570796 -1.570796
v 445.000000 1250.000000 690.015015
vn -4.712389 1.570796 -1.570796
v -445.000000 1250.000000 690.015015
vn -4.712389 -1.570796 -1.570796
v -445.000000 1295.000000 690.015015
vn 4.712389 -1.570796 -1.570796
v 445.000000 1295.000000 690.015015
vn -1.570796 -1.570796 -1.570796
v -445.000000 1295.000000 660.015015
vn 1.570796 -1.570796 -1.570796
v 445.000000 1295.000000 660.015015
vn 1.570796 1.570796 -1.570796
v 445.000000 1345.000000 660.015015
vn -1.570796 1.570796 -1.570796
v -445.000000 1345.000000 660.015015
vn -1.570796 1.570796 1.570796
v -445.000000 1345.000000 890.015015
vn -1.570796 -1.570796 1.570796
v -445.000000 245.000000 890.015015
vn -1.570796 -1.570796 -1.570796
v -445.000000 245.000000 660.015015
vn 1.570796 -1.570796 1.570796
v -325.000000 245.000000 890.015015
vn 1.570796 1.570796 1.570796
v -325.000000 1345.000000 890.015015
vn 1.570796 -4.712389 1.570796
v -325.000000 245.000000 770.015015
vn 1.570796 4.712389 1.570796
v -325.000000 1345.000000 770.015015
vn 1.570796 -1.570796 1.570796
v -300.000000 245.000000 770.015015
vn 1.570796 1.570796 1.570796
v -300.000000 1345.000000 770.015015
vn 1.570796 -4.712389 1.570796
v -300.000000 245.000000 740.015015
vn 1.570796 4.712389 1.570796
v -300.000000 1345.000000 740.015015
vn -1.570796 -4.712389 1.570796
v -255.000000 245.000000 740.015015
vn -1.570796 4.712389 1.570796
v -255.000000 1345.000000 740.015015
vn -1.570796 1.570796 1.570796
v -255.000000 1345.000000 770.015015
vn -1.570796 -1.570796 1.570796
v -255.000000 245.000000 770.015015
vn 1.570796 -1.570796 1.570796
v -235.000000 245.000000 770.015015
vn 1.570796 1.570796 1.570796
v -235.000000 1345.000000 770.015015
vn 1.570796 -4.712389 1.570796
v -235.000000 245.000000 733.015015
vn 1.570796 4.712389 1.570796
v -235.000000 1345.000000 733.015015
vn 1.570796 -1.570796 -1.570796
v -215.000000 245.000000 660.015015
vn 1.570796 -1.570796 1.570796
v -215.000000 245.000000 733.015015
vn 1.570796 -1.570796 -4.712389
v -215.000000 495.000000 660.015015
vn 1.570796 -1.570796 4.712389
v -215.000000 495.000000 733.015015
vn -1.570796 -4.712389 1.570796
v -72.500000 495.000000 733.015015
vn -1.570796 4.712389 1.570796
v -72.500000 1345.000000 733.015015
vn -1.570796 1.570796 1.570796
v -72.500000 1345.000000 826.015015
vn -1.570796 -1.570796 1.570796
v -72.500000 495.000000 826.015015
vn 1.570796 -1.570796 1.570796
v 72.500000 495.000000 826.015015
vn 1.570796 1.570796 1.570796
v 72.500000 1345.000000 826.015015
vn 1.570796 -4.712389 1.570796
v 72.500000 495.000000 733.015015
vn 1.570796 4.712389 1.570796
v 72.500000 1345.000000 733.015015
vn -1.570796 -1.570796 -4.712389
v 215.000000 495.000000 660.015015
vn -1.570796 -1.570796 4.712389
v 215.000000 495.000000 733.015015
vn -1.570796 -1.570796 -1.570796
v 215.000000 245.000000 660.015015
vn 1.570796 -1.570796 -1.570796
v 445.000000 245.000000 660.015015
vn -1.570796 -1.570796 1.570796
v 215.000000 245.000000 733.015015
vn 1.570796 -1.570796 1.570796
v 445.000000 245.000000 890.015015
vn 1.570796 1.570796 1.570796
v 445.000000 1345.000000 890.015015
vn -1.570796 -4.712389 1.570796
v 235.000000 245.000000 733.015015
vn -1.570796 4.712389 1.570796
v 235.000000 1345.000000 733.015015
vn -1.570796 -1.570796 1.570796
v 325.000000 245.000000 890.015015
vn -1.570796 1.570796 1.570796
v 325.000000 1345.000000 890.015015
vn -1.570796 4.712389 1.570796
v 325.000000 1345.000000 770.015015
vn -1.570796 -4.712389 1.570796
v 325.000000 245.000000 770.015015
vn -1.570796 -1.570796 1.570796
v 300.000000 245.000000 770.015015
vn -1.570796 1.570796 1.570796
v 300.000000 1345.000000 770.015015
vn -1.570796 4.712389 1.570796
v 300.000000 1345.000000 740.015015
vn -1.570796 -4.712389 1.570796
v 300.000000 245.000000 740.015015
vn 1.570796 -4.712389 1.570796
v 255.000000 245.000000 740.015015
vn 1.570796 4.712389 1.570796
v 255.000000 1345.000000 740.015015
vn -1.570796 1.570796 1.570796
v 235.000000 1345.000000 770.015015
vn 1.570796 1.570796 1.570796
v 255.000000 1345.000000 770.015015
vn 1.570796 -1.570796 1.570796
v 255.000000 245.000000 770.015015
vn -1.570796 -1.570796 1.570796
v 235.000000 245.000000 770.015015
# 72 vertices, 0 vertices normals

f 1//1 2//2 3//3
f 3//3 2//2 4//4
f 5//5 6//6 2//2
f 2//2 6//6 4//4
f 6//6 5//5 7//7
f 7//7 5//5 8//8
f 7//7 8//8 9//9
f 9//9 8//8 10//10
f 1//1 3//3 11//11
f 11//11 3//3 12//12
f 12//12 13//13 11//11
f 11//11 13//13 14//14
f 15//15 16//16 13//13
f 13//13 16//16 14//14
f 17//17 16//16 18//18
f 18//18 16//16 15//15
f 18//18 15//15 19//19
f 19//19 15//15 13//13
f 19//19 13//13 20//20
f 20//20 13//13 12//12
f 9//9 21//21 7//7
f 7//7 21//21 20//20
f 7//7 20//20 6//6
f 6//6 20//20 12//12
f 6//6 12//12 4//4
f 4//4 12//12 3//3
f 22//22 23//23 20//20
f 20//20 23//23 19//19
f 24//24 25//25 22//22
f 22//22 25//25 23//23
f 26//26 27//27 24//24
f 24//24 27//27 25//25
f 28//28 29//29 26//26
f 26//26 29//29 27//27
f 30//30 31//31 28//28
f 28//28 31//31 29//29
f 31//31 30//30 32//32
f 32//32 30//30 33//33
f 34//34 35//35 33//33
f 33//33 35//35 32//32
f 36//36 37//37 34//34
f 34//34 37//37 35//35
f 38//38 39//39 21//21
f 21//21 39//39 36//36
f 34//34 33//33 36//36
f 36//36 33//33 30//30
f 36//36 30//30 21//21
f 21//21 30//30 28//28
f 22//22 20//20 24//24
f 24//24 20//20 21//21
f 24//24 21//21 26//26
f 26//26 21//21 28//28
f 38//38 40//40 39//39
f 39//39 40//40 41//41
f 42//42 43//43 41//41
f 41//41 43//43 37//37
f 41//41 37//37 39//39
f 39//39 37//37 36//36
f 43//43 42//42 44//44
f 44//44 42//42 45//45
f 46//46 47//47 45//45
f 45//45 47//47 44//44
f 48//48 49//49 46//46
f 46//46 49//49 47//47
f 42//42 41//41 40//40
f 50//50 51//51 48//48
f 46//46 45//45 48//48
f 48//48 45//45 42//42
f 48//48 42//42 50//50
f 50//50 42//42 40//40
f 38//38 21//21 40//40
f 40//40 21//21 9//9
f 40//40 9//9 50//50
f 50//50 9//9 10//10
f 50//50 10//10 52//52
f 52//52 10//10 53//53
f 50//50 52//52 51//51
f 51//51 52//52 54//54
f 53//53 10//10 55//55
f 55//55 10//10 8//8
f 55//55 8//8 5//5
f 16//16 17//17 14//14
f 14//14 17//17 56//56
f 14//14 56//56 11//11
f 2//2 1//1 5//5
f 5//5 1//1 11//11
f 5//5 11//11 55//55
f 55//55 11//11 56//56
f 54//54 57//57 51//51
f 51//51 57//57 58//58
f 51//51 58//58 48//48
f 48//48 58//58 49//49
f 55//55 56//56 59//59
f 59//59 56//56 60//60
f 61//61 62//62 60//60
f 60//60 62//62 59//59
f 62//62 61//61 63//63
f 63//63 61//61 64//64
f 65//65 66//66 64//64
f 64//64 66//66 63//63
f 66//66 65//65 67//67
f 67//67 65//65 68//68
f 58//58 69//69 70//70
f 19//19 23//23 18//18
f 18//18 23//23 25//25
f 18//18 37//37 17//17
f 17//17 37//37 43//43
f 68//68 65//65 17//17
f 70//70 68//68 58//58
f 58//58 68//68 17//17
f 58//58 17//17 49//49
f 49//49 17//17 43//43
f 49//49 43//43 47//47
f 47//47 43//43 44//44
f 60//60 56//56 61//61
f 61//61 56//56 17//17
f 61//61 17//17 64//64
f 64//64 17//17 65//65
f 32//32 35//35 31//31
f 31//31 35//35 37//37
f 31//31 37//37 29//29
f 29//29 37//37 18//18
f 29//29 18//18 27//27
f 27//27 18//18 25//25
f 54//54 52//52 57//57
f 57//57 52//52 53//53
f 55//55 59//59 53//53
f 53//53 59//59 62//62
f 71//71 72//72 67//67
f 67//67 72//72 57//57
f 67//67 57//57 66//66
f 66//66 57//57 53//53
f 66//66 53//53 63//63
f 63//63 53//53 62//62
f 67//67 68//68 71//71
f 71//71 68//68 70//70
f 71//71 70//70 72//72
f 72//72 70//70 69//69
f 58//58 57//57 69//69
f 69//69 57//57 72//72
# 140 faces, 0 coords texture

# End of File
