ply
format ascii 1.0
comment Created by Open3D
element vertex 1000
property double x
property double y
property double z
property double nx
property double ny
property double nz
end_header
0.01 0.0122047 -0.00079456 1 0 0
0.01 0.0180994 -0.00124184 1 0 0
0.01 0.0148454 -0.00572551 1 0 0
0.01 0.0149008 0.00151221 1 0 0
0.01 0.00150139 -0.00991526 1 0 0
0.01 0.0103464 -0.00777725 1 0 0
0.01 0.016133 0.0021632 1 0 0
0.01 0.0178453 -0.00498806 1 0 0
0.01 0.0126972 -0.00265126 1 0 0
0.01 0.0155641 -0.00151855 1 0 0
0.01 0.0053813 -0.00654728 1 0 0
0.01 0.0165989 0.00603083 1 0 0
0.01 0.00489907 -0.00859827 1 0 0
0.01 0.0145476 -0.00718776 1 0 0
0.01 0.00661196 -0.00924575 1 0 0
0.01 0.0136265 -0.000935055 1 0 0
0.01 0.0176698 6.28956e-05 1 0 0
0.01 0.018075 -0.00263338 1 0 0
0.01 0.0189819 0.00773647 1 0 0
0.01 0.00525326 -0.00533926 1 0 0
0.01 0.0161678 0.00488969 1 0 0
0.01 0.00845272 -0.00629093 1 0 0
0.01 0.0133452 -0.00608518 1 0 0
0.01 0.00769732 -0.00995005 1 0 0
0.01 0.0199731 0.00120222 1 0 0
0.01 0.0103981 -0.00246914 1 0 0
0.01 0.0149927 0.00444477 1 0 0
0.01 0.0141806 -0.00273194 1 0 0
0.01 0.0132738 0.00297581 1 0 0
0.01 0.00639292 -0.00790943 1 0 0
0.01 0.0193564 -0.00207444 1 0 0
0.01 0.0116617 -0.00879102 1 0 0
0.01 0.0148572 -0.00993311 1 0 0
0.01 0.00928241 -0.00718255 1 0 0
0.01 0.018684 -0.00378479 1 0 0
0.01 0.0165204 -0.00414362 1 0 0
0.01 0.0117193 -0.00377382 1 0 0
0.01 0.0199609 -0.00342966 1 0 0
0.01 0.0132317 0.00016871 1 0 0
0.01 0.00944581 -0.00565062 1 0 0
0.01 0.00760835 -0.00719861 1 0 0
0.01 0.0173797 0.00143335 1 0 0
0.01 0.00252489 -0.00896816 1 0 0
0.01 0.0167579 -0.000966527 1 0 0
0.01 0.0178242 0.00555377 1 0 0
0.01 0.0161176 -0.00619795 1 0 0
0.01 0.0113741 0.000736319 1 0 0
0.01 0.01422 -0.00873325 1 0 0
0.01 0.00351282 -0.00805229 1 0 0
0.01 0.0178503 0.00343574 1 0 0
0.01 0.0107145 -0.00101665 1 0 0
0.01 0.00773415 -0.0083575 1 0 0
0.01 0.0185453 -0.00814019 1 0 0
0.01 0.0142931 -0.0044594 1 0 0
0.01 0.0184532 -0.0098864 1 0 0
0.01 0.00454343 -0.00741525 1 0 0
0.01 0.0154088 0.00325124 1 0 0
0.01 0.00925446 -0.00422589 1 0 0
0.01 0.0135605 0.00146335 1 0 0
0.01 0.00932214 -0.00118279 1 0 0
0.01 0.0199354 0.00371614 1 0 0
0.01 0.0127633 -0.00475455 1 0 0
0.01 0.019935 -0.00707381 1 0 0
0.01 0.00893178 -0.00866402 1 0 0
0.01 0.0175705 -0.0074704 1 0 0
0.01 0.0161017 -0.00284087 1 0 0
0.01 0.00796224 -0.00397961 1 0 0
0.01 0.00863295 -0.00288538 1 0 0
0.01 0.016228 -0.00759673 1 0 0
0.01 0.00385879 -0.00631708 1 0 0
0.01 0.0128398 -0.0093792 1 0 0
0.01 0.0187734 0.00476514 1 0 0
0.01 0.0133968 -0.00778147 1 0 0
0.01 0.0147257 -0.000389179 1 0 0
0.01 0.0186096 -0.00684848 1 0 0
0.01 0.0161975 0.000740403 1 0 0
0.01 0.019877 -0.00951553 1 0 0
0.01 0.0120789 -0.00662682 1 0 0
0.01 0.0108551 -0.00466364 1 0 0
0.01 0.0107242 -0.00607302 1 0 0
0.01 0.0173657 -0.00902573 1 0 0
0.01 0.00653798 -0.0058028 1 0 0
0.01 0.018892 0.000513583 1 0 0
0.01 0.0186251 0.00216404 1 0 0
0.01 0.0162523 -0.0096289 1 0 0
0.01 0.0195647 -0.00459128 1 0 0
0.01 0.0175696 0.00731945 1 0 0
0.01 0.0183528 0.00902678 1 0 0
0.01 0.00221692 0.00499571 1 0 0
0.01 0.00034332 0.0017752 1 0 0
0.01 0.00488613 0.00547487 1 0 0
0.01 0.00691231 0.000456913 1 0 0
0.01 0.00935524 0.00541917 1 0 0
0.01 0.0103077 0.00885655 1 0 0
0.01 0.0116518 0.00881114 1 0 0
0.01 0.00140385 -0.00194194 1 0 0
0.01 0.0023445 0.00790274 1 0 0
0.01 0.00307813 -0.00192602 1 0 0
0.01 0.00587906 0.00431323 1 0 0
0.01 0.00440722 0.00416466 1 0 0
0.01 0.00417378 0.00663336 1 0 0
0.01 0.0140272 0.00900793 1 0 0
0.01 0.0141165 0.00687108 1 0 0
0.01 0.00870666 0.000550446 1 0 0
0.01 0.0127665 0.00711776 1 0 0
0.01 0.00608874 -0.00366842 1 0 0
0.01 0.00624836 0.00605206 1 0 0
0.01 0.0113443 0.0074748 1 0 0
0.01 0.00262978 0.000948557 1 0 0
0.01 0.00279918 0.00608981 1 0 0
0.01 0.01184 0.00388707 1 0 0
0.01 0.00716235 0.00740563 1 0 0
0.01 0.00715866 0.00489167 1 0 0
0.01 0.00414518 -0.00121344 1 0 0
0.01 0.00317604 0.00338107 1 0 0
0.01 0.00812743 0.00616123 1 0 0
0.01 0.00871902 0.00763028 1 0 0
0.01 0.0128256 0.00581185 1 0 0
0.01 0.00156252 -0.000145119 1 0 0
0.01 0.00718799 0.00335985 1 0 0
0.01 0.000925688 0.00413528 1 0 0
0.01 0.0126359 0.00992615 1 0 0
0.01 0.00905846 0.00893173 1 0 0
0.01 0.00194008 0.00338743 1 0 0
0.01 0.0027412 -0.000651535 1 0 0
0.01 0.0116866 0.00619197 1 0 0
0.01 0.00351349 -0.00461653 1 0 0
0.01 0.00736142 0.00220411 1 0 0
0.01 0.00390772 0.000285194 1 0 0
0.01 0.0107653 0.00544238 1 0 0
0.01 0.00429841 0.00960538 1 0 0
0.01 0.00140492 -0.00680341 1 0 0
0.01 0.000578045 -0.00803965 1 0 0
0.01 0.00542846 0.00299629 1 0 0
0.01 0.0100292 0.00690372 1 0 0
0.01 0.0101495 0.00396033 1 0 0
0.01 0.00399037 0.00821697 1 0 0
0.01 0.00136687 0.00668132 1 0 0
0.01 0.00776333 -0.00132912 1 0 0
0.01 0.00116202 -0.00336256 1 0 0
0.01 0.00524142 -0.00261504 1 0 0
0.01 0.000433905 0.000548814 1 0 0
0.01 0.011911 0.00216943 1 0 0
0.01 0.000162635 -0.00915797 1 0 0
0.01 4.64756e-06 0.00701607 1 0 0
0.01 0.00831914 0.00418403 1 0 0
0.01 0.00526037 0.00753225 1 0 0
0.01 0.00265221 0.00220842 1 0 0
0.01 0.00493978 0.00137061 1 0 0
0.01 0.000511482 -0.000745533 1 0 0
0.01 0.0132546 0.00436844 1 0 0
0.01 0.0156093 0.00667139 1 0 0
0.01 0.00852821 0.00168675 1 0 0
0.01 0.00602382 0.00887313 1 0 0
0.01 0.00801076 0.00944739 1 0 0
0.01 0.00383118 -0.00323574 1 0 0
0.01 0.00260678 -0.00584305 1 0 0
0.01 0.00703306 -0.00251698 1 0 0
0.01 0.000541795 0.00567363 1 0 0
0.01 0.00110197 0.00790285 1 0 0
0.01 0.0164956 0.00848819 1 0 0
0.01 0.0150429 0.00791374 1 0 0
0.01 0.014536 0.00573709 1 0 0
0.01 0.0128072 0.00850554 1 0 0
0.01 0.00647781 -0.000910063 1 0 0
0.01 0.000393917 -0.0046128 1 0 0
0.01 0.00414768 0.00233097 1 0 0
0.01 0.00215708 -0.00474628 1 0 0
0.01 0.0101367 0.00271185 1 0 0
0.01 0.00867996 0.00309232 1 0 0
0.01 0.00996438 0.000282807 1 0 0
0.01 0.00560592 0.000238134 1 0 0
0.01 0.00604966 0.00180122 1 0 0
-0.00890668 0.0185913 -0.01 0 0 -1
-0.00950294 0.00421774 -0.01 0 0 -1
0.00733818 0.0182954 -0.01 0 0 -1
-0.00805826 0.00652033 -0.01 0 0 -1
-0.00848023 0.00193519 -0.01 0 0 -1
-0.00429361 0.0174808 -0.01 0 0 -1
-0.00772614 0.0178377 -0.01 0 0 -1
-0.00487333 0.0161375 -0.01 0 0 -1
-0.00973481 0.0150147 -0.01 0 0 -1
-0.00841976 0.0151608 -0.01 0 0 -1
-0.00168902 0.0173924 -0.01 0 0 -1
-0.00824218 0.00313716 -0.01 0 0 -1
-0.00749023 0.0126948 -0.01 0 0 -1
-0.00559335 0.00551052 -0.01 0 0 -1
-0.00693599 0.00893223 -0.01 0 0 -1
-0.000510867 0.0183458 -0.01 0 0 -1
-0.00407276 0.00946246 -0.01 0 0 -1
0.00295415 0.0147692 -0.01 0 0 -1
-0.00782063 0.00435202 -0.01 0 0 -1
-0.0098687 0.00941474 -0.01 0 0 -1
0.00585548 0.018505 -0.01 0 0 -1
-0.0022216 0.0128234 -0.01 0 0 -1
-0.00548331 0.0197204 -0.01 0 0 -1
-0.00322438 0.0164143 -0.01 0 0 -1
0.00252242 0.0193342 -0.01 0 0 -1
-0.00774663 0.0191504 -0.01 0 0 -1
-0.00603162 0.0181679 -0.01 0 0 -1
0.000529611 0.0132928 -0.01 0 0 -1
0.00377395 0.0157699 -0.01 0 0 -1
-0.00526408 0.00858454 -0.01 0 0 -1
0.000239566 0.0114379 -0.01 0 0 -1
-0.00774777 0.0165736 -0.01 0 0 -1
0.00436687 0.0182541 -0.01 0 0 -1
-0.00412787 0.00801643 -0.01 0 0 -1
-0.00269091 0.015227 -0.01 0 0 -1
-0.00151237 0.0160102 -0.01 0 0 -1
-0.00350741 0.0124672 -0.01 0 0 -1
-0.00719517 0.00561127 -0.01 0 0 -1
-0.00706593 0.0106807 -0.01 0 0 -1
0.00150062 0.0167351 -0.01 0 0 -1
-0.00214614 0.00855859 -0.01 0 0 -1
-0.0033633 0.0186923 -0.01 0 0 -1
0.00133511 0.0155543 -0.01 0 0 -1
-0.00483434 0.00685042 -0.01 0 0 -1
-0.00752942 0.00776365 -0.01 0 0 -1
-0.00833575 0.0106663 -0.01 0 0 -1
0.00174159 0.0142914 -0.01 0 0 -1
-0.00094436 0.0123322 -0.01 0 0 -1
-0.00653924 0.00455023 -0.01 0 0 -1
-0.0040283 0.0140961 -0.01 0 0 -1
-0.00905589 0.0163619 -0.01 0 0 -1
0.00581721 0.0161753 -0.01 0 0 -1
-0.0096781 0.00552322 -0.01 0 0 -1
-0.00892462 0.00859205 -0.01 0 0 -1
-0.00715388 0.0146167 -0.01 0 0 -1
-0.0051183 0.0125175 -0.01 0 0 -1
-0.00304822 0.0111515 -0.01 0 0 -1
-0.00995384 0.0174187 -0.01 0 0 -1
-0.00849589 0.0120251 -0.01 0 0 -1
0.00863013 0.0187895 -0.01 0 0 -1
-9.90728e-05 0.0156813 -0.01 0 0 -1
-0.00625716 0.0076547 -0.01 0 0 -1
-0.00633883 0.0121669 -0.01 0 0 -1
-0.0062959 0.0157592 -0.01 0 0 -1
-0.00254746 0.00974762 -0.01 0 0 -1
-0.000865309 0.0109159 -0.01 0 0 -1
0.00288621 0.0129676 -0.01 0 0 -1
-0.00697841 0.00332388 -0.01 0 0 -1
-0.00468881 0.0188591 -0.01 0 0 -1
6.99142e-05 0.0169357 -0.01 0 0 -1
0.00363983 0.0171932 -0.01 0 0 -1
0.00263905 0.0179474 -0.01 0 0 -1
-0.005875 0.00999188 -0.01 0 0 -1
-0.00555537 0.0143213 -0.01 0 0 -1
-0.00910734 0.00733215 -0.01 0 0 -1
-0.00835084 0.0136823 -0.01 0 0 -1
-0.000573448 0.0144676 -0.01 0 0 -1
-0.00326291 0.00719271 -0.01 0 0 -1
0.000511462 0.0192619 -0.01 0 0 -1
-0.00446462 0.0109581 -0.01 0 0 -1
0.0012119 0.018055 -0.01 0 0 -1
-0.00116011 0.00296791 -0.01 0 0 -1
0.00172183 0.0116618 -0.01 0 0 -1
0.00382034 0.00730487 -0.01 0 0 -1
0.0070122 0.0168166 -0.01 0 0 -1
0.00568845 0.0042785 -0.01 0 0 -1
-0.000700481 0.00632269 -0.01 0 0 -1
0.00490531 0.00586404 -0.01 0 0 -1
0.00869603 0.00937253 -0.01 0 0 -1
-0.00508814 0.000210102 -0.01 0 0 -1
0.00717334 0.00443883 -0.01 0 0 -1
-0.00547532 0.00339574 -0.01 0 0 -1
0.00903452 0.0121353 -0.01 0 0 -1
0.00297534 0.00340275 -0.01 0 0 -1
0.00443978 0.00200161 -0.01 0 0 -1
0.00667547 0.00914349 -0.01 0 0 -1
0.00332661 0.00603757 -0.01 0 0 -1
0.00442743 0.00453281 -0.01 0 0 -1
0.00853808 0.0152812 -0.01 0 0 -1
0.00658914 0.0122952 -0.01 0 0 -1
0.00633468 0.00532648 -0.01 0 0 -1
0.00241057 0.00905804 -0.01 0 0 -1
0.00477026 0.0109222 -0.01 0 0 -1
0.00705324 0.00198546 -0.01 0 0 -1
-0.00738921 0.00114878 -0.01 0 0 -1
0.00797988 0.0110262 -0.01 0 0 -1
-0.000422579 0.0091762 -0.01 0 0 -1
0.00927299 0.0172523 -0.01 0 0 -1
0.00173778 0.00679371 -0.01 0 0 -1
-0.00546622 0.00191203 -0.01 0 0 -1
0.000884061 0.000369926 -0.01 0 0 -1
0.0080578 0.00540614 -0.01 0 0 -1
0.00756769 0.0033485 -0.01 0 0 -1
0.000842503 0.00922728 -0.01 0 0 -1
0.00723391 0.0156261 -0.01 0 0 -1
0.000600169 0.00715807 -0.01 0 0 -1
0.00273555 0.000843276 -0.01 0 0 -1
-0.00356564 6.36478e-05 -0.01 0 0 -1
-0.00277866 0.000902128 -0.01 0 0 -1
0.00574192 0.00246974 -0.01 0 0 -1
0.00522509 0.00931687 -0.01 0 0 -1
0.0079631 0.0126999 -0.01 0 0 -1
0.00555306 0.00101479 -0.01 0 0 -1
0.00622448 0.0150215 -0.01 0 0 -1
0.00977687 0.00534455 -0.01 0 0 -1
0.00145691 0.0051145 -0.01 0 0 -1
-0.00310034 0.00533822 -0.01 0 0 -1
0.00176928 0.00227502 -0.01 0 0 -1
-0.00224474 0.00363831 -0.01 0 0 -1
0.00716479 0.0140671 -0.01 0 0 -1
0.00984617 0.00315649 -0.01 0 0 -1
-0.00179393 0.00505115 -0.01 0 0 -1
-0.000558484 0.00482747 -0.01 0 0 -1
0.0035586 0.0116829 -0.01 0 0 -1
0.00465131 0.00330422 -0.01 0 0 -1
0.0066118 0.00670164 -0.01 0 0 -1
0.00665667 0.0105069 -0.01 0 0 -1
0.00512868 0.0072365 -0.01 0 0 -1
0.00907566 0.0137383 -0.01 0 0 -1
0.0099982 0.00944387 -0.01 0 0 -1
0.00421301 0.0134889 -0.01 0 0 -1
0.00921855 0.0104146 -0.01 0 0 -1
0.00770257 0.000722149 -0.01 0 0 -1
0.000159093 0.00281005 -0.01 0 0 -1
0.00546831 0.0134659 -0.01 0 0 -1
-0.00130824 0.00104541 -0.01 0 0 -1
0.00854744 0.00205151 -0.01 0 0 -1
0.00898691 0.000311448 -0.01 0 0 -1
-0.00425049 0.00562029 -0.01 0 0 -1
0.00785614 0.00710822 -0.01 0 0 -1
0.00346978 0.010019 -0.01 0 0 -1
0.000264204 0.00158663 -0.01 0 0 -1
0.00114808 0.00376134 -0.01 0 0 -1
0.00316839 0.00205492 -0.01 0 0 -1
0.00177457 0.0103686 -0.01 0 0 -1
0.00870626 0.00802417 -0.01 0 0 -1
0.00176033 0.00811639 -0.01 0 0 -1
-0.0034703 0.00241708 -0.01 0 0 -1
0.00879633 0.00389825 -0.01 0 0 -1
-0.00185867 0.00720033 -0.01 0 0 -1
0.00512815 0.0122109 -0.01 0 0 -1
-0.00421265 0.00359117 -0.01 0 0 -1
-0.01 0.0193305 0.00740523 -1 0 0
-0.01 0.0071994 0.00884814 -1 0 0
-0.01 0.0139227 -0.003778 -1 0 0
-0.01 0.00220476 0.00856729 -1 0 0
-0.01 0.0189511 0.00576741 -1 0 0
-0.01 0.0106352 0.00709356 -1 0 0
-0.01 0.0122511 0.00364608 -1 0 0
-0.01 0.0100841 0.00139377 -1 0 0
-0.01 0.0176912 0.00496485 -1 0 0
-0.01 0.00867235 0.004423 -1 0 0
-0.01 0.0150666 0.00387322 -1 0 0
-0.01 0.00755948 0.00301412 -1 0 0
-0.01 0.00474564 0.00573676 -1 0 0
-0.01 0.0133248 0.00895713 -1 0 0
-0.01 0.00630762 0.00379043 -1 0 0
-0.01 0.0171269 0.00152615 -1 0 0
-0.01 0.0164564 0.00537047 -1 0 0
-0.01 0.018239 0.000218837 -1 0 0
-0.01 0.0172394 -0.00541951 -1 0 0
-0.01 0.0151666 -0.00399536 -1 0 0
-0.01 0.00584159 0.00815931 -1 0 0
-0.01 0.012903 -0.00190139 -1 0 0
-0.01 0.0169616 0.00896721 -1 0 0
-0.01 0.0146633 -0.00153848 -1 0 0
-0.01 0.00869648 0.0022683 -1 0 0
-0.01 0.0123259 0.00999253 -1 0 0
-0.01 0.00369474 0.00745873 -1 0 0
-0.01 0.0103295 0.00397463 -1 0 0
-0.01 0.0152939 0.00174457 -1 0 0
-0.01 0.0197248 0.00982386 -1 0 0
-0.01 0.00672846 0.00622245 -1 0 0
-0.01 0.0146977 0.00557663 -1 0 0
-0.01 0.0174772 0.00666142 -1 0 0
-0.01 0.011342 0.00229523 -1 0 0
-0.01 0.0180598 0.00832681 -1 0 0
-0.01 0.0151469 -0.00275115 -1 0 0
-0.01 0.00795542 0.00705742 -1 0 0
-0.01 0.0118116 0.00813873 -1 0 0
-0.01 0.0144668 0.00277732 -1 0 0
-0.01 0.0167979 0.00340946 -1 0 0
-0.01 0.0122606 0.00625703 -1 0 0
-0.01 0.000507542 0.00983104 -1 0 0
-0.01 0.0170446 -0.00370502 -1 0 0
-0.01 0.0147488 0.00946099 -1 0 0
-0.01 0.0148777 0.00707203 -1 0 0
-0.01 0.0171042 -0.000850118 -1 0 0
-0.01 0.015979 0.000518254 -1 0 0
-0.01 0.01652 -0.00239491 -1 0 0
-0.01 0.00366968 0.00918871 -1 0 0
-0.01 0.0163463 0.00772098 -1 0 0
-0.01 0.018509 0.00391199 -1 0 0
-0.01 0.0130055 0.00514358 -1 0 0
-0.01 0.00461031 0.00834631 -1 0 0
-0.01 0.0133139 -0.000401995 -1 0 0
-0.01 0.017747 0.00273344 -1 0 0
-0.01 0.0135721 0.00763212 -1 0 0
-0.01 0.0185413 -0.00623953 -1 0 0
-0.01 0.0192873 -0.00747289 -1 0 0
-0.01 0.00876276 0.00820796 -1 0 0
-0.01 0.0185885 -0.00377301 -1 0 0
-0.01 0.0147066 -0.000245026 -1 0 0
-0.01 0.0192674 -0.000827766 -1 0 0
-0.01 0.0138214 0.00412853 -1 0 0
-0.01 0.0161715 -0.00472675 -1 0 0
-0.01 0.0179047 -0.00735092 -1 0 0
-0.01 0.00902465 0.00591266 -1 0 0
-0.01 0.0128834 0.00154361 -1 0 0
-0.01 0.00513784 0.00720922 -1 0 0
-0.01 0.0196127 -0.00563797 -1 0 0
-0.01 0.0117538 0.00497423 -1 0 0
-0.01 0.0103228 0.00563357 -1 0 0
-0.01 0.00738096 0.00485163 -1 0 0
-0.01 0.0119333 -0.000556871 -1 0 0
-0.01 0.00886316 0.00999844 -1 0 0
-0.01 0.0178264 -0.00203037 -1 0 0
-0.01 0.010048 0.0097338 -1 0 0
-0.01 0.0104683 0.00847598 -1 0 0
-0.01 0.0158972 -0.00111316 -1 0 0
-0.01 0.0190654 0.00243689 -1 0 0
-0.01 0.00086246 -0.0040557 -1 0 0
-0.01 0.00220891 0.00559097 -1 0 0
-0.01 0.0107627 -0.00727383 -1 0 0
-0.01 0.0173539 -0.00851343 -1 0 0
-0.01 0.015728 -0.00766855 -1 0 0
-0.01 0.00304548 -0.00991544 -1 0 0
-0.01 0.00767504 -0.00134678 -1 0 0
-0.01 0.00352353 0.00515226 -1 0 0
-0.01 0.0013585 -0.0084319 -1 0 0
-0.01 0.00987827 -0.00875879 -1 0 0
-0.01 0.00882582 0.00108113 -1 0 0
-0.01 0.00324474 0.00391396 -1 0 0
-0.01 0.0123282 -0.00997917 -1 0 0
-0.01 0.0110774 -0.00955577 -1 0 0
-0.01 0.00520294 -0.000629262 -1 0 0
-0.01 0.00326596 -0.00813527 -1 0 0
-0.01 0.00633809 -0.0090456 -1 0 0
-0.01 0.0160448 -0.00888484 -1 0 0
-0.01 0.00480015 -0.00844922 -1 0 0
-0.01 0.0077063 0.000397878 -1 0 0
-0.01 0.00351668 -0.00267818 -1 0 0
-0.01 0.00664422 -0.00772277 -1 0 0
-0.01 6.79063e-05 -0.00298515 -1 0 0
-0.01 0.00120966 -0.00971232 -1 0 0
-0.01 0.00340822 -0.00541175 -1 0 0
-0.01 0.00750834 -0.00396964 -1 0 0
-0.01 0.00081855 -0.00134739 -1 0 0
-0.01 0.010157 -0.000930495 -1 0 0
-0.01 0.00195755 0.00733986 -1 0 0
-0.01 0.0029964 0.000114609 -1 0 0
-0.01 0.0133606 -0.00902543 -1 0 0
-0.01 0.0113582 -0.00463538 -1 0 0
-0.01 0.0128215 -0.00785055 -1 0 0
-0.01 0.00479891 -0.00523792 -1 0 0
-0.01 0.0145709 -0.00516876 -1 0 0
-0.01 0.00119446 0.00448103 -1 0 0
-0.01 0.00538985 0.00457571 -1 0 0
-0.01 0.00515151 0.00219798 -1 0 0
-0.01 0.0102782 -0.00248647 -1 0 0
-0.01 0.0090932 -0.00782641 -1 0 0
-0.01 0.00595843 -0.00625612 -1 0 0
-0.01 0.0090442 -0.00260015 -1 0 0
-0.01 0.00635574 -0.00195884 -1 0 0
-0.01 0.0156659 -0.00610183 -1 0 0
-0.01 0.0117976 -0.00862459 -1 0 0
-0.01 0.00655661 0.00232261 -1 0 0
-0.01 4.2046e-05 0.00826312 -1 0 0
-0.01 0.00395281 0.00288888 -1 0 0
-0.01 0.00217877 -0.00229275 -1 0 0
-0.01 0.00133069 0.000847739 -1 0 0
-0.01 0.00353036 -0.00679672 -1 0 0
-0.01 0.011359 -0.00317282 -1 0 0
-0.01 0.00274487 -0.00116249 -1 0 0
-0.01 0.00149526 0.00279522 -1 0 0
-0.01 0.00250202 0.00169811 -1 0 0
-0.01 0.00431999 -0.0014949 -1 0 0
-0.01 0.00483011 0.000742627 -1 0 0
-0.01 0.00389898 0.00156588 -1 0 0
-0.01 0.00886988 -0.00019292 -1 0 0
-0.01 0.00635106 0.00109849 -1 0 0
-0.01 0.00463362 -0.00712198 -1 0 0
-0.01 0.000301251 0.00168111 -1 0 0
-0.01 0.0102643 -0.00574258 -1 0 0
-0.01 0.0186515 -0.00871208 -1 0 0
-0.01 0.00766728 -0.00847651 -1 0 0
-0.01 0.0066502 -0.000610912 -1 0 0
-0.01 0.00723606 -0.00633245 -1 0 0
-0.01 0.00366314 -0.00404727 -1 0 0
-0.01 0.019697 -0.00981394 -1 0 0
-0.01 0.0019103 -0.0073869 -1 0 0
-0.01 0.0117601 -0.00599634 -1 0 0
-0.01 0.0100319 -0.00393708 -1 0 0
-0.01 0.00105157 0.00602417 -1 0 0
-0.01 0.00888899 -0.00431122 -1 0 0
-0.01 0.00237568 -0.00371015 -1 0 0
-0.01 0.0111715 -0.00163217 -1 0 0
-0.01 0.00890993 -0.00587864 -1 0 0
-0.01 0.0137881 -0.00603939 -1 0 0
-0.01 0.00801242 -0.00730266 -1 0 0
-0.01 6.32374e-05 0.00298011 -1 0 0
-0.01 0.0128641 -0.0050784 -1 0 0
-0.01 0.00612577 -0.00427452 -1 0 0
-0.01 0.0142386 -0.00781135 -1 0 0
-0.01 0.000866802 -0.00592752 -1 0 0
-0.01 0.00527549 -0.00284572 -1 0 0
-0.00336633 0.0158104 0.01 0 0 1
0.00440282 0.0111612 0.01 0 0 1
0.00471599 0.0154936 0.01 0 0 1
0.000802903 0.00966574 0.01 0 0 1
0.00266704 0.0116809 0.01 0 0 1
0.00642834 0.0101984 0.01 0 0 1
0.00687593 0.0149247 0.01 0 0 1
0.00772043 0.010252 0.01 0 0 1
-0.00558125 0.0183374 0.01 0 0 1
0.00159636 0.0157908 0.01 0 0 1
0.0034644 0.0169481 0.01 0 0 1
0.00471951 0.0142005 0.01 0 0 1
0.00680288 0.0118015 0.01 0 0 1
0.00872047 0.00764925 0.01 0 0 1
-0.00190937 0.0139219 0.01 0 0 1
0.0064578 0.004408 0.01 0 0 1
0.00185131 0.0170636 0.01 0 0 1
0.00217284 0.0133117 0.01 0 0 1
0.00292802 0.0087243 0.01 0 0 1
0.0045587 0.0189615 0.01 0 0 1
0.00948821 0.0154668 0.01 0 0 1
0.000214959 0.0109821 0.01 0 0 1
0.00789819 0.0160247 0.01 0 0 1
0.000397121 0.0164122 0.01 0 0 1
0.00894181 0.0064481 0.01 0 0 1
0.00504661 0.0100436 0.01 0 0 1
0.00945782 0.0029961 0.01 0 0 1
0.0054226 0.0164938 0.01 0 0 1
0.00841431 0.0124273 0.01 0 0 1
0.00506571 0.0088832 0.01 0 0 1
0.00624756 0.0189735 0.01 0 0 1
-0.000353675 0.0197875 0.01 0 0 1
-0.00723754 0.0177889 0.01 0 0 1
0.00554059 0.0180327 0.01 0 0 1
0.00832382 0.00240347 0.01 0 0 1
0.00321126 0.0183193 0.01 0 0 1
-0.000513816 0.0146554 0.01 0 0 1
0.0067234 0.0164781 0.01 0 0 1
0.00333385 0.0141915 0.01 0 0 1
0.00153813 0.014552 0.01 0 0 1
-0.00220465 0.0155154 0.01 0 0 1
0.0066991 0.0086023 0.01 0 0 1
0.00136377 0.0122387 0.01 0 0 1
0.00996218 0.000169919 0.01 0 0 1
0.00900688 0.00503239 0.01 0 0 1
0.00753155 0.00583637 0.01 0 0 1
0.00763923 0.00400553 0.01 0 0 1
0.00315087 0.00742073 0.01 0 0 1
-0.00211714 0.0124119 0.01 0 0 1
0.00592629 0.00614958 0.01 0 0 1
-0.00760455 0.018888 0.01 0 0 1
0.0095348 0.00144614 0.01 0 0 1
-0.00344228 0.0138958 0.01 0 0 1
0.00996489 0.011202 0.01 0 0 1
0.00881476 0.0139312 0.01 0 0 1
0.00808634 0.0187984 0.01 0 0 1
0.00431073 0.00688334 0.01 0 0 1
0.00909224 0.0169247 0.01 0 0 1
0.00484697 0.0123215 0.01 0 0 1
-0.000761278 0.0162524 0.01 0 0 1
0.001717 0.0105069 0.01 0 0 1
-0.00124927 0.0183764 0.01 0 0 1
0.00804926 0.00867472 0.01 0 0 1
0.00589058 0.00758079 0.01 0 0 1
-0.00205018 0.0168471 0.01 0 0 1
-0.00321646 0.0198003 0.01 0 0 1
0.00337713 0.00997978 0.01 0 0 1
0.00622781 0.0132094 0.01 0 0 1
0.00750108 0.00720303 0.01 0 0 1
0.00344677 0.0126759 0.01 0 0 1
7.16558e-05 0.0186185 0.01 0 0 1
0.00154415 0.0182832 0.01 0 0 1
-0.00497841 0.0199285 0.01 0 0 1
0.00931602 0.00907599 0.01 0 0 1
-0.00420508 0.0182114 0.01 0 0 1
-0.00468444 0.0163751 0.01 0 0 1
0.000380259 0.0132477 0.01 0 0 1
0.00221877 0.0195439 0.01 0 0 1
0.00479726 0.00529371 0.01 0 0 1
0.00737736 0.0175975 0.01 0 0 1
0.00849302 0.011137 0.01 0 0 1
-0.00073935 0.0117832 0.01 0 0 1
-0.00278309 0.0180013 0.01 0 0 1
0.0030502 0.0154659 0.01 0 0 1
-0.00292918 0.00378524 0.01 0 0 1
-0.00586356 0.00795191 0.01 0 0 1
-0.00056944 0.00795964 0.01 0 0 1
-0.00574114 0.00294328 0.01 0 0 1
-0.00529947 0.000632282 0.01 0 0 1
-0.00811769 0.0142969 0.01 0 0 1
-0.00180804 0.0109064 0.01 0 0 1
-0.00750126 0.00988752 0.01 0 0 1
-0.00201113 0.00885386 0.01 0 0 1
-0.00422784 9.84543e-05 0.01 0 0 1
0.00834638 0.000517198 0.01 0 0 1
-0.00243301 0.00096903 0.01 0 0 1
-0.00423801 0.00893382 0.01 0 0 1
-6.82585e-05 0.00494275 0.01 0 0 1
-0.00708634 0.0149644 0.01 0 0 1
-0.00664761 0.010745 0.01 0 0 1
0.00324982 0.00598642 0.01 0 0 1
-0.00428039 0.00351608 0.01 0 0 1
-8.76946e-05 0.000722024 0.01 0 0 1
-0.00979476 0.0176199 0.01 0 0 1
-0.00980233 0.00206847 0.01 0 0 1
0.00716117 0.00131343 0.01 0 0 1
-0.00915053 0.013192 0.01 0 0 1
-0.00837946 0.0172876 0.01 0 0 1
0.00184964 0.00156412 0.01 0 0 1
-0.00577026 0.00634549 0.01 0 0 1
0.00550579 0.0018082 0.01 0 0 1
-0.00162067 0.00627294 0.01 0 0 1
-0.00460779 0.00762155 0.01 0 0 1
-0.00409731 0.00208179 0.01 0 0 1
-0.00294978 0.00969153 0.01 0 0 1
-0.000434521 0.00988625 0.01 0 0 1
-0.00664296 0.00130748 0.01 0 0 1
-0.00925714 0.00739981 0.01 0 0 1
-0.00353337 0.0125143 0.01 0 0 1
-0.00562572 0.00480609 0.01 0 0 1
-0.00326964 0.00681088 0.01 0 0 1
-0.000521858 0.00354302 0.01 0 0 1
0.00665269 0.00264768 0.01 0 0 1
-0.00733452 0.00490861 0.01 0 0 1
-0.0091456 0.0186809 0.01 0 0 1
-0.0061422 0.0139012 0.01 0 0 1
-0.0012931 0.00147761 0.01 0 0 1
0.00120959 0.00286009 0.01 0 0 1
0.000815552 0.00575311 0.01 0 0 1
-0.00674925 0.0038253 0.01 0 0 1
-0.0087671 0.00941946 0.01 0 0 1
-0.00265326 0.00548599 0.01 0 0 1
0.00106238 0.00818827 0.01 0 0 1
0.00328526 0.00220778 0.01 0 0 1
-0.00714339 0.00015622 0.01 0 0 1
-0.0078338 0.0158554 0.01 0 0 1
-0.00422734 0.0114862 0.01 0 0 1
-0.00940762 0.00439449 0.01 0 0 1
-0.00415103 0.00500928 0.01 0 0 1
-0.00963098 0.00587561 0.01 0 0 1
-0.00482304 0.013749 0.01 0 0 1
-0.00775482 0.00830674 0.01 0 0 1
0.00118095 0.00698126 0.01 0 0 1
0.00238665 0.00403706 0.01 0 0 1
-0.00541942 0.014941 0.01 0 0 1
-0.00960452 0.016122 0.01 0 0 1
-0.00740191 0.00722445 0.01 0 0 1
-0.00916465 0.00312228 0.01 0 0 1
0.00453701 0.00271382 0.01 0 0 1
-0.00286722 0.00208829 0.01 0 0 1
0.000954632 0.00412633 0.01 0 0 1
-0.00524285 0.0104588 0.01 0 0 1
-0.00193281 0.00318495 0.01 0 0 1
-0.00813928 0.00119407 0.01 0 0 1
-0.00724543 0.0133103 0.01 0 0 1
-0.0062187 0.0158921 0.01 0 0 1
-0.0081068 0.0119985 0.01 0 0 1
-0.00146524 0.00485917 0.01 0 0 1
-0.00833372 0.00614935 0.01 0 0 1
0.00440598 0.000312401 0.01 0 0 1
0.00011959 0.00206573 0.01 0 0 1
-0.00881279 0.0110392 0.01 0 0 1
0.0039341 0.00438872 0.01 0 0 1
-0.00531718 0.0125217 0.01 0 0 1
-0.00735289 0.00275231 0.01 0 0 1
0.00271212 0.02 -0.00410592 0 1 0
0.00103774 0.02 -0.00788632 0 1 0
-0.00856468 0.02 -0.00630821 0 1 0
-0.00454062 0.02 -0.00769683 0 1 0
-0.00373913 0.02 0.0026476 0 1 0
0.00311293 0.02 -0.00879335 0 1 0
-0.00921478 0.02 0.00604089 0 1 0
0.00344838 0.02 -0.00712367 0 1 0
-0.00660061 0.02 0.00393015 0 1 0
-0.00227061 0.02 -0.00538158 0 1 0
-0.0045632 0.02 0.0043129 0 1 0
0.000473981 0.02 -0.00902786 0 1 0
-0.00391536 0.02 -0.0098475 0 1 0
0.0028535 0.02 -0.00580457 0 1 0
5.21121e-05 0.02 -0.00273216 0 1 0
-0.00507921 0.02 -0.00466408 0 1 0
-0.00771897 0.02 -0.00501217 0 1 0
0.00181904 0.02 -0.00916624 0 1 0
-0.00776415 0.02 -0.00767281 0 1 0
-0.00942909 0.02 0.00316455 0 1 0
0.000502715 0.02 -0.00591413 0 1 0
-0.000768769 0.02 -0.00849139 0 1 0
0.00469837 0.02 -0.00733902 0 1 0
-0.0055516 0.02 0.00305318 0 1 0
-0.0082245 0.02 -0.00918102 0 1 0
-0.00672545 0.02 0.00223314 0 1 0
-0.0027596 0.02 -0.00150585 0 1 0
0.00424061 0.02 -0.00442453 0 1 0
-0.00963565 0.02 -0.0018281 0 1 0
-0.00754578 0.02 -0.00216226 0 1 0
-0.000511991 0.02 -0.00990869 0 1 0
-0.0015835 0.02 -0.00105473 0 1 0
-0.00525449 0.02 -0.00869331 0 1 0
-0.00641077 0.02 -0.00526446 0 1 0
-0.00300294 0.02 -0.00750219 0 1 0
-0.00588589 0.02 -0.00709078 0 1 0
0.00147232 0.02 -0.00252304 0 1 0
0.0056368 0.02 -0.00882385 0 1 0
-0.0077749 0.02 0.00588908 0 1 0
-0.00854068 0.02 0.00452275 0 1 0
0.00164517 0.02 -0.00534247 0 1 0
-0.00146108 0.02 0.000268215 0 1 0
-0.00452142 0.02 -0.000108224 0 1 0
-0.00477426 0.02 -0.00608157 0 1 0
-0.0044597 0.02 -0.00155539 0 1 0
-0.00785516 0.02 0.000817899 0 1 0
0.00497633 0.02 -0.00989632 0 1 0
-0.00296282 0.02 -0.00396215 0 1 0
-0.00464855 0.02 0.00195949 0 1 0
0.00440298 0.02 -0.00844386 0 1 0
-0.00679206 0.02 -0.00408614 0 1 0
-0.000202758 0.02 -0.00434703 0 1 0
-0.00778904 0.02 0.00327914 0 1 0
-0.00227877 0.02 -0.00994746 0 1 0
-0.000306978 0.02 -0.00112793 0 1 0
-0.00943252 0.02 -0.00856263 0 1 0
-0.0071695 0.02 -0.00669969 0 1 0
-0.00126941 0.02 -0.00392677 0 1 0
-0.00606851 0.02 0.000731027 0 1 0
0.00453928 0.02 -0.00577825 0 1 0
-0.00382851 0.02 -0.00511092 0 1 0
0.0085099 0.02 -0.00993707 0 1 0
-0.00321558 0.02 -0.000254969 0 1 0
-0.00887978 0.02 -0.000262297 0 1 0
-0.00461647 0.02 -0.00350033 0 1 0
-0.00664959 0.02 -0.00945464 0 1 0
0.00791189 0.02 -0.00862684 0 1 0
0.00659688 0.02 -0.00999508 0 1 0
-0.00543766 0.02 -0.00218056 0 1 0
-0.00977317 0.02 0.0048911 0 1 0
-0.00191564 0.02 -0.00698157 0 1 0
0.00105128 0.02 -0.00371706 0 1 0
-0.000537171 0.02 -0.00688307 0 1 0
-0.000981994 0.02 -0.00542787 0 1 0
-0.00668565 0.02 -0.000497389 0 1 0
0.00232532 0.02 -0.00774426 0 1 0
-0.00972266 0.02 -0.00341955 0 1 0
-0.0098636 0.02 0.000621254 0 1 0
-0.00917977 0.02 -0.00453649 0 1 0
-0.00949389 0.02 0.00173985 0 1 0
-0.00202491 0.02 -0.00865812 0 1 0
-0.00149517 0.02 -0.00249311 0 1 0
-0.00836406 0.02 0.00738711 0 1 0
-0.00993707 0.02 0.00861654 0 1 0
0.00106693 0.02 -0.00100821 0 1 0
0.00360319 0.02 0.00512888 0 1 0
-0.00417134 0.02 0.00865923 0 1 0
0.00787291 0.02 0.00954765 0 1 0
0.00353628 0.02 0.00674784 0 1 0
-0.00563301 0.02 0.00845518 0 1 0
0.00822327 0.02 -0.00112526 0 1 0
0.00979239 0.02 -0.00582924 0 1 0
0.00594173 0.02 -0.00561732 0 1 0
-0.00263253 0.02 0.0088462 0 1 0
0.00429705 0.02 0.00216636 0 1 0
0.00988219 0.02 0.00978715 0 1 0
-0.00548075 0.02 0.00573116 0 1 0
-0.000218211 0.02 0.000307439 0 1 0
0.00252764 0.02 -0.00130661 0 1 0
0.00331289 0.02 0.00992347 0 1 0
0.0086272 0.02 -0.00710343 0 1 0
0.00380667 0.02 -0.00324137 0 1 0
0.00373328 0.02 0.00848047 0 1 0
0.00353163 0.02 0.00326834 0 1 0
0.0016103 0.02 0.00686796 0 1 0
0.0085894 0.02 0.00293879 0 1 0
-0.000299675 0.02 0.00657037 0 1 0
0.00579211 0.02 0.0021437 0 1 0
0.00705948 0.02 0.00204488 0 1 0
0.00754826 0.02 -0.00328787 0 1 0
-0.00661111 0.02 0.00968139 0 1 0
0.00236519 0.02 0.00796318 0 1 0
0.00491536 0.02 0.00788776 0 1 0
0.00197502 0.02 0.00208617 0 1 0
-0.00154231 0.02 0.00155202 0 1 0
0.00226623 0.02 0.00460946 0 1 0
-0.00880037 0.02 0.00999244 0 1 0
0.000671379 0.02 0.00175728 0 1 0
0.00670831 0.02 -0.00660042 0 1 0
-0.00696037 0.02 0.00719418 0 1 0
0.00665849 0.02 -0.000150457 0 1 0
0.00905133 0.02 0.00851081 0 1 0
0.00518587 0.02 -0.00334212 0 1 0
0.00752045 0.02 0.00381535 0 1 0
-0.00110454 0.02 0.00871925 0 1 0
0.00824017 0.02 0.00712385 0 1 0
0.00566504 0.02 0.00364178 0 1 0
-0.00238605 0.02 0.0026675 0 1 0
0.00705807 0.02 0.00756534 0 1 0
0.00484924 0.02 0.00646285 0 1 0
-0.00189569 0.02 0.00428278 0 1 0
-0.00290823 0.02 0.0049472 0 1 0
0.00139102 0.02 0.00338215 0 1 0
0.0018909 0.02 0.000691158 0 1 0
-0.00201258 0.02 0.00593754 0 1 0
0.00407042 0.02 -8.6523e-05 0 1 0
0.0062309 0.02 -0.00252286 0 1 0
-0.00102754 0.02 0.00324689 0 1 0
-0.00778192 0.02 0.00895275 0 1 0
0.00884802 0.02 -0.00430107 0 1 0
-0.00540145 0.02 0.00712758 0 1 0
0.000946404 0.02 0.00514244 0 1 0
0.0085588 0.02 0.00584574 0 1 0
-0.00155995 0.02 0.0098824 0 1 0
0.00973166 0.02 0.00717409 0 1 0
0.00671979 0.02 -0.00441569 0 1 0
0.00617683 0.02 0.00640324 0 1 0
0.00871321 0.02 0.0044523 0 1 0
-0.00262243 0.02 0.00746443 0 1 0
0.00751937 0.02 0.00512368 0 1 0
0.00728239 0.02 -0.00194188 0 1 0
0.000422867 0.02 0.00893752 0 1 0
0.000213356 0.02 0.00411489 0 1 0
0.00932481 0.02 -0.00848139 0 1 0
0.00966911 0.02 -0.000882718 0 1 0
0.00382319 0.02 -0.00176532 0 1 0
0.00722297 0.02 -0.00547001 0 1 0
0.00906418 0.02 -0.0022329 0 1 0
0.00612673 0.02 0.00929661 0 1 0
0.00452455 0.02 0.00944337 0 1 0
0.00578886 0.02 -0.00133432 0 1 0
0.00883603 0.02 0.00114952 0 1 0
0.00847992 0.02 -0.00573652 0 1 0
0.00762542 0.02 0.000762012 0 1 0
0.00988854 0.02 0.00568407 0 1 0
0.00549053 0.02 0.00526093 0 1 0
-0.000533767 0.02 0.00532367 0 1 0
-0.00878241 0 -0.00639485 0 -1 0
-0.00196683 0 0.00523945 0 -1 0
-0.00883843 0 0.0086595 0 -1 0
-0.00602868 0 0.00140573 0 -1 0
-0.00534636 0 -0.002904 0 -1 0
-0.00955829 0 0.000112785 0 -1 0
-0.00664972 0 0.0085301 0 -1 0
-0.00906735 0 0.00526643 0 -1 0
-0.00881613 0 0.00408483 0 -1 0
0.00392154 0 0.00882045 0 -1 0
0.000961305 0 0.00502447 0 -1 0
-0.00275233 0 0.00290213 0 -1 0
-0.00891114 0 -0.0084448 0 -1 0
-0.00280352 0 0.00668653 0 -1 0
-0.00779119 0 -0.00541941 0 -1 0
0.00171687 0 0.00381857 0 -1 0
-0.00100027 0 0.00850775 0 -1 0
-0.00883843 0 -0.00386475 0 -1 0
-0.00475567 0 -0.00446256 0 -1 0
0.00301345 0 0.00601861 0 -1 0
0.00508702 0 0.00802874 0 -1 0
0.00452101 0 0.00468026 0 -1 0
-0.00433434 0 -0.00216215 0 -1 0
-0.00054442 0 0.00587578 0 -1 0
0.000285104 0 0.00904224 0 -1 0
-0.00244694 0 0.0077957 0 -1 0
-0.00642855 0 -0.00244307 0 -1 0
-0.00343048 0 -0.00100753 0 -1 0
-0.00734803 0 -0.00358703 0 -1 0
-0.00753366 0 0.00619179 0 -1 0
-0.00852387 0 0.00265907 0 -1 0
0.0052176 0 0.00606195 0 -1 0
-0.0069869 0 0.00262382 0 -1 0
-0.00661179 0 8.70179e-05 0 -1 0
-0.00728631 0 -0.0014164 0 -1 0
-0.00391292 0 0.00462433 0 -1 0
9.66112e-05 0 0.0032236 0 -1 0
-0.00996338 0 -0.00904824 0 -1 0
-0.00447122 0 0.00327437 0 -1 0
0.00625667 0 0.00697518 0 -1 0
0.00712126 0 0.00986353 0 -1 0
-0.00853231 0 0.00131095 0 -1 0
0.00796423 0 0.00897434 0 -1 0
-0.00797033 0 -0.00258301 0 -1 0
-0.00915367 0 -0.00497603 0 -1 0
-0.00904571 0 -0.00141014 0 -1 0
-0.00516388 0 0.00452346 0 -1 0
-0.00640338 0 -0.00489786 0 -1 0
0.00131223 0 0.00977674 0 -1 0
-0.00550389 0 0.00782223 0 -1 0
-0.00292241 0 0.00030485 0 -1 0
-0.00469752 0 0.0010616 0 -1 0
-0.00725206 0 0.00130885 0 -1 0
-0.000254181 0 0.00723334 0 -1 0
-0.00163074 0 0.00949976 0 -1 0
0.00258628 0 0.00975968 0 -1 0
-0.00165163 0 0.00370181 0 -1 0
-0.00875299 0 0.00994126 0 -1 0
0.00322891 0 0.00397066 0 -1 0
-0.00557011 0 -0.00145547 0 -1 0
-0.00154965 0 0.000641688 0 -1 0
-0.00169784 0 0.00229912 0 -1 0
-0.000418036 0 0.00465457 0 -1 0
-0.00812538 0 -9.81936e-05 0 -1 0
-0.00152145 0 -0.000782112 0 -1 0
-0.00306358 0 -0.00277604 0 -1 0
0.00384246 0 0.00728528 0 -1 0
-0.00612276 0 0.00642565 0 -1 0
-0.00820787 0 0.00756301 0 -1 0
0.0024594 0 0.00492109 0 -1 0
0.00640115 0 0.00820718 0 -1 0
-0.000402674 0 0.00174257 0 -1 0
-0.00427882 0 0.00877377 0 -1 0
-0.00427587 0 0.00708631 0 -1 0
-0.00968538 0 0.00658326 0 -1 0
-0.0015287 0 0.0068612 0 -1 0
-0.00756672 0 0.00409889 0 -1 0
-0.00648405 0 0.00456337 0 -1 0
-0.00459808 0 -0.000389533 0 -1 0
-0.00746522 0 -0.0069506 0 -1 0
0.000864422 0 0.00665745 0 -1 0
-0.00373324 0 0.00223199 0 -1 0
0.00171753 0 0.00823351 0 -1 0
-0.00281479 0 0.00919463 0 -1 0
0.00104775 0 0.00218148 0 -1 0
-0.00981407 0 -0.0076397 0 -1 0
0.00308816 0 2.77431e-05 0 -1 0
0.00257005 0 -0.00786446 0 -1 0
-0.00882606 0 -0.00981107 0 -1 0
0.00637229 0 0.00535634 0 -1 0
0.00737452 0 0.00339169 0 -1 0
0.00630482 0 -0.00226954 0 -1 0
-0.00520282 0 -0.00699012 0 -1 0
-0.000244755 0 -0.00592287 0 -1 0
0.00854906 0 -0.00698287 0 -1 0
0.00769761 0 0.00513798 0 -1 0
0.00159929 0 -0.00395515 0 -1 0
0.00930887 0 -0.00377899 0 -1 0
0.0068248 0 -0.00825741 0 -1 0
0.00115416 0 -0.00239006 0 -1 0
0.00593945 0 0.00102735 0 -1 0
0.00996112 0 -0.00220459 0 -1 0
0.00207683 0 0.00138108 0 -1 0
0.00134678 0 -0.00724666 0 -1 0
0.00123199 0 -0.00858395 0 -1 0
0.00884074 0 0.00325553 0 -1 0
0.00804224 0 -0.00876183 0 -1 0
-0.00108767 0 -0.00799987 0 -1 0
0.00129449 0 -0.00570245 0 -1 0
-0.00207345 0 -0.00474995 0 -1 0
0.00899346 0 -0.00112606 0 -1 0
1.69346e-05 0 -0.00102841 0 -1 0
0.00544149 0 -0.00371288 0 -1 0
0.00922399 0 0.00847949 0 -1 0
0.0063026 0 -0.000907275 0 -1 0
0.00413969 0 -0.00985006 0 -1 0
0.00722431 0 -0.00329497 0 -1 0
0.00797612 0 -0.00463779 0 -1 0
0.00408492 0 0.00316722 0 -1 0
0.00419754 0 -0.00689398 0 -1 0
-0.00117135 0 -0.00225896 0 -1 0
0.00619044 0 0.00249283 0 -1 0
-0.00289574 0 -0.00863442 0 -1 0
6.72759e-05 0 -0.00833419 0 -1 0
-0.00166023 0 -0.00611777 0 -1 0
0.00724911 0 0.000471618 0 -1 0
0.00193554 0 -0.00961573 0 -1 0
-0.00426851 0 -0.00896371 0 -1 0
0.00658535 0 -0.00714023 0 -1 0
0.00396836 0 -0.00100223 0 -1 0
0.00334611 0 -0.00892087 0 -1 0
0.00645303 0 -0.00983388 0 -1 0
0.00835362 0 0.00633567 0 -1 0
0.00556511 0 0.00371185 0 -1 0
0.00895762 0 0.00479139 0 -1 0
0.00666986 0 -0.00433138 0 -1 0
0.000915483 0 0.000413809 0 -1 0
0.00757937 0 -0.00587704 0 -1 0
0.0040414 0 -0.00313489 0 -1 0
0.00468412 0 -0.00218461 0 -1 0
-0.00412426 0 -0.00772672 0 -1 0
0.00263058 0 -0.0014344 0 -1 0
-0.00257128 0 -0.00726044 0 -1 0
0.00827577 0 0.00210466 0 -1 0
-0.00624647 0 -0.00918938 0 -1 0
-0.00324965 0 -0.00588888 0 -1 0
0.0013356 0 -0.000992651 0 -1 0
0.00991899 0 -0.00605171 0 -1 0
0.00756258 0 -0.00143114 0 -1 0
0.00766993 0 0.00744744 0 -1 0
0.00357786 0 -0.00492724 0 -1 0
-0.00622946 0 -0.00781542 0 -1 0
0.00258242 0 -0.00628325 0 -1 0
0.00225752 0 -0.0029446 0 -1 0
-0.00209128 0 -0.00352921 0 -1 0
0.00527234 0 -0.00515284 0 -1 0
-0.00489809 0 -0.00563636 0 -1 0
0.00456319 0 -0.00850949 0 -1 0
-0.00605455 0 -0.00610718 0 -1 0
-0.00160795 0 -0.00942647 0 -1 0
0.00553014 0 -0.00640658 0 -1 0
0.00273497 0 0.00250003 0 -1 0
-0.00332695 0 -0.00414212 0 -1 0
0.00843501 0 -0.00255435 0 -1 0
0.00526759 0 8.76432e-05 0 -1 0
0.00351896 0 0.00138287 0 -1 0
-0.00746611 0 -0.00825291 0 -1 0
0.00857317 0 0.000821334 0 -1 0
-0.000518547 0 -0.00445356 0 -1 0
