ply
format ascii 1.0
comment Created by Open3D
element vertex 1000
property double x
property double y
property double z
property double nx
property double ny
property double nz
end_header
0.01 0.0125263 -0.00849281 1 0 0
0.01 0.0174568 -0.00570605 1 0 0
0.01 0.0152767 0.00153569 1 0 0
0.01 0.00351895 -0.00846991 1 0 0
0.01 0.0157103 -0.00386795 1 0 0
0.01 0.0120194 -0.00680849 1 0 0
0.01 0.0151173 -0.00264592 1 0 0
0.01 0.0171199 0.00471056 1 0 0
0.01 0.0157806 -0.00563811 1 0 0
0.01 0.014231 -0.000899586 1 0 0
0.01 0.0189181 -0.00800128 1 0 0
0.01 0.00894594 -0.00990454 1 0 0
0.01 0.00944273 -0.00643124 1 0 0
0.01 0.0169694 -0.0044518 1 0 0
0.01 0.0143242 -0.0080244 1 0 0
0.01 0.01193 -0.000666123 1 0 0
0.01 0.013742 -0.00392654 1 0 0
0.01 0.0118904 -0.00369338 1 0 0
0.01 0.0109466 -0.00596257 1 0 0
0.01 0.00343228 -0.00982839 1 0 0
0.01 0.00962251 -0.0047511 1 0 0
0.01 0.016252 -0.00137785 1 0 0
0.01 0.0145846 -0.00665865 1 0 0
0.01 0.0192931 0.000356955 1 0 0
0.01 0.019643 0.00702889 1 0 0
0.01 0.0184873 -0.00645792 1 0 0
0.01 0.0192971 -0.00934101 1 0 0
0.01 0.0180006 0.000788356 1 0 0
0.01 0.0127652 0.0025894 1 0 0
0.01 0.010465 -0.00767732 1 0 0
0.01 0.0149599 0.0037608 1 0 0
0.01 0.0167895 -0.00708302 1 0 0
0.01 0.0108655 0.000310421 1 0 0
0.01 0.0197077 0.00383659 1 0 0
0.01 0.0187012 -0.00417899 1 0 0
0.01 0.00210926 -0.0092932 1 0 0
0.01 0.0125366 0.000704723 1 0 0
0.01 0.0175517 -0.00811082 1 0 0
0.01 0.00469506 -0.00575626 1 0 0
0.01 0.0125597 -0.00238154 1 0 0
0.01 0.0109305 -0.00285284 1 0 0
0.01 0.0194823 -0.00191413 1 0 0
0.01 0.0182153 -0.00258035 1 0 0
0.01 0.0157042 0.00504609 1 0 0
0.01 0.00691463 -0.00378038 1 0 0
0.01 0.00575339 -0.004912 1 0 0
0.01 0.00782672 -0.00718101 1 0 0
0.01 0.0160249 -0.0097352 1 0 0
0.01 0.0138654 0.000877502 1 0 0
0.01 0.0169155 0.00198621 1 0 0
0.01 0.00490428 -0.00926287 1 0 0
0.01 0.00845134 -0.00273624 1 0 0
0.01 0.0186588 0.00781763 1 0 0
0.01 0.00542087 -0.00783335 1 0 0
0.01 0.00890418 -0.00825161 1 0 0
0.01 0.0174454 -0.000670363 1 0 0
0.01 0.0096947 -0.00210997 1 0 0
0.01 0.0182315 0.00237048 1 0 0
0.01 0.0185884 0.00524095 1 0 0
0.01 0.0104635 -0.00900729 1 0 0
0.01 0.0135161 -0.00545634 1 0 0
0.01 0.00746165 -0.00898352 1 0 0
0.01 0.0175756 -0.00964119 1 0 0
0.01 0.0162124 0.00365819 1 0 0
0.01 0.0181866 0.00384238 1 0 0
0.01 0.00828004 -0.00438154 1 0 0
0.01 0.0158273 -0.00815064 1 0 0
0.01 0.0067766 -0.00588874 1 0 0
0.01 0.016579 0.000408317 1 0 0
0.01 0.0199531 0.00538185 1 0 0
0.01 0.0134202 0.00645432 1 0 0
0.01 0.00203319 -0.00560339 1 0 0
0.01 0.0113972 0.00671145 1 0 0
0.01 0.00495041 0.00169698 1 0 0
0.01 0.00607991 0.00438334 1 0 0
0.01 0.00722829 0.00332574 1 0 0
0.01 0.000421229 -0.000835311 1 0 0
0.01 0.0182094 0.00935123 1 0 0
0.01 0.0073654 -0.00107975 1 0 0
0.01 0.0106392 0.00999317 1 0 0
0.01 0.00457015 0.00536896 1 0 0
0.01 0.00536564 0.00989909 1 0 0
0.01 0.00135509 0.00915924 1 0 0
0.01 0.0153597 0.00833856 1 0 0
0.01 0.0025414 -0.000946039 1 0 0
0.01 0.00158797 0.00528945 1 0 0
0.01 0.00291214 0.000794036 1 0 0
0.01 0.000200203 0.00223617 1 0 0
0.01 0.00895649 0.00395284 1 0 0
0.01 0.00349496 -0.00342754 1 0 0
0.01 0.016884 0.00857129 1 0 0
0.01 0.00325061 -0.00621828 1 0 0
0.01 0.00407803 0.000113357 1 0 0
0.01 0.00157356 0.00205652 1 0 0
0.01 0.00437072 0.00691881 1 0 0
0.01 0.0102562 0.00840957 1 0 0
0.01 0.00300651 0.00504909 1 0 0
0.01 0.00337115 0.00240267 1 0 0
0.01 0.00550453 -0.00289794 1 0 0
0.01 0.00839164 0.00630559 1 0 0
0.01 0.00205292 -0.00246303 1 0 0
0.01 0.00786801 0.000381376 1 0 0
0.01 0.00755746 0.00887297 1 0 0
0.01 0.00173189 0.00714834 1 0 0
0.01 0.000333508 -0.00918099 1 0 0
0.01 0.010335 0.0058615 1 0 0
0.01 0.00970677 0.00165658 1 0 0
0.01 0.00918888 0.00738029 1 0 0
0.01 0.00539485 -0.000672018 1 0 0
0.01 0.00571604 0.00282335 1 0 0
0.01 0.0125118 0.00762496 1 0 0
0.01 0.00940164 0.000272396 1 0 0
0.01 0.00254237 0.00846657 1 0 0
0.01 0.00346809 0.00952109 1 0 0
0.01 0.00348937 -0.00472228 1 0 0
0.01 0.0141099 0.0077546 1 0 0
0.01 0.00128437 -0.00764999 1 0 0
0.01 0.0135444 0.00375084 1 0 0
0.01 0.0113764 0.0047912 1 0 0
0.01 0.00435132 0.00342519 1 0 0
0.01 0.00885791 0.00897193 1 0 0
0.01 0.00878758 -0.00120025 1 0 0
0.01 0.0066504 0.00779845 1 0 0
0.01 0.00657126 0.00169071 1 0 0
0.01 0.00522171 0.00840405 1 0 0
0.01 0.0119775 0.0092461 1 0 0
0.01 0.011318 0.00208835 1 0 0
0.01 0.00242844 0.00361056 1 0 0
0.01 0.00283241 0.00641668 1 0 0
0.01 0.00406585 -0.00195708 1 0 0
0.01 0.012909 0.00519952 1 0 0
0.01 0.0158986 0.00656721 1 0 0
0.01 0.0105782 0.00315008 1 0 0
0.01 0.00690354 0.0060607 1 0 0
0.01 0.00762055 0.00493954 1 0 0
0.01 0.00148681 0.000737842 1 0 0
0.01 0.0136329 0.00929941 1 0 0
0.01 0.00810999 0.00199792 1 0 0
0.01 0.00680942 -0.00232743 1 0 0
0.00678855 0.0175128 -0.01 0 0 -1
8.51185e-05 0.0139654 -0.01 0 0 -1
-0.00428184 0.0143962 -0.01 0 0 -1
-0.00172398 0.00861861 -0.01 0 0 -1
-0.002026 0.0101983 -0.01 0 0 -1
0.00014863 0.0174048 -0.01 0 0 -1
-0.00169891 0.0133684 -0.01 0 0 -1
-0.00804671 0.0191344 -0.01 0 0 -1
-0.00463232 0.00820638 -0.01 0 0 -1
-0.00576487 0.018766 -0.01 0 0 -1
-0.00548808 0.00496763 -0.01 0 0 -1
-0.00302695 0.0125369 -0.01 0 0 -1
0.00188626 0.0165551 -0.01 0 0 -1
0.00291855 0.0184034 -0.01 0 0 -1
-0.00888347 0.00349204 -0.01 0 0 -1
-0.00973617 0.0165089 -0.01 0 0 -1
-0.00700365 0.00355909 -0.01 0 0 -1
-0.00243117 0.0148892 -0.01 0 0 -1
0.00316263 0.0160956 -0.01 0 0 -1
-0.00756675 0.00923602 -0.01 0 0 -1
-0.00037387 0.0126929 -0.01 0 0 -1
-0.00654586 0.0156653 -0.01 0 0 -1
0.00316649 0.0198389 -0.01 0 0 -1
-0.00338552 0.0107004 -0.01 0 0 -1
-0.00943532 0.0112932 -0.01 0 0 -1
-0.00855263 0.0173563 -0.01 0 0 -1
-0.00417377 0.00685891 -0.01 0 0 -1
-0.00687921 0.0197163 -0.01 0 0 -1
0.00413213 0.0172891 -0.01 0 0 -1
-0.00978888 0.0127489 -0.01 0 0 -1
-0.00474423 0.011992 -0.01 0 0 -1
-0.00577224 0.0106335 -0.01 0 0 -1
-0.00594437 0.0079558 -0.01 0 0 -1
-0.000825466 0.0192215 -0.01 0 0 -1
-0.00818814 0.0142847 -0.01 0 0 -1
0.0084627 0.0197371 -0.01 0 0 -1
-0.00121401 0.0173125 -0.01 0 0 -1
-0.0097188 0.00575844 -0.01 0 0 -1
-0.00696368 0.00637844 -0.01 0 0 -1
-0.00805384 0.00502657 -0.01 0 0 -1
0.00268809 0.0127832 -0.01 0 0 -1
-0.000261829 0.0156503 -0.01 0 0 -1
-0.00923186 0.0087912 -0.01 0 0 -1
-0.00870762 0.0100323 -0.01 0 0 -1
0.000885947 0.0126687 -0.01 0 0 -1
-0.00995731 0.0148333 -0.01 0 0 -1
-0.00368245 0.016063 -0.01 0 0 -1
-0.00555035 0.00664646 -0.01 0 0 -1
-0.00521669 0.0159649 -0.01 0 0 -1
0.00546008 0.0178856 -0.01 0 0 -1
-0.00700065 0.0118981 -0.01 0 0 -1
-0.00238628 0.0186212 -0.01 0 0 -1
0.00117796 0.0153615 -0.01 0 0 -1
-0.00866871 0.0155761 -0.01 0 0 -1
-0.00815103 0.00757708 -0.01 0 0 -1
-0.00924119 0.00184137 -0.01 0 0 -1
-0.00545764 0.0136859 -0.01 0 0 -1
0.00437502 0.0191739 -0.01 0 0 -1
-0.0083278 0.0120015 -0.01 0 0 -1
-0.00677635 0.0143058 -0.01 0 0 -1
-0.00328326 0.00931583 -0.01 0 0 -1
-0.00299693 0.00760837 -0.01 0 0 -1
-0.00701855 0.017264 -0.01 0 0 -1
-0.00249258 0.0171034 -0.01 0 0 -1
0.00568666 0.0197235 -0.01 0 0 -1
-0.00423493 0.0176446 -0.01 0 0 -1
0.00362365 0.0146073 -0.01 0 0 -1
-0.0049777 0.00967417 -0.01 0 0 -1
0.00203868 0.0142771 -0.01 0 0 -1
0.0017283 0.0191746 -0.01 0 0 -1
-0.00965862 0.00738357 -0.01 0 0 -1
-0.00385329 0.0192224 -0.01 0 0 -1
-0.00746061 0.0105278 -0.01 0 0 -1
-0.00178757 0.0116383 -0.01 0 0 -1
0.00957439 0.0113825 -0.01 0 0 -1
0.00513554 0.00199437 -0.01 0 0 -1
-0.00393315 0.00507587 -0.01 0 0 -1
0.00186762 0.0113167 -0.01 0 0 -1
-0.0024996 0.00589056 -0.01 0 0 -1
-0.00494118 0.00170973 -0.01 0 0 -1
0.00670293 0.0121724 -0.01 0 0 -1
0.00173205 0.00501891 -0.01 0 0 -1
-0.00082341 0.00394303 -0.01 0 0 -1
0.00861099 0.0083616 -0.01 0 0 -1
0.00362073 0.00186975 -0.01 0 0 -1
-0.000351685 0.009133 -0.01 0 0 -1
0.000314197 0.00535606 -0.01 0 0 -1
-0.00541551 0.00324782 -0.01 0 0 -1
0.00449102 0.00492861 -0.01 0 0 -1
0.0041936 0.00346361 -0.01 0 0 -1
-0.0032302 0.00215917 -0.01 0 0 -1
0.0067537 0.0146103 -0.01 0 0 -1
0.00579092 0.00429297 -0.01 0 0 -1
0.00598653 0.0135951 -0.01 0 0 -1
0.00831852 0.0139053 -0.01 0 0 -1
0.00178659 0.00806578 -0.01 0 0 -1
0.0043814 0.0131512 -0.01 0 0 -1
0.00619959 0.00567857 -0.01 0 0 -1
-0.00751596 0.00224475 -0.01 0 0 -1
-0.00112247 0.00533392 -0.01 0 0 -1
0.00406285 0.00762575 -0.01 0 0 -1
0.00774104 0.0160619 -0.01 0 0 -1
0.0083893 0.0176709 -0.01 0 0 -1
0.00792451 0.0114451 -0.01 0 0 -1
0.00999782 0.0126789 -0.01 0 0 -1
0.0021326 0.00263644 -0.01 0 0 -1
0.000902147 0.00179264 -0.01 0 0 -1
0.00922016 0.0148781 -0.01 0 0 -1
0.00841003 0.00381719 -0.01 0 0 -1
0.00131047 0.00946466 -0.01 0 0 -1
0.00630292 0.00801317 -0.01 0 0 -1
0.00893602 0.000814336 -0.01 0 0 -1
0.00372063 0.0115406 -0.01 0 0 -1
0.00821101 0.00208357 -0.01 0 0 -1
0.00524451 0.00912653 -0.01 0 0 -1
0.00887353 0.0101704 -0.01 0 0 -1
0.00632162 0.00281162 -0.01 0 0 -1
0.00478235 0.01057 -0.01 0 0 -1
0.0052921 0.0118116 -0.01 0 0 -1
0.00505106 0.00652453 -0.01 0 0 -1
0.0069006 0.00157088 -0.01 0 0 -1
-0.000568428 0.00218227 -0.01 0 0 -1
0.00963799 0.00643516 -0.01 0 0 -1
0.00511335 0.0149161 -0.01 0 0 -1
0.00759349 0.00922225 -0.01 0 0 -1
-0.000527998 0.00684487 -0.01 0 0 -1
-0.0018804 0.00158174 -0.01 0 0 -1
0.0033334 0.00947056 -0.01 0 0 -1
0.00832259 0.0065049 -0.01 0 0 -1
0.00853018 0.00515458 -0.01 0 0 -1
-0.00432728 0.000227642 -0.01 0 0 -1
0.00620934 0.0159472 -0.01 0 0 -1
0.00268877 0.00675222 -0.01 0 0 -1
0.00689262 0.00688824 -0.01 0 0 -1
0.000434691 0.0103594 -0.01 0 0 -1
0.00406055 0.000188807 -0.01 0 0 -1
0.0073222 0.00023099 -0.01 0 0 -1
0.000808634 0.00687573 -0.01 0 0 -1
-0.000519902 0.000428597 -0.01 0 0 -1
0.00190652 0.00104648 -0.01 0 0 -1
-0.00283248 0.00371541 -0.01 0 0 -1
0.000666963 0.00349707 -0.01 0 0 -1
0.00665481 0.0104624 -0.01 0 0 -1
-0.01 0.0142419 0.00850882 -1 0 0
-0.01 0.010516 0.00379503 -1 0 0
-0.01 0.0131858 0.00596266 -1 0 0
-0.01 0.0114403 0.000686728 -1 0 0
-0.01 0.0183645 -0.00795594 -1 0 0
-0.01 0.00906602 0.00813561 -1 0 0
-0.01 0.0064146 0.00511313 -1 0 0
-0.01 0.0197898 0.00298738 -1 0 0
-0.01 0.0175181 -0.000975972 -1 0 0
-0.01 0.0063455 0.00938616 -1 0 0
-0.01 0.0194746 -0.0049537 -1 0 0
-0.01 0.0128583 0.00260164 -1 0 0
-0.01 0.0144457 0.00430006 -1 0 0
-0.01 0.0155485 0.00579175 -1 0 0
-0.01 0.0196317 0.00942924 -1 0 0
-0.01 0.0101526 0.00582711 -1 0 0
-0.01 0.0174987 0.00982782 -1 0 0
-0.01 0.0183686 0.00882263 -1 0 0
-0.01 0.0158181 0.00960402 -1 0 0
-0.01 0.0116994 0.00707107 -1 0 0
-0.01 0.0148118 -0.000427004 -1 0 0
-0.01 0.0104895 0.00883149 -1 0 0
-0.01 0.0152918 -0.00441332 -1 0 0
-0.01 0.0199603 -0.00972337 -1 0 0
-0.01 0.00156334 0.00993654 -1 0 0
-0.01 0.0103079 0.00751824 -1 0 0
-0.01 0.0175568 -0.0063948 -1 0 0
-0.01 0.00402605 0.00862353 -1 0 0
-0.01 0.0177977 0.00355871 -1 0 0
-0.01 0.00474965 0.00735377 -1 0 0
-0.01 0.00823767 0.00276194 -1 0 0
-0.01 0.0187202 -0.00361414 -1 0 0
-0.01 0.0159809 0.00183665 -1 0 0
-0.01 0.0115356 0.00560426 -1 0 0
-0.01 0.00670928 0.00801413 -1 0 0
-0.01 0.0164849 0.00349767 -1 0 0
-0.01 0.0182346 -0.00506593 -1 0 0
-0.01 0.0140363 0.00992679 -1 0 0
-0.01 0.00961248 0.00274217 -1 0 0
-0.01 0.0156273 -0.00158224 -1 0 0
-0.01 0.0084529 0.00962186 -1 0 0
-0.01 0.0190303 -0.00654014 -1 0 0
-0.01 0.0128424 0.000862894 -1 0 0
-0.01 0.00323644 0.0075328 -1 0 0
-0.01 0.0188256 0.000269419 -1 0 0
-0.01 0.00605822 0.00678275 -1 0 0
-0.01 0.0196087 0.00166542 -1 0 0
-0.01 0.0143267 -0.00328582 -1 0 0
-0.01 0.0157159 -0.00289475 -1 0 0
-0.01 0.0167273 -0.00501499 -1 0 0
-0.01 0.0147949 0.000984982 -1 0 0
-0.01 0.0140225 -0.00166752 -1 0 0
-0.01 0.0184017 0.00636265 -1 0 0
-0.01 0.0113807 0.00230589 -1 0 0
-0.01 0.0080621 0.00696545 -1 0 0
-0.01 0.00872159 0.0056675 -1 0 0
-0.01 0.0162315 1.70872e-05 -1 0 0
-0.01 0.0142436 0.00284586 -1 0 0
-0.01 0.0178536 0.0049819 -1 0 0
-0.01 0.017521 0.000943404 -1 0 0
-0.01 0.0112518 -0.00117369 -1 0 0
-0.01 0.00976706 0.000469225 -1 0 0
-0.01 0.0187956 -0.00166269 -1 0 0
-0.01 0.00894432 0.00416164 -1 0 0
-0.01 0.0121468 0.0083885 -1 0 0
-0.01 0.0169963 -0.00335564 -1 0 0
-0.01 0.0173825 0.00737683 -1 0 0
-0.01 0.015301 0.00726798 -1 0 0
-0.01 0.0128264 0.00451928 -1 0 0
-0.01 0.0191743 0.00418539 -1 0 0
-0.01 0.0135405 -0.000248958 -1 0 0
-0.01 0.0136824 0.00716744 -1 0 0
-0.01 0.00156408 -0.00127232 -1 0 0
-0.01 0.013294 -0.00750826 -1 0 0
-0.01 0.0012424 -0.00839088 -1 0 0
-0.01 0.00340869 -0.00416855 -1 0 0
-0.01 0.00282083 -0.00182643 -1 0 0
-0.01 0.0120378 -0.00491089 -1 0 0
-0.01 0.000860128 0.00472443 -1 0 0
-0.01 0.0081944 0.00111359 -1 0 0
-0.01 0.0168161 -0.00798577 -1 0 0
-0.01 0.00684861 0.000422013 -1 0 0
-0.01 0.0077696 -0.0078729 -1 0 0
-0.01 0.000384383 -0.00391583 -1 0 0
-0.01 0.00323981 0.00520236 -1 0 0
-0.01 0.00501074 0.000219423 -1 0 0
-0.01 0.00677897 -0.00886078 -1 0 0
-0.01 0.00244431 0.00211197 -1 0 0
-0.01 0.00926706 -0.00870037 -1 0 0
-0.01 0.00102592 0.00171122 -1 0 0
-0.01 0.00928992 -0.00141361 -1 0 0
-0.01 0.00091644 5.68019e-05 -1 0 0
-0.01 0.0109255 -0.00857873 -1 0 0
-0.01 0.00319546 0.00335045 -1 0 0
-0.01 0.00181934 0.00561206 -1 0 0
-0.01 0.0148696 -0.00712967 -1 0 0
-0.01 0.00752199 -0.00236895 -1 0 0
-0.01 0.0120228 -0.00667607 -1 0 0
-0.01 0.00021777 -0.00960786 -1 0 0
-0.01 0.00650047 0.00198548 -1 0 0
-0.01 0.00406787 -0.00706089 -1 0 0
-0.01 0.00552836 -0.00211518 -1 0 0
-0.01 0.0101263 -0.00260731 -1 0 0
-0.01 0.0160107 -0.00613366 -1 0 0
-0.01 0.00831846 -0.000300169 -1 0 0
-0.01 0.00714876 -0.0056387 -1 0 0
-0.01 0.00404042 -0.00898816 -1 0 0
-0.01 0.0108843 -0.0038361 -1 0 0
-0.01 0.0151724 -0.00849464 -1 0 0
-0.01 0.0047194 0.00371866 -1 0 0
-0.01 0.0177271 -0.00958681 -1 0 0
-0.01 0.00132046 -0.00271748 -1 0 0
-0.01 0.00880462 -0.00300845 -1 0 0
-0.01 0.00970547 -0.00709733 -1 0 0
-0.01 0.00641508 -0.000889701 -1 0 0
-0.01 0.00210316 0.00429091 -1 0 0
-0.01 0.0064647 -0.00352717 -1 0 0
-0.01 0.000115191 -0.00148797 -1 0 0
-0.01 0.00390545 0.000933224 -1 0 0
-0.01 0.00514702 -0.00463162 -1 0 0
-0.01 0.0079504 -0.00434768 -1 0 0
-0.01 0.00389103 -0.00103685 -1 0 0
-0.01 0.00183569 0.00795611 -1 0 0
-0.01 0.013822 -0.00915645 -1 0 0
-0.01 0.0102306 -0.00553563 -1 0 0
-0.01 0.0085177 -0.00666405 -1 0 0
-0.01 0.0137689 -0.00482131 -1 0 0
-0.01 0.000130961 0.00891011 -1 0 0
-0.01 0.00112074 0.00315799 -1 0 0
-0.01 0.000815813 -0.00516303 -1 0 0
-0.01 0.00466715 -0.00333672 -1 0 0
-0.01 0.00582931 -0.0064965 -1 0 0
-0.01 0.00248669 0.000760813 -1 0 0
-0.01 0.00302352 -0.00802786 -1 0 0
-0.01 0.0125105 -0.00295869 -1 0 0
-0.01 0.00431571 0.00218092 -1 0 0
-0.01 0.00667907 0.00332079 -1 0 0
-0.01 0.000621158 -0.00670907 -1 0 0
-0.01 0.00209541 -0.00690633 -1 0 0
-0.01 0.0136634 -0.00621586 -1 0 0
-0.01 0.00301405 -0.00571524 -1 0 0
-0.00113229 0.0128244 0.01 0 0 1
0.00444188 0.0149549 0.01 0 0 1
0.0090408 0.0127735 0.01 0 0 1
0.00368995 0.00752818 0.01 0 0 1
0.0071339 0.0110798 0.01 0 0 1
0.00117555 0.0100274 0.01 0 0 1
0.00209361 0.00824878 0.01 0 0 1
0.000871293 0.0183385 0.01 0 0 1
-0.00323652 0.0150046 0.01 0 0 1
0.00273867 0.0129165 0.01 0 0 1
-0.00451967 0.0190579 0.01 0 0 1
0.00394955 0.0187612 0.01 0 0 1
0.00330738 0.0163308 0.01 0 0 1
0.00904832 0.0080144 0.01 0 0 1
0.00698613 0.00703645 0.01 0 0 1
0.00807645 0.00945193 0.01 0 0 1
0.00970135 0.016087 0.01 0 0 1
0.00544876 0.018958 0.01 0 0 1
0.00555029 0.00732328 0.01 0 0 1
0.00958438 0.0195818 0.01 0 0 1
0.00136278 0.0123745 0.01 0 0 1
-0.00295926 0.0165272 0.01 0 0 1
0.00442328 0.0129532 0.01 0 0 1
-0.0024461 0.0181539 0.01 0 0 1
0.00201356 0.0166881 0.01 0 0 1
0.00804129 0.0154591 0.01 0 0 1
0.000217671 0.0168325 0.01 0 0 1
0.00270866 0.00985324 0.01 0 0 1
-0.000354947 0.0153916 0.01 0 0 1
0.00867988 0.00450726 0.01 0 0 1
0.00456863 0.00622101 0.01 0 0 1
0.00598618 0.00594956 0.01 0 0 1
0.0073579 0.0124772 0.01 0 0 1
0.00558562 0.0112911 0.01 0 0 1
0.00809751 0.0186486 0.01 0 0 1
-0.00578951 0.0183683 0.01 0 0 1
0.00855733 0.00315846 0.01 0 0 1
0.00399062 0.0113924 0.01 0 0 1
0.00488347 0.017093 0.01 0 0 1
-0.00581293 0.0199689 0.01 0 0 1
0.000209301 0.0139813 0.01 0 0 1
0.00477607 0.00875182 0.01 0 0 1
-0.00743589 0.0191218 0.01 0 0 1
-0.00888374 0.019989 0.01 0 0 1
0.00588028 0.0157509 0.01 0 0 1
0.0057958 0.014178 0.01 0 0 1
0.00241069 0.0186268 0.01 0 0 1
0.00759019 0.013967 0.01 0 0 1
0.000370282 0.0111458 0.01 0 0 1
-0.00309947 0.0192783 0.01 0 0 1
0.00680075 0.00492575 0.01 0 0 1
0.00167803 0.0152721 0.01 0 0 1
0.0084195 0.00640525 0.01 0 0 1
0.00172388 0.0138781 0.01 0 0 1
0.00201262 0.011116 0.01 0 0 1
0.00408832 0.0100471 0.01 0 0 1
0.00624198 0.0175182 0.01 0 0 1
-0.00274697 0.0133867 0.01 0 0 1
0.00802863 0.0171464 0.01 0 0 1
-0.00188983 0.0156959 0.01 0 0 1
-0.00111906 0.0174868 0.01 0 0 1
0.00637207 0.00852833 0.01 0 0 1
-0.00585958 0.0165327 0.01 0 0 1
-0.00470877 0.0158085 0.01 0 0 1
-0.00994454 0.00451549 0.01 0 0 1
-9.19662e-05 0.00175159 0.01 0 0 1
-0.00709907 0.0146495 0.01 0 0 1
0.00377675 0.00199803 0.01 0 0 1
-0.00588062 0.0116683 0.01 0 0 1
0.00213081 0.0040438 0.01 0 0 1
-0.00932989 0.0116469 0.01 0 0 1
0.00227678 0.00126901 0.01 0 0 1
-0.00138029 0.011193 0.01 0 0 1
-0.00949664 0.00309435 0.01 0 0 1
-0.00613562 0.000953699 0.01 0 0 1
-0.00856672 0.0131848 0.01 0 0 1
-0.00897395 0.00765199 0.01 0 0 1
-0.00760358 0.00439635 0.01 0 0 1
-0.00332828 0.00060279 0.01 0 0 1
-0.00397917 0.0112607 0.01 0 0 1
-0.00203002 0.00165893 0.01 0 0 1
-0.00372952 0.00961015 0.01 0 0 1
0.0044514 0.0037334 0.01 0 0 1
-0.00860896 0.00896052 0.01 0 0 1
0.000520718 0.00650907 0.01 0 0 1
0.000642444 0.000275749 0.01 0 0 1
-0.00597607 0.0132481 0.01 0 0 1
-0.00461858 0.00860719 0.01 0 0 1
-0.00734833 0.0119044 0.01 0 0 1
-0.00131193 0.00819212 0.01 0 0 1
-0.00731382 0.00807381 0.01 0 0 1
0.000535981 0.00511788 0.01 0 0 1
-0.0010936 0.00446962 0.01 0 0 1
-0.00978185 0.00992698 0.01 0 0 1
-0.00328122 0.002661 0.01 0 0 1
-0.00679647 0.00559103 0.01 0 0 1
0.000725645 0.0034253 0.01 0 0 1
0.00773271 3.18457e-05 0.01 0 0 1
0.00593888 0.00395515 0.01 0 0 1
0.00699415 0.00245796 0.01 0 0 1
-0.000571893 0.00981589 0.01 0 0 1
-0.00246642 0.0100323 0.01 0 0 1
0.00606026 0.00140529 0.01 0 0 1
0.00961268 0.00017607 0.01 0 0 1
0.0018773 0.00536127 0.01 0 0 1
-0.002657 0.00412271 0.01 0 0 1
-0.00245504 0.00719588 0.01 0 0 1
0.00848453 0.00120176 0.01 0 0 1
-0.00267005 0.0114631 0.01 0 0 1
-0.0082589 0.00244959 0.01 0 0 1
-0.00102697 0.00646242 0.01 0 0 1
-0.00401405 0.0068509 0.01 0 0 1
-0.00497032 0.00574237 0.01 0 0 1
-0.00570562 0.0148866 0.01 0 0 1
-0.0081216 0.0106465 0.01 0 0 1
-0.00682849 0.00335403 0.01 0 0 1
0.00024873 0.00864954 0.01 0 0 1
-0.00865555 0.0166754 0.01 0 0 1
-0.00916996 0.000352972 0.01 0 0 1
-0.00773273 0.00659816 0.01 0 0 1
-0.00573183 0.00774327 0.01 0 0 1
-0.00686102 0.00957411 0.01 0 0 1
-0.00347658 0.00557223 0.01 0 0 1
-0.000861172 0.00297379 0.01 0 0 1
0.00550643 0.0025294 0.01 0 0 1
-0.00703313 0.0160331 0.01 0 0 1
-0.00439138 0.0136043 0.01 0 0 1
-0.00505914 0.00182577 0.01 0 0 1
-0.00511043 0.00997384 0.01 0 0 1
-0.00739179 0.00151686 0.01 0 0 1
-0.00880587 0.0186347 0.01 0 0 1
0.00498023 0.000240082 0.01 0 0 1
-0.00486133 0.00383284 0.01 0 0 1
-0.00882655 0.00576226 0.01 0 0 1
-0.004619 0.02 -0.00605484 0 1 0
-0.00840186 0.02 -0.00910228 0 1 0
-0.00699927 0.02 -0.00828757 0 1 0
-0.00195313 0.02 -0.00585899 0 1 0
-0.00222709 0.02 -0.00987285 0 1 0
0.00289853 0.02 -0.00866878 0 1 0
0.00129751 0.02 -0.00867285 0 1 0
-0.00562609 0.02 -0.00781681 0 1 0
-0.00531911 0.02 -0.00937496 0 1 0
0.000260286 0.02 -0.00970688 0 1 0
0.00359768 0.02 -0.00717386 0 1 0
0.00457872 0.02 -0.00891794 0 1 0
0.00705899 0.02 -0.00996212 0 1 0
-0.00147653 0.02 -0.00824934 0 1 0
-0.00294802 0.02 -0.0086516 0 1 0
-0.000521587 0.02 -0.0071965 0 1 0
-0.00309749 0.02 -0.00688626 0 1 0
-0.000525198 0.02 -0.00579274 0 1 0
0.00205131 0.02 -0.00733752 0 1 0
-0.00401606 0.02 -0.00796358 0 1 0
0.00634856 0.02 -0.00831641 0 1 0
-0.00702934 0.02 0.00560473 0 1 0
-0.00804681 0.02 0.00701786 0 1 0
0.00200797 0.02 -0.00552763 0 1 0
0.00340943 0.02 -0.00540112 0 1 0
0.00483575 0.02 -0.00648846 0 1 0
0.00810678 0.02 -0.00844126 0 1 0
0.00614079 0.02 -0.00682023 0 1 0
0.00431187 0.02 -0.00376699 0 1 0
0.00510971 0.02 -0.00508985 0 1 0
0.00321471 0.02 0.00394062 0 1 0
0.00571513 0.02 0.00614856 0 1 0
0.00726106 0.02 0.0075806 0 1 0
0.00342912 0.02 0.00528587 0 1 0
0.00500652 0.02 0.0074143 0 1 0
0.000268967 0.02 0.00501121 0 1 0
-0.000405479 0.02 0.00978866 0 1 0
0.00431369 0.02 0.00992735 0 1 0
0.00115042 0.02 0.00990756 0 1 0
0.00326117 0.02 0.00851707 0 1 0
0.0017703 0.02 0.00610876 0 1 0
0.00807907 0.02 0.00986596 0 1 0
0.000461967 0.02 0.00664818 0 1 0
0.00287391 0.02 0.00688798 0 1 0
0.000140079 0.02 0.00814667 0 1 0
-0.00213756 0.02 0.00891698 0 1 0
0.00152452 0.02 0.00772402 0 1 0
-0.00719951 0.02 0.00899308 0 1 0
0.006834 0.02 0.00961476 0 1 0
-0.00386975 0.02 0.00904404 0 1 0
0.00240112 0.02 0.00975921 0 1 0
-0.00108378 0.02 0.006613 0 1 0
-0.00310321 0.02 0.00682398 0 1 0
0.0061167 0.02 0.00827428 0 1 0
-0.00460829 0.02 0.00724117 0 1 0
-0.00243593 0.02 0.00571348 0 1 0
-0.00665235 0.02 0.00743757 0 1 0
-0.00423815 0.02 0.00571325 0 1 0
-0.00596455 0.02 0.00635184 0 1 0
-0.00550974 0.02 0.00483753 0 1 0
-0.00398763 0.02 0.003894 0 1 0
-0.00864792 0.02 0.00859711 0 1 0
0.00858931 0.02 0.00743392 0 1 0
0.00765636 0.02 0.00623522 0 1 0
0.00466166 0.02 0.00354586 0 1 0
0.00580487 0.02 0.00461886 0 1 0
-0.0049557 0.02 0.00082558 0 1 0
-0.00554325 0.02 0.00205581 0 1 0
-0.00689596 0.02 0.00412292 0 1 0
-0.00729158 0.02 0.002528 0 1 0
-0.00971519 0.02 -0.00239241 0 1 0
-0.00920999 0.02 0.00626263 0 1 0
-0.00574999 0.02 -0.000486743 0 1 0
-0.00865415 0.02 0.00281649 0 1 0
-0.00955088 0.02 -0.00795237 0 1 0
-0.00817138 0.02 -0.000658979 0 1 0
-0.00695414 0.02 -0.00155415 0 1 0
-0.00899881 0.02 0.0041471 0 1 0
-0.00672975 0.02 0.000617591 0 1 0
-0.00942725 0.02 -0.000449679 0 1 0
-0.00894732 0.02 -0.003559 0 1 0
-0.00833064 0.02 -0.00473195 0 1 0
-0.00769054 0.02 -0.00303241 0 1 0
-0.00944006 0.02 0.00752733 0 1 0
-0.00799401 0.02 0.000763176 0 1 0
-0.00849912 0.02 -0.0071224 0 1 0
-0.00625559 0.02 -0.00328782 0 1 0
-0.00714566 0.02 -0.00624796 0 1 0
-0.00615683 0.02 -0.00496499 0 1 0
-0.00437832 0.02 -0.00286485 0 1 0
-0.00356328 0.02 -0.00403689 0 1 0
0.00710519 0.02 -0.00555415 0 1 0
0.00787474 0.02 -0.00692626 0 1 0
0.00626536 0.02 -0.00360358 0 1 0
0.00533984 0.02 -0.00194671 0 1 0
0.00974488 0.02 0.00839677 0 1 0
0.00817804 0.02 0.00287657 0 1 0
0.00663707 0.02 -9.65582e-05 0 1 0
0.00992441 0.02 0.00218089 0 1 0
0.00887543 0.02 0.000887303 0 1 0
0.00933175 0.02 -0.000844688 0 1 0
0.00676345 0.02 -0.00170224 0 1 0
0.00892494 0.02 -0.00255337 0 1 0
0.00995025 0.02 -0.00469821 0 1 0
0.00835688 0.02 0.00475272 0 1 0
0.00948397 0.02 -0.00658697 0 1 0
0.0070526 0.02 0.00163486 0 1 0
0.00792637 0.02 -0.00349177 0 1 0
0.00803143 0.02 -0.000683817 0 1 0
0.00868263 0.02 -0.00480061 0 1 0
0.00620592 0.02 0.00297986 0 1 0
0.00528687 0.02 0.000678029 0 1 0
0.00295485 0 0.00600259 0 -1 0
-0.00295137 0 -0.0058924 0 -1 0
-0.00191959 0 -0.00464811 0 -1 0
-0.00644438 0 -0.00733557 0 -1 0
0.00511217 0 -0.00604898 0 -1 0
0.00449613 0 0.00647086 0 -1 0
0.00356577 0 0.00474133 0 -1 0
0.00878396 0 0.00881889 0 -1 0
0.0025604 0 -0.00508042 0 -1 0
0.000547559 0 -0.00631043 0 -1 0
0.00083042 0 -0.00920981 0 -1 0
-0.00846275 0 -0.00989935 0 -1 0
0.00459982 0 -0.00877895 0 -1 0
0.00301893 0 -0.00633488 0 -1 0
0.00575241 0 -0.0095109 0 -1 0
-0.00363972 0 -0.00878672 0 -1 0
-0.00316323 0 -0.00746505 0 -1 0
-0.00727035 0 -0.00891767 0 -1 0
-0.00609522 0 -0.00984009 0 -1 0
0.00186213 0 -0.00746256 0 -1 0
0.000186489 0 -0.00765687 0 -1 0
0.0024116 0 -0.0091648 0 -1 0
-0.00494648 0 -0.0086707 0 -1 0
0.00341129 0 -0.00812557 0 -1 0
0.00655159 0 -0.00815057 0 -1 0
-0.00160968 0 -0.00821609 0 -1 0
-0.00235989 0 -0.00932358 0 -1 0
-0.00144755 0 -0.00588278 0 -1 0
-0.00497002 0 -0.00725462 0 -1 0
-0.0035898 0 -0.00387636 0 -1 0
-0.00582691 0 -0.00479479 0 -1 0
-0.00550024 0 0.0037106 0 -1 0
-0.0081049 0 0.00772292 0 -1 0
-0.00602357 0 0.00525536 0 -1 0
0.00529075 0 0.00443865 0 -1 0
0.00698146 0 0.00671223 0 -1 0
0.0064684 0 0.00541056 0 -1 0
-0.00696597 0 -0.00570327 0 -1 0
-0.0090379 0 -0.00834161 0 -1 0
-0.0078994 0 -0.00473479 0 -1 0
-0.00650829 0 0.000900399 0 -1 0
-0.00548549 0 -0.000205587 0 -1 0
-0.0099251 0 0.00583352 0 -1 0
-0.00726767 0 -0.000391661 0 -1 0
-0.00878687 0 0.000116787 0 -1 0
-0.00668958 0 -0.00351795 0 -1 0
-0.00966313 0 0.00251743 0 -1 0
-0.00833319 0 0.00613535 0 -1 0
-0.00751268 0 0.00228197 0 -1 0
-0.00875877 0 -0.00607521 0 -1 0
-0.00924823 0 -0.00278727 0 -1 0
-0.00761221 0 -0.00222878 0 -1 0
-0.00960028 0 0.00714417 0 -1 0
-0.0087949 0 0.00150029 0 -1 0
-0.00591515 0 -0.00217298 0 -1 0
-0.00706204 0 0.0037731 0 -1 0
-0.00743515 0 0.00516499 0 -1 0
-0.00590435 0 0.0023813 0 -1 0
-0.00415949 0 0.00383006 0 -1 0
-0.00652948 0 0.00694329 0 -1 0
-0.00261616 0 0.00427797 0 -1 0
-0.00473247 0 0.00626356 0 -1 0
-0.00264259 0 0.0057846 0 -1 0
0.00331875 0 0.0077372 0 -1 0
0.00127385 0 0.00864199 0 -1 0
0.0019708 0 0.00748688 0 -1 0
0.00218583 0 0.00958509 0 -1 0
-0.00205809 0 0.00715387 0 -1 0
-0.00503617 0 0.00980711 0 -1 0
-0.000477997 0 0.0061349 0 -1 0
-0.00479039 0 0.00787321 0 -1 0
-0.00345593 0 0.00815982 0 -1 0
-0.00102867 0 0.00899955 0 -1 0
0.00414131 0 0.00907194 0 -1 0
0.00559391 0 0.0082448 0 -1 0
-0.00739731 0 0.00979632 0 -1 0
-0.00596534 0 0.00838392 0 -1 0
0.000330708 0 0.00758995 0 -1 0
0.00712027 0 0.00857333 0 -1 0
0.00580156 0 0.00248111 0 -1 0
0.00834596 0 0.00711101 0 -1 0
0.00513707 0 0.000970221 0 -1 0
0.00714943 0 0.00215162 0 -1 0
0.00949466 0 -0.00236231 0 -1 0
0.00981693 0 0.00376676 0 -1 0
0.00689165 0 -0.00107232 0 -1 0
0.00983604 0 -0.00610667 0 -1 0
0.00673392 0 0.000309969 0 -1 0
0.00909339 0 -0.00814162 0 -1 0
0.00840107 0 -0.000759553 0 -1 0
0.00807894 0 -0.00395448 0 -1 0
0.00784587 0 0.00507852 0 -1 0
0.0068315 0 0.00360065 0 -1 0
0.00993991 0 0.00746435 0 -1 0
0.00948006 0 0.000646638 0 -1 0
0.00815014 0 -0.00552492 0 -1 0
0.0079908 0 0.00119548 0 -1 0
0.00964296 0 -0.00417625 0 -1 0
0.00749721 0 -0.00249633 0 -1 0
0.00946613 0 0.00539597 0 -1 0
0.00864154 0 0.00262427 0 -1 0
0.00603436 0 -0.00250498 0 -1 0
0.00649474 0 -0.00511145 0 -1 0
0.00572253 0 -0.00389269 0 -1 0
0.00377543 0 -0.00370059 0 -1 0
0.00429173 0 -0.00504812 0 -1 0
0.00625202 0 -0.006802 0 -1 0
0.000279082 0.00763347 -0.00497804 -0.0784588 0 0.996917
0.000173593 0.00892248 -0.00498634 -0.0784588 0 0.996917
0.000216731 0.0168239 -0.00498294 -0.0784588 0 0.996917
0.000776641 0.0139318 -0.00493888 -0.0784588 0 0.996917
0.00055754 0.00496494 -0.00495612 -0.0784588 0 0.996917
0.000559097 0.0104421 -0.004956 -0.0784588 0 0.996917
0.000838711 0.0187885 -0.00492487 -0.233445 0 0.97237
0.00111967 0.0154101 -0.00485742 -0.233445 0 0.97237
0.00102845 0.0124382 -0.00487932 -0.233445 0 0.97237
0.00151679 0.00670074 -0.00476208 -0.233445 0 0.97237
0.00113456 0.000697881 -0.00485384 -0.233445 0 0.97237
0.00131014 0.00232047 -0.00481169 -0.233445 0 0.97237
0.00184217 0.0175032 -0.00463222 -0.382683 0 0.92388
0.0020821 0.0189662 -0.00453284 -0.382683 0 0.92388
0.00205805 0.00976285 -0.0045428 -0.382683 0 0.92388
0.00218692 0.0141206 -0.00448943 -0.382683 0 0.92388
0.00194805 0.00508827 -0.00458837 -0.382683 0 0.92388
0.00192698 0.0037222 -0.0045971 -0.382683 0 0.92388
0.00212399 0.0111926 -0.00451549 -0.382683 0 0.92388
0.00254276 0.0128144 -0.00428785 -0.522499 0 0.85264
0.00268057 0.00778809 -0.00420341 -0.522499 0 0.85264
0.00260483 0.00126665 -0.00424982 -0.522499 0 0.85264
0.00317493 0.0164709 -0.00384352 -0.649448 0 0.760406
0.00294759 0.0199185 -0.00403768 -0.649448 0 0.760406
0.0031337 0.00631019 -0.00387873 -0.649448 0 0.760406
0.00351041 0.00902921 -0.00355699 -0.649448 0 0.760406
0.00365323 0.0105035 -0.00339772 -0.760406 0 0.649448
0.00364075 0.0186225 -0.00341234 -0.760406 0 0.649448
0.00354321 0.00472086 -0.00352655 -0.760406 0 0.649448
0.00371897 0.0121494 -0.00332076 -0.760406 0 0.649448
0.00400083 0.00587653 -0.00299074 -0.760406 0 0.649448
0.00377349 0.00156256 -0.00325692 -0.760406 0 0.649448
0.00363736 0.00293492 -0.00341631 -0.760406 0 0.649448
0.00404778 0.0154031 -0.00293453 -0.85264 0 0.522499
0.00412899 0.0135126 -0.00280201 -0.85264 0 0.522499
0.00427836 0.00727164 -0.00255826 -0.85264 0 0.522499
0.00457152 0.00896301 -0.00198874 -0.92388 0 0.382683
0.00449728 0.0109821 -0.00216795 -0.92388 0 0.382683
0.00467834 0.0144793 -0.00173084 -0.92388 0 0.382683
0.00473746 0.015923 -0.00158812 -0.92388 0 0.382683
0.00474051 0.0185461 -0.00158076 -0.92388 0 0.382683
0.00457633 0.00315071 -0.00197711 -0.92388 0 0.382683
0.00473624 0.0126182 -0.00159107 -0.92388 0 0.382683
0.00446684 8.17497e-05 -0.00224145 -0.92388 0 0.382683
0.00475644 0.00490436 -0.00154025 -0.97237 0 0.233445
0.00490657 0.0171543 -0.000914932 -0.97237 0 0.233445
0.00480704 0.00647732 -0.00132949 -0.97237 0 0.233445
0.00487625 0.00777377 -0.00104121 -0.97237 0 0.233445
0.00492523 0.00217644 -0.000837198 -0.97237 0 0.233445
0.00494355 0.00361723 -0.000717327 -0.996917 0 0.0784588
0.00495253 0.0197661 -0.000603116 -0.996917 0 0.0784588
0.00495149 0.0138736 -0.000616405 -0.996917 0 0.0784588
0.00494375 0.00905984 -0.000714715 -0.996917 0 0.0784588
0.00499178 0.0114157 -0.000104507 -0.996917 0 0.0784588
0.00496443 0.000198846 -0.000451911 -0.996917 0 0.0784588
0.00494572 0.0130037 0.000689714 -0.996917 -0 -0.0784588
0.00495279 0.00299485 0.0005998 -0.996917 -0 -0.0784588
0.00493949 0.00464622 0.000768801 -0.996917 -0 -0.0784588
0.00494351 0.0155067 0.000717728 -0.996917 -0 -0.0784588
0.0049417 0.0061444 0.000740829 -0.996917 -0 -0.0784588
0.00496675 0.00146328 0.00042242 -0.996917 -0 -0.0784588
0.0048464 0.0184169 0.00116556 -0.97237 -0 -0.233445
0.00490924 0.00962947 0.000903799 -0.97237 -0 -0.233445
0.00476048 0.0109863 0.00152345 -0.97237 -0 -0.233445
0.00479563 0.0142016 0.00137702 -0.97237 -0 -0.233445
0.00485146 0.00760349 0.00114448 -0.97237 -0 -0.233445
0.00456844 0.012696 0.00199616 -0.92388 -0 -0.382683
0.00449949 0.0198603 0.00216262 -0.92388 -0 -0.382683
0.00473398 0.0164831 0.00159652 -0.92388 -0 -0.382683
0.00449673 0.00361837 0.0021693 -0.92388 -0 -0.382683
0.00455513 0.00521462 0.00202829 -0.92388 -0 -0.382683
0.00453892 0.00885344 0.00206744 -0.92388 -0 -0.382683
0.00433147 0.0173534 0.00247159 -0.85264 -0 -0.522499
0.00419378 0.0157317 0.00269629 -0.85264 -0 -0.522499
0.00404719 0.0119228 0.0029355 -0.85264 -0 -0.522499
0.0042893 0.00207576 0.0025404 -0.85264 -0 -0.522499
0.00423904 0.00692545 0.00262242 -0.85264 -0 -0.522499
0.00404668 0.0135018 0.00293633 -0.85264 -0 -0.522499
0.00435657 5.85227e-05 0.00243064 -0.85264 -0 -0.522499
0.00384015 0.010649 0.00317888 -0.760406 -0 -0.649448
0.00399167 0.0186703 0.00300147 -0.760406 -0 -0.649448
0.00360654 0.0168075 0.0034524 -0.760406 -0 -0.649448
0.00382649 0.00826475 0.00319487 -0.760406 -0 -0.649448
0.00378463 0.000867745 0.00324387 -0.760406 -0 -0.649448
0.00353905 0.00273288 0.00353142 -0.760406 -0 -0.649448
0.00343683 0.0148528 0.00361983 -0.649448 -0 -0.760406
0.00339827 0.00565617 0.00365277 -0.649448 -0 -0.760406
0.00300421 0.00762669 0.00398932 -0.649448 -0 -0.760406
0.00296001 0.0186322 0.00402707 -0.649448 -0 -0.760406
0.00285137 0.0159873 0.00409874 -0.522499 -0 -0.85264
0.00280799 0.00426633 0.00412532 -0.522499 -0 -0.85264
0.00285922 0.0136264 0.00409393 -0.522499 -0 -0.85264
0.00267371 0.0111334 0.00420761 -0.522499 -0 -0.85264
0.00233064 0.00215895 0.00441784 -0.522499 -0 -0.85264
0.00231492 0.000674418 0.00442748 -0.522499 -0 -0.85264
0.00187148 0.0198057 0.00462008 -0.382683 -0 -0.92388
0.00180044 0.014874 0.00464951 -0.382683 -0 -0.92388
0.00218191 0.0066967 0.0044915 -0.382683 -0 -0.92388
0.0017803 0.0080532 0.00465785 -0.382683 -0 -0.92388
0.00184472 0.00952147 0.00463117 -0.382683 -0 -0.92388
0.00163909 0.0167562 0.00471634 -0.382683 -0 -0.92388
0.00110993 0.0187648 0.00485975 -0.233445 -0 -0.97237
0.00135602 0.0129364 0.00480067 -0.233445 -0 -0.97237
0.00125825 0.00584336 0.00482414 -0.233445 -0 -0.97237
0.00105264 0.00443193 0.00487351 -0.233445 -0 -0.97237
0.00111008 0.00277747 0.00485972 -0.233445 -0 -0.97237
0.00074664 0.0105596 0.00494124 -0.0784588 -0 -0.996917
0.000540239 0.0155178 0.00495748 -0.0784588 -0 -0.996917
0.000134 0.0168782 0.00498945 -0.0784588 -0 -0.996917
0.000579483 0.00906372 0.00495439 -0.0784588 -0 -0.996917
0.000450104 0.00023553 0.00496458 -0.0784588 -0 -0.996917
-0.00036691 0.0142592 0.00497112 0.0784588 0 -0.996917
-0.000199352 0.00773189 0.00498431 0.0784588 0 -0.996917
-5.28763e-05 0.00378871 0.00499584 0.0784588 0 -0.996917
-0.000238256 0.00185154 0.00498125 0.0784588 0 -0.996917
-0.000250804 0.0050705 0.00498026 0.0784588 0 -0.996917
-0.000771769 0.0123172 0.00493926 0.0784588 0 -0.996917
-0.00084625 0.00649667 0.00492306 0.233445 0 -0.97237
-0.00119068 0.0195802 0.00484037 0.233445 0 -0.97237
-0.00100884 0.0109951 0.00488402 0.233445 0 -0.97237
-0.0011389 0.0163639 0.0048528 0.233445 0 -0.97237
-0.00125825 0.0178739 0.00482415 0.233445 0 -0.97237
-0.00120791 0.000624348 0.00483623 0.233445 0 -0.97237
-0.00147431 0.00819904 0.00477228 0.233445 0 -0.97237
-0.00153567 0.00329571 0.00475754 0.233445 0 -0.97237
-0.00202674 0.01366 0.00455578 0.382683 0 -0.92388
-0.00161788 0.00960336 0.00472513 0.382683 0 -0.92388
-0.00197584 0.00481276 0.00457686 0.382683 0 -0.92388
-0.00212219 0.00641748 0.00451624 0.382683 0 -0.92388
-0.00239209 0.0117596 0.00438019 0.522499 0 -0.85264
-0.00275859 0.0172402 0.0041556 0.522499 0 -0.85264
-0.00273581 0.00879832 0.00416955 0.522499 0 -0.85264
-0.00234103 0.00176505 0.00441148 0.522499 0 -0.85264
-0.00318999 0.00999308 0.00383066 0.649448 0 -0.760406
-0.0031924 0.0147128 0.0038286 0.649448 0 -0.760406
-0.00316109 0.0186184 0.00385534 0.649448 0 -0.760406
-0.0034468 0.00608342 0.00361132 0.649448 0 -0.760406
-0.00343095 0.00772875 0.00362486 0.649448 0 -0.760406
-0.00329813 0.00277957 0.00373829 0.649448 0 -0.760406
-0.00359097 0.0116058 0.00347063 0.760406 0 -0.649448
-0.00355923 0.013012 0.00350778 0.760406 0 -0.649448
-0.00387468 0.015671 0.00313845 0.760406 0 -0.649448
-0.0036777 0.00405585 0.00336907 0.760406 0 -0.649448
-0.00408724 0.0182584 0.00287014 0.85264 0 -0.522499
-0.00413889 0.00923596 0.00278584 0.85264 0 -0.522499
-0.00425462 0.0195852 0.00259699 0.85264 0 -0.522499
-0.00418198 0.00122007 0.00271553 0.85264 0 -0.522499
-0.00424035 0.00505505 0.00262029 0.85264 0 -0.522499
-0.00427065 0.00287592 0.00257084 0.85264 0 -0.522499
-0.00428428 0.0107639 0.00254859 0.85264 0 -0.522499
-0.00431915 0.00676077 0.00249169 0.85264 0 -0.522499
-0.00450946 0.014732 0.00213855 0.92388 0 -0.382683
-0.00469055 0.0166642 0.00170135 0.92388 0 -0.382683
-0.00450108 0.0121761 0.0021588 0.92388 0 -0.382683
-0.00474172 0.00788581 0.00157782 0.92388 0 -0.382683
-0.00467291 4.8283e-05 0.00174394 0.92388 0 -0.382683
-0.00477656 0.0180905 0.00145645 0.97237 0 -0.233445
-0.00477651 0.0101959 0.00145665 0.97237 0 -0.233445
-0.00481003 0.00613753 0.00131705 0.97237 0 -0.233445
-0.00483488 0.00151987 0.00121353 0.97237 0 -0.233445
-0.00491081 0.00293929 0.00089725 0.97237 0 -0.233445
-0.00496798 0.0145286 0.000406831 0.996917 0 -0.0784588
-0.00495526 0.00910042 0.000568531 0.996917 0 -0.0784588
-0.00498607 0.0173813 0.000177024 0.996917 0 -0.0784588
-0.00495685 0.0127823 0.000548295 0.996917 0 -0.0784588
-0.00494076 0.00469325 0.000752708 0.996917 0 -0.0784588
-0.00498102 0.0159874 0.000241183 0.996917 0 -0.0784588
-0.0049851 0.00680686 0.000189355 0.996917 0 -0.0784588
-0.00497902 0.0103945 -0.000266513 0.996917 0 0.0784588
-0.00494708 0.0188299 -0.000672362 0.996917 0 0.0784588
-0.00495042 0.00311445 -0.00062993 0.996917 0 0.0784588
-0.00496931 0.00814575 -0.000389979 0.996917 0 0.0784588
-0.00496317 0.0119342 -0.000468013 0.996917 0 0.0784588
-0.00497474 0.00179866 -0.000320982 0.996917 0 0.0784588
-0.00490527 0.00454004 -0.000920341 0.97237 0 0.233445
-0.00488399 0.0168543 -0.00100897 0.97237 0 0.233445
-0.00478517 0.000875338 -0.00142058 0.97237 0 0.233445
-0.00480321 0.0143145 -0.00134543 0.97237 0 0.233445
-0.00482942 0.00668777 -0.00123626 0.97237 0 0.233445
-0.00466415 0.00920403 -0.00176509 0.92388 0 0.382683
-0.00475243 0.0127226 -0.00155197 0.92388 0 0.382683
-0.0046809 0.0112267 -0.00172466 0.92388 0 0.382683
-0.00463136 0.0180816 -0.00184426 0.92388 0 0.382683
-0.00464029 0.00282622 -0.0018227 0.92388 0 0.382683
-0.0046318 0.00550845 -0.0018432 0.92388 0 0.382683
-0.00418809 0.0143647 -0.00270556 0.85264 0 0.522499
-0.00429446 0.0168396 -0.00253199 0.85264 0 0.522499
-0.00422469 0.00679832 -0.00264584 0.85264 0 0.522499
-0.00425457 0.00402884 -0.00259708 0.85264 0 0.522499
-0.00416508 0.00848508 -0.0027431 0.85264 0 0.522499
-0.00417379 0.000182072 -0.0027289 0.85264 0 0.522499
-0.00403183 0.0107539 -0.00295445 0.760406 0 0.649448
-0.00402781 0.0016934 -0.00295916 0.760406 0 0.649448
-0.00376205 0.00542529 -0.00327032 0.760406 0 0.649448
-0.00362275 0.0153177 -0.00343342 0.760406 0 0.649448
-0.0036655 0.0121882 -0.00338336 0.760406 0 0.649448
-0.00333839 0.00926931 -0.00370391 0.649448 0 0.760406
-0.00317223 0.0178156 -0.00384583 0.649448 0 0.760406
-0.0033237 0.0070459 -0.00371646 0.649448 0 0.760406
-0.00336567 0.00304097 -0.00368061 0.649448 0 0.760406
-0.0029616 0.0163832 -0.00402572 0.649448 0 0.760406
-0.0030675 0.0106327 -0.00393527 0.649448 0 0.760406
-0.00276567 0.00547847 -0.00415126 0.522499 0 0.85264
-0.00272345 0.0130852 -0.00417713 0.522499 0 0.85264
-0.00231036 0.00794819 -0.00443027 0.522499 0 0.85264
-0.00227079 0.0194517 -0.00445452 0.522499 0 0.85264
-0.00223671 0.00930636 -0.0044688 0.382683 0 0.92388
-0.00192426 0.0112677 -0.00459822 0.382683 0 0.92388
-0.00211204 0.0151896 -0.00452044 0.382683 0 0.92388
-0.00186707 0.0180786 -0.00462191 0.382683 0 0.92388
-0.00203438 0.0032972 -0.00455261 0.382683 0 0.92388
-0.00201194 0.00672253 -0.00456191 0.382683 0 0.92388
-0.00169048 0.00191921 -0.00469506 0.382683 0 0.92388
-0.0014867 0.0049306 -0.0047693 0.233445 0 0.97237
-0.00150577 0.0126066 -0.00476472 0.233445 0 0.97237
-0.000866557 0.0187862 -0.00491818 0.233445 0 0.97237
-0.001104 0.0139532 -0.00486118 0.233445 0 0.97237
-0.000866297 0.00999014 -0.00491825 0.233445 0 0.97237
-0.000817598 0.00368973 -0.00492994 0.233445 0 0.97237
-0.00053369 0.0116358 -0.004958 0.0784588 0 0.996917
-0.00053817 0.0154042 -0.00495765 0.0784588 0 0.996917
-0.000509973 0.00644658 -0.00495986 0.0784588 0 0.996917
-0.00032964 0.00185498 -0.00497406 0.0784588 0 0.996917
-0.000335215 0.000191892 -0.00497362 0.0784588 0 0.996917
