ply
format ascii 1.0
comment Created by Open3D
element vertex 1000
property double x
property double y
property double z
property double nx
property double ny
property double nz
end_header
0.000491729 0.00705482 -0.00997239 0.0560699 0 -0.998427
0.00108155 0.0134423 -0.00993926 0.0560699 0 -0.998427
0.000906747 6.17686e-05 -0.00994908 0.0560699 0 -0.998427
0.000465003 0.00217403 -0.00997389 0.0560699 0 -0.998427
0.000855406 0.0147419 -0.00995196 0.0560699 0 -0.998427
0.00100021 0.0159196 -0.00994383 0.0560699 0 -0.998427
0.0013493 0.00438442 -0.0098981 0.167506 0 -0.985871
0.00133392 0.00910043 -0.00990071 0.167506 0 -0.985871
0.00147335 0.0104797 -0.00987703 0.167506 0 -0.985871
0.00113135 0.0171295 -0.00993513 0.167506 0 -0.985871
0.00155187 0.00774158 -0.00986368 0.167506 0 -0.985871
0.00166393 0.00292045 -0.00984464 0.167506 0 -0.985871
0.00219657 0.000928263 -0.00975415 0.167506 0 -0.985871
0.0016275 0.00572971 -0.00985084 0.167506 0 -0.985871
0.00187904 0.0124006 -0.0098081 0.167506 0 -0.985871
0.00219326 0.0190197 -0.00975471 0.167506 0 -0.985871
0.00265787 0.0138594 -0.00962463 0.276836 0 -0.960917
0.00246892 0.0171441 -0.00967907 0.276836 0 -0.960917
0.00246262 0.00994466 -0.00968088 0.276836 0 -0.960917
0.00244314 0.0154141 -0.0096865 0.276836 0 -0.960917
0.00247072 0.00869822 -0.00967855 0.276836 0 -0.960917
0.00323635 0.0195524 -0.00945798 0.276836 0 -0.960917
0.00275885 4.38081e-06 -0.00959554 0.276836 0 -0.960917
0.00245158 0.00409444 -0.00968406 0.276836 0 -0.960917
0.00324664 0.00586834 -0.00945501 0.276836 0 -0.960917
0.00316105 0.0111234 -0.00947967 0.276836 0 -0.960917
0.00284037 0.00234134 -0.00957205 0.276836 0 -0.960917
0.00285497 0.0076049 -0.00956785 0.276836 0 -0.960917
0.00341509 0.0162773 -0.00939232 0.382683 0 -0.92388
0.0033953 0.0178936 -0.00940052 0.382683 0 -0.92388
0.00352092 0.0147159 -0.00934848 0.382683 0 -0.92388
0.00416444 0.0188278 -0.00908193 0.382683 0 -0.92388
0.00347035 0.0129228 -0.00936943 0.382683 0 -0.92388
0.00345365 0.0048273 -0.00937635 0.382683 0 -0.92388
0.00363393 0.00865811 -0.00930167 0.382683 0 -0.92388
0.00383308 0.0100616 -0.00921918 0.382683 0 -0.92388
0.00374822 0.00685394 -0.00925433 0.382683 0 -0.92388
0.00378153 0.00080889 -0.00924053 0.382683 0 -0.92388
0.00422528 0.0118951 -0.00905673 0.382683 0 -0.92388
0.00371212 0.00323561 -0.00926928 0.382683 0 -0.92388
0.00448958 0.00606314 -0.00892638 0.483719 0 -0.875223
0.00510805 0.0169382 -0.00858456 0.483719 0 -0.875223
0.00451457 0.00408206 -0.00891256 0.483719 0 -0.875223
0.00477965 0.0157236 -0.00876606 0.483719 0 -0.875223
0.00459901 0.00905085 -0.0088659 0.483719 0 -0.875223
0.00434435 0.00201906 -0.00900664 0.483719 0 -0.875223
0.00446534 0.0137054 -0.00893977 0.483719 0 -0.875223
0.00529819 0.00985793 -0.00847947 0.483719 0 -0.875223
0.00497289 0.0051591 -0.00865926 0.483719 0 -0.875223
0.00498325 0.00717174 -0.00865353 0.483719 0 -0.875223
0.00529204 0.0187973 -0.00848287 0.483719 0 -0.875223
0.00477305 0.000291778 -0.00876971 0.483719 0 -0.875223
0.0053462 0.0128917 -0.00844888 0.578671 0 -0.815561
0.00539507 0.0141593 -0.0084142 0.578671 0 -0.815561
0.00534341 0.0117521 -0.00845086 0.578671 0 -0.815561
0.00618031 0.0188859 -0.00785705 0.578671 0 -0.815561
0.00578647 0.0160026 -0.00813649 0.578671 0 -0.815561
0.00604053 0.00910058 -0.00795622 0.578671 0 -0.815561
0.0055665 0.00408048 -0.00829257 0.578671 0 -0.815561
0.00600246 0.0105092 -0.00798324 0.578671 0 -0.815561
0.00612487 0.0173687 -0.00789638 0.578671 0 -0.815561
0.00615587 0.00506247 -0.00787439 0.578671 0 -0.815561
0.00554064 0.00120302 -0.00831092 0.578671 0 -0.815561
0.00599054 0.00696551 -0.00799169 0.578671 0 -0.815561
0.005641 0.00263791 -0.00823971 0.578671 0 -0.815561
0.00647249 0.0124059 -0.00760599 0.666347 0 -0.745642
0.00653207 0.0134879 -0.00755275 0.666347 0 -0.745642
0.00680201 0.0152199 -0.00731151 0.666347 0 -0.745642
0.00662375 0.00323688 -0.00747082 0.666347 0 -0.745642
0.00653791 3.9488e-05 -0.00754753 0.666347 0 -0.745642
0.00657169 0.00173576 -0.00751734 0.666347 0 -0.745642
0.00699458 0.0103202 -0.00713942 0.666347 0 -0.745642
0.00697656 0.0166933 -0.00715553 0.666347 0 -0.745642
0.00693841 0.00700557 -0.00718962 0.666347 0 -0.745642
0.0070011 0.00823436 -0.0071336 0.666347 0 -0.745642
0.00721899 0.0197416 -0.00690554 0.745642 0 -0.666347
0.00741561 0.0185521 -0.00668553 0.745642 0 -0.666347
0.00761752 0.0157531 -0.00645959 0.745642 0 -0.666347
0.00732191 0.0139534 -0.00679037 0.745642 0 -0.666347
0.00743029 0.00938119 -0.0066691 0.745642 0 -0.666347
0.00737801 0.00232582 -0.0067276 0.745642 0 -0.666347
0.00758276 0.00570109 -0.00649848 0.745642 0 -0.666347
0.00751114 0.011562 -0.00657863 0.745642 0 -0.666347
0.00735524 0.00108639 -0.00675308 0.745642 0 -0.666347
0.00764323 0.00772325 -0.00643082 0.745642 0 -0.666347
0.00787475 0.0105891 -0.00615536 0.815561 0 -0.578671
0.00804382 0.0148077 -0.00591708 0.815561 0 -0.578671
0.00788774 0.00457876 -0.00613705 0.815561 0 -0.578671
0.00827999 0.0186983 -0.00558422 0.815561 0 -0.578671
0.00797282 0.0196788 -0.00601715 0.815561 0 -0.578671
0.00805695 0.016616 -0.00589858 0.815561 0 -0.578671
0.00785221 0.0126504 -0.00618712 0.815561 0 -0.578671
0.0080868 0.00325338 -0.0058565 0.815561 0 -0.578671
0.0080476 0.00659207 -0.00591175 0.815561 0 -0.578671
0.00818744 0.00897487 -0.00571467 0.815561 0 -0.578671
0.00836009 0.0136806 -0.00547134 0.815561 0 -0.578671
0.00826236 0.00171154 -0.00560907 0.815561 0 -0.578671
0.00789141 0.000166672 -0.00613187 0.815561 0 -0.578671
0.00835677 0.0115274 -0.00547602 0.815561 0 -0.578671
0.00849257 0.0125931 -0.00527449 0.875223 0 -0.483719
0.0089549 0.0192141 -0.00443798 0.875223 0 -0.483719
0.00867756 0.0163461 -0.00493979 0.875223 0 -0.483719
0.00848716 0.0076112 -0.00528428 0.875223 0 -0.483719
0.00872241 0.0150191 -0.00485863 0.875223 0 -0.483719
0.00879418 0.0179989 -0.00472877 0.875223 0 -0.483719
0.00891675 0.00111068 -0.00450699 0.875223 0 -0.483719
0.00871023 0.00518793 -0.00488066 0.875223 0 -0.483719
0.00862657 0.00371101 -0.00503204 0.875223 0 -0.483719
0.00898086 0.0132362 -0.004391 0.875223 0 -0.483719
0.00897721 0.00959449 -0.00439761 0.875223 0 -0.483719
0.0092106 0.0143828 -0.00385378 0.92388 0 -0.382683
0.00930406 0.0172514 -0.00362815 0.92388 0 -0.382683
0.00906976 0.00744453 -0.00419382 0.92388 0 -0.382683
0.00922952 0.0104784 -0.00380813 0.92388 0 -0.382683
0.00928396 0.0183183 -0.00367668 0.92388 0 -0.382683
0.00937316 0.00609766 -0.00346135 0.92388 0 -0.382683
0.00931002 0.00461039 -0.00361376 0.92388 0 -0.382683
0.00927823 0.00200549 -0.00369052 0.92388 0 -0.382683
0.00932314 0.00862407 -0.0035821 0.92388 0 -0.382683
0.00948034 0.0126351 -0.00315872 0.960917 0 -0.276836
0.00969685 0.0175571 -0.00240718 0.960917 0 -0.276836
0.0095509 0.0098502 -0.00291378 0.960917 0 -0.276836
0.00962563 0.0186313 -0.0026544 0.960917 0 -0.276836
0.00953024 0.0160624 -0.00298553 0.960917 0 -0.276836
0.00958152 0.0138297 -0.00280753 0.960917 0 -0.276836
0.00944775 0.00311959 -0.00327185 0.960917 0 -0.276836
0.00956402 0.00129753 -0.00286825 0.960917 0 -0.276836
0.00957544 0.00730121 -0.00282863 0.960917 0 -0.276836
0.00962915 0.00499634 -0.00264219 0.960917 0 -0.276836
0.00976684 0.0198341 -0.00212187 0.985871 0 -0.167506
0.00976992 0.00628481 -0.00210373 0.985871 0 -0.167506
0.00990157 0.0176309 -0.0013289 0.985871 0 -0.167506
0.00986402 0.0131013 -0.0015499 0.985871 0 -0.167506
0.0097815 0.0113185 -0.0020356 0.985871 0 -0.167506
0.00986791 0.0143599 -0.001527 0.985871 0 -0.167506
0.00981221 0.00938859 -0.00185484 0.985871 0 -0.167506
0.00975946 0.00404021 -0.0021653 0.985871 0 -0.167506
0.00991017 0.0189787 -0.0012783 0.985871 0 -0.167506
0.00982456 0.0163253 -0.00178214 0.985871 0 -0.167506
0.00990561 0.00843382 -0.00130511 0.985871 0 -0.167506
0.00987766 0.00712115 -0.00146963 0.985871 0 -0.167506
0.00983091 0.000975902 -0.00174479 0.985871 0 -0.167506
0.00994017 0.00394072 -0.00106536 0.998427 0 -0.0560699
0.00993839 0.00289077 -0.00109707 0.998427 0 -0.0560699
0.00997369 0.0167171 -0.000468535 0.998427 0 -0.0560699
0.00996172 0.00970147 -0.000681661 0.998427 0 -0.0560699
0.00997312 0.0155262 -0.000478636 0.998427 0 -0.0560699
0.00996672 0.0114224 -0.000592659 0.998427 0 -0.0560699
0.00998117 0.0142712 -0.000335244 0.998427 0 -0.0560699
0.00999699 0.00505498 -5.35795e-05 0.998427 0 -0.0560699
0.00999764 0.00772208 -4.20596e-05 0.998427 0 -0.0560699
0.00997184 0.00147826 -0.000501517 0.998427 0 -0.0560699
0.00999634 0.0184047 -6.51459e-05 0.998427 0 -0.0560699
0.00997216 0.0063445 -0.000495771 0.998427 0 -0.0560699
0.00999839 0.0130245 -2.87153e-05 0.998427 0 -0.0560699
0.00995907 0.0154229 0.000728782 0.998427 0 0.0560699
0.00996621 0.0173218 0.000601766 0.998427 0 0.0560699
0.00995115 0.0191562 0.000869885 0.998427 0 0.0560699
0.00998473 0.0104019 0.000271872 0.998427 0 0.0560699
0.00999131 0.00374033 0.000154718 0.998427 0 0.0560699
0.00996353 0.0116633 0.000649424 0.998427 0 0.0560699
0.00995758 0.00204023 0.000755439 0.998427 0 0.0560699
0.00995825 0.0063619 0.000743379 0.998427 0 0.0560699
0.00995056 0.00849086 0.000880439 0.998427 0 0.0560699
0.00997169 0.000860226 0.000504177 0.998427 0 0.0560699
0.00994269 0.00954142 0.00102042 0.998427 0 0.0560699
0.00994978 0.0140692 0.000894315 0.998427 0 0.0560699
0.00987501 0.0164873 0.0014852 0.985871 0 0.167506
0.00983307 0.0177396 0.00173205 0.985871 0 0.167506
0.00992126 0.00494892 0.00121299 0.985871 0 0.167506
0.00976096 0.0189771 0.00215643 0.985871 0 0.167506
0.0099201 0.00351353 0.00121983 0.985871 0 0.167506
0.0099252 0.0126225 0.00118981 0.985871 0 0.167506
0.00983149 0.00151725 0.00174138 0.985871 0 0.167506
0.00981831 0.00607838 0.00181894 0.985871 0 0.167506
0.00980099 0.0115096 0.00192089 0.985871 0 0.167506
0.00975255 0.0152461 0.00220597 0.985871 0 0.167506
0.009785 0.00895261 0.002015 0.985871 0 0.167506
0.00976408 0.0139741 0.00213808 0.985871 0 0.167506
0.00981749 0.00785659 0.00182376 0.985871 0 0.167506
0.00979744 0.0102147 0.00194177 0.985871 0 0.167506
0.0096996 0.00400494 0.00239766 0.960917 0 0.276836
0.00969234 0.0126342 0.00242287 0.960917 0 0.276836
0.00959613 0.0167885 0.0027568 0.960917 0 0.276836
0.0094629 0.0106271 0.00321925 0.960917 0 0.276836
0.00946101 0.00192878 0.00322583 0.960917 0 0.276836
0.00944457 0.0192993 0.00328289 0.960917 0 0.276836
0.00953321 0.00674206 0.00297521 0.960917 0 0.276836
0.00956684 0.00305053 0.00285848 0.960917 0 0.276836
0.00954247 0.000688067 0.00294305 0.960917 0 0.276836
0.00930616 0.00773911 0.00362308 0.92388 0 0.382683
0.00939919 0.00932542 0.0033985 0.92388 0 0.382683
0.00932913 0.0178283 0.00356763 0.92388 0 0.382683
0.00943142 0.0144497 0.00332068 0.92388 0 0.382683
0.00920337 0.0156915 0.00387124 0.92388 0 0.382683
0.00941823 0.013082 0.00335252 0.92388 0 0.382683
0.00929928 0.0117199 0.00363969 0.92388 0 0.382683
0.00916767 0.00112947 0.00395743 0.92388 0 0.382683
0.0090632 0.00290006 0.00420965 0.92388 0 0.382683
0.00930095 0.00547575 0.00363568 0.92388 0 0.382683
0.00904628 0.0169023 0.00425049 0.92388 0 0.382683
0.00902463 0.0188097 0.00430278 0.92388 0 0.382683
0.00909363 6.36498e-05 0.00413618 0.92388 0 0.382683
0.00908378 0.00454124 0.00415996 0.92388 0 0.382683
0.00888156 0.00571914 0.00457068 0.875223 0 0.483719
0.00882353 0.013765 0.00467567 0.875223 0 0.483719
0.00871013 0.0160789 0.00488085 0.875223 0 0.483719
0.00894329 0.0126506 0.00445897 0.875223 0 0.483719
0.00896423 0.0109679 0.00442109 0.875223 0 0.483719
0.00858489 0.0149031 0.00510745 0.875223 0 0.483719
0.00881219 0.00691265 0.00469619 0.875223 0 0.483719
0.00850556 0.0185693 0.005251 0.875223 0 0.483719
0.00853785 0.00422592 0.00519256 0.875223 0 0.483719
0.00829782 0.00899376 0.0055591 0.815561 0 0.578671
0.0083023 0.0114337 0.00555279 0.815561 0 0.578671
0.00841836 0.0130578 0.00538921 0.815561 0 0.578671
0.00844643 0.0101355 0.00534966 0.815561 0 0.578671
0.0081254 0.0163806 0.0058021 0.815561 0 0.578671
0.00831167 0.0173824 0.00553958 0.815561 0 0.578671
0.0084655 0.00784095 0.00532278 0.815561 0 0.578671
0.00795539 0.00511312 0.00604171 0.815561 0 0.578671
0.008074 0.00257957 0.00587454 0.815561 0 0.578671
0.00821408 0.00653402 0.00567712 0.815561 0 0.578671
0.00782264 0.0153296 0.0062288 0.815561 0 0.578671
0.00784609 0.00742096 0.00619575 0.815561 0 0.578671
0.00840996 0.00140764 0.00540105 0.815561 0 0.578671
0.00710719 0.0197668 0.00703064 0.745642 0 0.666347
0.00766813 0.0139788 0.00640295 0.745642 0 0.666347
0.00763855 0.0177524 0.00643605 0.745642 0 0.666347
0.00768876 0.0121833 0.00637987 0.745642 0 0.666347
0.00736841 0.0109748 0.00673834 0.745642 0 0.666347
0.0072098 0.00813695 0.00691583 0.745642 0 0.666347
0.0071779 0.00657851 0.00695152 0.745642 0 0.666347
0.00712175 0.00528965 0.00701435 0.745642 0 0.666347
0.00771722 1.77406e-06 0.00634803 0.745642 0 0.666347
0.00708169 0.0149331 0.00705918 0.745642 0 0.666347
0.00744681 0.00406045 0.00665061 0.745642 0 0.666347
0.00767721 0.00130237 0.0063928 0.745642 0 0.666347
0.00702876 0.0170495 0.00710888 0.666347 0 0.745642
0.00654712 0.0188001 0.00753929 0.666347 0 0.745642
0.00691547 0.0135738 0.00721012 0.666347 0 0.745642
0.00692778 0.00948059 0.00719912 0.666347 0 0.745642
0.00686786 0.0120693 0.00725267 0.666347 0 0.745642
0.00685178 0.00196515 0.00726703 0.666347 0 0.745642
0.00648012 0.0109316 0.00759917 0.666347 0 0.745642
0.00629443 0.0161088 0.00776511 0.666347 0 0.745642
0.00696637 0.000618989 0.00716463 0.666347 0 0.745642
0.00650358 0.00750465 0.00757821 0.666347 0 0.745642
0.00632973 0.00573643 0.00773356 0.666347 0 0.745642
0.00687006 0.00330996 0.0072507 0.666347 0 0.745642
0.00603983 0.0198277 0.00795672 0.578671 0 0.815561
0.00590231 0.0142021 0.0080543 0.578671 0 0.815561
0.00615643 0.0174041 0.00787399 0.578671 0 0.815561
0.00570237 0.0117598 0.00819617 0.578671 0 0.815561
0.00584047 0.0129282 0.00809818 0.578671 0 0.815561
0.00596181 0.00995619 0.00801208 0.578671 0 0.815561
0.00599792 0.00405394 0.00798646 0.578671 0 0.815561
0.0054354 0.000276292 0.00838559 0.578671 0 0.815561
0.00543957 0.0057105 0.00838263 0.578671 0 0.815561
0.0058672 0.00158386 0.00807921 0.578671 0 0.815561
0.0057091 0.00893993 0.00819139 0.578671 0 0.815561
0.00534031 0.018719 0.00845306 0.578671 0 0.815561
0.00525384 0.00341528 0.00850399 0.483719 0 0.875223
0.00500681 0.00665805 0.00864051 0.483719 0 0.875223
0.00491233 0.0146024 0.00869273 0.483719 0 0.875223
0.0050571 0.0166948 0.00861272 0.483719 0 0.875223
0.00435525 0.00572091 0.00900062 0.483719 0 0.875223
0.00435152 0.0175165 0.00900268 0.483719 0 0.875223
0.0046812 0.00101939 0.00882047 0.483719 0 0.875223
0.00460426 0.0133766 0.008863 0.483719 0 0.875223
0.00465773 0.0100585 0.00883344 0.483719 0 0.875223
0.00445185 0.00450904 0.00894723 0.483719 0 0.875223
0.00456132 0.00890757 0.00888673 0.483719 0 0.875223
0.00439643 0.0156802 0.00897786 0.483719 0 0.875223
0.00378074 0.0187874 0.00924086 0.382683 0 0.92388
0.00378053 0.0145087 0.00924095 0.382683 0 0.92388
0.00415853 0.0198633 0.00908438 0.382683 0 0.92388
0.00395823 0.0118807 0.00916734 0.382683 0 0.92388
0.00426282 0.00219168 0.00904117 0.382683 0 0.92388
0.00339207 0.00577712 0.00940185 0.382683 0 0.92388
0.0039923 0.00329644 0.00915323 0.382683 0 0.92388
0.00382816 6.06448e-05 0.00922122 0.382683 0 0.92388
0.00331725 0.00459915 0.00943284 0.382683 0 0.92388
0.00382787 0.00708281 0.00922134 0.382683 0 0.92388
0.00353546 0.00967614 0.00934246 0.382683 0 0.92388
0.00371093 0.00111486 0.00926978 0.382683 0 0.92388
0.00335833 0.0163943 0.00941583 0.382683 0 0.92388
0.0031019 0.0198987 0.00949671 0.276836 0 0.960917
0.00313648 0.00831549 0.00948675 0.276836 0 0.960917
0.00252661 0.0157052 0.00966245 0.276836 0 0.960917
0.00324291 0.0107859 0.00945608 0.276836 0 0.960917
0.00257112 0.0172492 0.00964962 0.276836 0 0.960917
0.00311326 0.0127796 0.00949344 0.276836 0 0.960917
0.00241784 0.0191492 0.00969378 0.276836 0 0.960917
0.00226564 0.0135702 0.00973763 0.276836 0 0.960917
0.00281785 0.00289239 0.00957854 0.276836 0 0.960917
0.00266649 0.00703946 0.00962215 0.276836 0 0.960917
0.00266423 0.00161733 0.0096228 0.276836 0 0.960917
0.00138513 0.0165123 0.00989202 0.167506 0 0.985871
0.00174568 0.0182566 0.00983075 0.167506 0 0.985871
0.00208837 0.010759 0.00977253 0.167506 0 0.985871
0.00193175 0.0121073 0.00979914 0.167506 0 0.985871
0.002128 0.00939556 0.0097658 0.167506 0 0.985871
0.00150584 0.00658204 0.00987151 0.167506 0 0.985871
0.00113563 0.0142302 0.00993441 0.167506 0 0.985871
0.00150415 0.00117409 0.00987179 0.167506 0 0.985871
0.0013496 0.0130045 0.00989805 0.167506 0 0.985871
0.00131987 0.00789886 0.0099031 0.167506 0 0.985871
0.00144229 0.00332635 0.0098823 0.167506 0 0.985871
0.0017152 0.00521418 0.00983593 0.167506 0 0.985871
0.00116771 0.0101476 0.00992896 0.167506 0 0.985871
0.00085479 0.0112921 0.009952 0.0560699 0 0.998427
0.00030331 0.0194253 0.00998297 0.0560699 0 0.998427
0.000902119 0.0153237 0.00994934 0.0560699 0 0.998427
0.000278165 0.0175518 0.00998438 0.0560699 0 0.998427
0.000490836 0.00888043 0.00997244 0.0560699 0 0.998427
0.000273952 0.00496727 0.00998462 0.0560699 0 0.998427
3.07516e-05 0.0133502 0.00999827 0.0560699 0 0.998427
6.28582e-05 0.0123208 0.00999647 0.0560699 0 0.998427
0.000943702 0.0023953 0.009947 0.0560699 0 0.998427
0.000338416 0.00111135 0.00998099 0.0560699 0 0.998427
9.70839e-05 0.0165012 0.00999455 0.0560699 0 0.998427
0.000328391 0.00374136 0.00998156 0.0560699 0 0.998427
-0.000186308 0.00599645 0.00998954 -0.0560699 0 0.998427
-5.94051e-05 0.00768821 0.00999666 -0.0560699 0 0.998427
-5.63912e-05 0.0148346 0.00999683 -0.0560699 0 0.998427
-0.00108541 0.0127326 0.00993905 -0.0560699 0 0.998427
-0.000809014 0.000805671 0.00995457 -0.0560699 0 0.998427
-0.000579789 0.00973241 0.00996744 -0.0560699 0 0.998427
-0.00106253 0.018299 0.00994033 -0.0560699 0 0.998427
-0.000935778 0.00681235 0.00994745 -0.0560699 0 0.998427
-0.00084288 0.0111443 0.00995267 -0.0560699 0 0.998427
-0.000921452 0.00865352 0.00994825 -0.0560699 0 0.998427
-0.000503873 0.00219671 0.0099717 -0.0560699 0 0.998427
-0.000700128 0.00326074 0.00996068 -0.0560699 0 0.998427
-0.00104871 0.00450103 0.00994111 -0.0560699 0 0.998427
-0.00139113 0.0193256 0.009891 -0.167506 0 0.985871
-0.00115663 0.0156513 0.00993084 -0.167506 0 0.985871
-0.00210143 0.0178167 0.00977031 -0.167506 0 0.985871
-0.00143713 0.0141444 0.00988318 -0.167506 0 0.985871
-0.00183862 0.00349364 0.00981496 -0.167506 0 0.985871
-0.00205079 0.00571688 0.00977892 -0.167506 0 0.985871
-0.00209081 0.00462807 0.00977212 -0.167506 0 0.985871
-0.00167386 0.0076813 0.00984296 -0.167506 0 0.985871
-0.0017654 0.00968907 0.0098274 -0.167506 0 0.985871
-0.00191972 0.00109062 0.00980118 -0.167506 0 0.985871
-0.0019642 0.010909 0.00979363 -0.167506 0 0.985871
-0.00262926 0.016692 0.00963288 -0.276836 0 0.960917
-0.0024011 0.0122348 0.00969861 -0.276836 0 0.960917
-0.00275844 0.0195872 0.00959566 -0.276836 0 0.960917
-0.00262745 0.0141847 0.0096334 -0.276836 0 0.960917
-0.00290152 0.0154087 0.00955444 -0.276836 0 0.960917
-0.00242964 0.00863064 0.00969038 -0.276836 0 0.960917
-0.00288462 0.00363142 0.00955931 -0.276836 0 0.960917
-0.00265467 0.00245799 0.00962555 -0.276836 0 0.960917
-0.00316243 0.00604724 0.00947927 -0.276836 0 0.960917
-0.00322715 0.0113795 0.00946063 -0.276836 0 0.960917
-0.00291029 0.00953769 0.00955191 -0.276836 0 0.960917
-0.00268618 0.00701636 0.00961648 -0.276836 0 0.960917
-0.00380066 0.0188826 0.00923261 -0.382683 0 0.92388
-0.0037357 0.0122524 0.00925952 -0.382683 0 0.92388
-0.00338104 0.017828 0.00940642 -0.382683 0 0.92388
-0.00387838 0.0168962 0.00920042 -0.382683 0 0.92388
-0.00347659 0.00800254 0.00936684 -0.382683 0 0.92388
-0.00343792 0.013437 0.00938286 -0.382683 0 0.92388
-0.00394421 0.0146837 0.00917315 -0.382683 0 0.92388
-0.00408475 0.00469842 0.00911493 -0.382683 0 0.92388
-0.00406674 0.00982234 0.0091224 -0.382683 0 0.92388
-0.0042682 0.00141869 0.00903895 -0.382683 0 0.92388
-0.00379155 0.00273617 0.00923638 -0.382683 0 0.92388
-0.00425771 0.00603198 0.00904329 -0.382683 0 0.92388
-0.00509902 0.0169526 0.00858955 -0.483719 0 0.875223
-0.00442599 0.00872297 0.00896152 -0.483719 0 0.875223
-0.0051019 0.0158106 0.00858796 -0.483719 0 0.875223
-0.00448265 0.00360341 0.00893021 -0.483719 0 0.875223
-0.00528087 0.0195616 0.00848904 -0.483719 0 0.875223
-0.00454065 0.013173 0.00889815 -0.483719 0 0.875223
-0.0049205 0.0181358 0.00868821 -0.483719 0 0.875223
-0.00515902 0.00731217 0.00855639 -0.483719 0 0.875223
-0.00505089 0.0110079 0.00861615 -0.483719 0 0.875223
-0.00529005 0.012109 0.00848397 -0.483719 0 0.875223
-0.00507146 0.00974423 0.00860478 -0.483719 0 0.875223
-0.00507852 0.000507577 0.00860088 -0.483719 0 0.875223
-0.00517779 0.00211829 0.00854602 -0.483719 0 0.875223
-0.00590609 0.0176873 0.00805162 -0.578671 0 0.815561
-0.00545376 0.0145325 0.00837256 -0.578671 0 0.815561
-0.0056263 0.0131705 0.00825014 -0.578671 0 0.815561
-0.00554803 0.00616857 0.00830568 -0.578671 0 0.815561
-0.00615392 0.00777188 0.00787577 -0.578671 0 0.815561
-0.00549157 0.00339807 0.00834573 -0.578671 0 0.815561
-0.00610641 0.0165729 0.00790948 -0.578671 0 0.815561
-0.00575889 0.00478025 0.00815606 -0.578671 0 0.815561
-0.00600867 0.0014107 0.00797883 -0.578671 0 0.815561
-0.0061644 0.011317 0.00786834 -0.578671 0 0.815561
-0.0064247 0.00567167 0.0076487 -0.666347 0 0.745642
-0.00651094 0.0124462 0.00757163 -0.666347 0 0.745642
-0.00651259 0.00916024 0.00757015 -0.666347 0 0.745642
-0.00692178 0.0199852 0.00720448 -0.666347 0 0.745642
-0.00649406 0.0147685 0.00758671 -0.666347 0 0.745642
-0.00680751 0.0158224 0.0073066 -0.666347 0 0.745642
-0.00629943 0.0025821 0.00776064 -0.666347 0 0.745642
-0.0066932 0.0186499 0.00740875 -0.666347 0 0.745642
-0.00683962 0.00438449 0.0072779 -0.666347 0 0.745642
-0.00686726 0.00702783 0.00725321 -0.666347 0 0.745642
-0.00670829 0.0102274 0.00739526 -0.666347 0 0.745642
-0.00706317 0.013666 0.00707812 -0.666347 0 0.745642
-0.00627219 0.000156048 0.00778499 -0.666347 0 0.745642
-0.00743836 0.0105975 0.00666006 -0.745642 0 0.666347
-0.00717897 0.0170519 0.00695033 -0.745642 0 0.666347
-0.00717808 0.0116912 0.00695132 -0.745642 0 0.666347
-0.00731817 0.0148504 0.00679456 -0.745642 0 0.666347
-0.00710552 0.00831151 0.00703251 -0.745642 0 0.666347
-0.00767392 0.00142227 0.00639647 -0.745642 0 0.666347
-0.0075549 0.00510952 0.00652966 -0.745642 0 0.666347
-0.00747033 0.00378348 0.00662429 -0.745642 0 0.666347
-0.00781118 0.00638903 0.00624288 -0.745642 0 0.666347
-0.00757336 0.00258159 0.006509 -0.745642 0 0.666347
-0.00803211 0.0162408 0.00593359 -0.815561 0 0.578671
-0.00810547 0.0141109 0.0058302 -0.815561 0 0.578671
-0.00784651 0.0179515 0.00619517 -0.815561 0 0.578671
-0.00801849 0.00992449 0.00595277 -0.815561 0 0.578671
-0.00797238 0.0190377 0.00601776 -0.815561 0 0.578671
-0.00784829 0.00829906 0.00619266 -0.815561 0 0.578671
-0.00814418 0.0126717 0.00577563 -0.815561 0 0.578671
-0.00840902 0.0107773 0.00540238 -0.815561 0 0.578671
-0.00825423 0.00434966 0.00562053 -0.815561 0 0.578671
-0.0082598 0.00236977 0.00561268 -0.815561 0 0.578671
-0.00813083 3.11977e-06 0.00579445 -0.815561 0 0.578671
-0.00861603 0.00682019 0.0050511 -0.875223 0 0.483719
-0.00851397 0.018328 0.00523578 -0.875223 0 0.483719
-0.00847362 0.0170472 0.00530878 -0.875223 0 0.483719
-0.00858609 0.00799025 0.00510528 -0.875223 0 0.483719
-0.00854282 0.0149549 0.00518357 -0.875223 0 0.483719
-0.00896922 0.00880488 0.00441207 -0.875223 0 0.483719
-0.00864052 0.00562178 0.00500681 -0.875223 0 0.483719
-0.00880572 0.00981499 0.00470789 -0.875223 0 0.483719
-0.00891706 0.00289746 0.00450644 -0.875223 0 0.483719
-0.00861765 0.000952246 0.00504817 -0.875223 0 0.483719
-0.00891008 0.0119401 0.00451907 -0.875223 0 0.483719
-0.00890478 0.00404033 0.00452866 -0.875223 0 0.483719
-0.00899582 0.0142089 0.00436393 -0.875223 0 0.483719
-0.00907002 0.0187042 0.00419319 -0.92388 0 0.382683
-0.00906884 0.00728361 0.00419604 -0.92388 0 0.382683
-0.00918592 0.0111426 0.00391339 -0.92388 0 0.382683
-0.0093689 0.0176507 0.00347162 -0.92388 0 0.382683
-0.00905959 0.0130588 0.00421838 -0.92388 0 0.382683
-0.00912017 0.0153504 0.0040721 -0.92388 0 0.382683
-0.00907208 0.0167298 0.0041882 -0.92388 0 0.382683
-0.00934334 0.0195373 0.00353334 -0.92388 0 0.382683
-0.00940299 0.0137739 0.00338933 -0.92388 0 0.382683
-0.00940643 0.0033556 0.00338103 -0.92388 0 0.382683
-0.00914399 0.00543589 0.0040146 -0.92388 0 0.382683
-0.00926933 0.00985869 0.003712 -0.92388 0 0.382683
-0.00938852 0.00808823 0.00342425 -0.92388 0 0.382683
-0.00931346 0.00216434 0.00360548 -0.92388 0 0.382683
-0.0092214 0.000998324 0.00382772 -0.92388 0 0.382683
-0.00965318 0.0153262 0.00255879 -0.960917 0 0.276836
-0.00944516 0.00643221 0.00328083 -0.960917 0 0.276836
-0.00961138 0.0165719 0.00270385 -0.960917 0 0.276836
-0.00971434 0.0185827 0.00234648 -0.960917 0 0.276836
-0.00967007 0.0197628 0.00250017 -0.960917 0 0.276836
-0.00945573 0.00478328 0.00324415 -0.960917 0 0.276836
-0.00969191 0.00927596 0.00242436 -0.960917 0 0.276836
-0.00965464 0.0127504 0.00255369 -0.960917 0 0.276836
-0.00973807 1.02741e-05 0.00226411 -0.960917 0 0.276836
-0.00961351 0.00134025 0.00269648 -0.960917 0 0.276836
-0.00969004 0.00781046 0.00243083 -0.960917 0 0.276836
-0.00985709 0.014679 0.00159066 -0.985871 0 0.167506
-0.00988599 0.0161781 0.00142061 -0.985871 0 0.167506
-0.0097556 0.00460236 0.00218802 -0.985871 0 0.167506
-0.00980317 0.0116886 0.00190805 -0.985871 0 0.167506
-0.00978976 0.0104715 0.00198694 -0.985871 0 0.167506
-0.00991969 0.00866123 0.00122225 -0.985871 0 0.167506
-0.00981632 0.0067461 0.00183063 -0.985871 0 0.167506
-0.00983739 0.00218869 0.00170663 -0.985871 0 0.167506
-0.00993657 0.018987 0.00112287 -0.985871 0 0.167506
-0.00996152 0.0105515 0.000685257 -0.998427 0 0.0560699
-0.0099406 0.00435247 0.00105774 -0.998427 0 0.0560699
-0.00994481 0.00545879 0.000982741 -0.998427 0 0.0560699
-0.00993932 0.0178476 0.00108047 -0.998427 0 0.0560699
-0.00995221 0.0132411 0.000850902 -0.998427 0 0.0560699
-0.00998915 0.0148251 0.000193255 -0.998427 0 0.0560699
-0.00996268 0.00326352 0.000664509 -0.998427 0 0.0560699
-0.00998675 0.011937 0.000235853 -0.998427 0 0.0560699
-0.00998386 0.00185784 0.000287397 -0.998427 0 0.0560699
-0.0099547 0.000775834 0.000806649 -0.998427 0 0.0560699
-0.00996832 0.00765947 0.000564136 -0.998427 0 0.0560699
-0.00998739 0.00647272 0.000224588 -0.998427 0 0.0560699
-0.00999636 0.00933557 6.47866e-05 -0.998427 0 0.0560699
-0.00997009 0.0129475 -0.000532614 -0.998427 0 -0.0560699
-0.00995032 0.0158907 -0.00088457 -0.998427 0 -0.0560699
-0.00999307 0.00465986 -0.000123458 -0.998427 0 -0.0560699
-0.00996867 0.0197793 -0.000557913 -0.998427 0 -0.0560699
-0.00995126 0.0181843 -0.000867831 -0.998427 0 -0.0560699
-0.0099971 0.0172551 -5.16495e-05 -0.998427 0 -0.0560699
-0.00997098 0.0106585 -0.000516763 -0.998427 0 -0.0560699
-0.00995021 0.0141689 -0.000886677 -0.998427 0 -0.0560699
-0.00998001 0.000532049 -0.000356013 -0.998427 0 -0.0560699
-0.00996288 0.00733142 -0.00066104 -0.998427 0 -0.0560699
-0.00995743 0.00200675 -0.000757988 -0.998427 0 -0.0560699
-0.00989324 0.0088962 -0.00137789 -0.985871 0 -0.167506
-0.00983837 0.0150856 -0.00170085 -0.985871 0 -0.167506
-0.00990024 0.0122181 -0.00133672 -0.985871 0 -0.167506
-0.00992932 0.0169504 -0.00116556 -0.985871 0 -0.167506
-0.00982656 0.0102426 -0.00177036 -0.985871 0 -0.167506
-0.00987407 0.000141728 -0.00149077 -0.985871 0 -0.167506
-0.00982738 0.00651959 -0.00176553 -0.985871 0 -0.167506
-0.00980586 0.013101 -0.00189219 -0.985871 0 -0.167506
-0.00978177 0.016117 -0.002034 -0.985871 0 -0.167506
-0.00984524 0.00399685 -0.00166044 -0.985871 0 -0.167506
-0.00978141 0.00170902 -0.00203609 -0.985871 0 -0.167506
-0.00979453 0.00773465 -0.00195887 -0.985871 0 -0.167506
-0.00983162 0.00283808 -0.00174061 -0.985871 0 -0.167506
-0.00964162 0.0109182 -0.00259889 -0.960917 0 -0.276836
-0.00955233 0.0195968 -0.00290884 -0.960917 0 -0.276836
-0.00963703 0.00873131 -0.00261483 -0.960917 0 -0.276836
-0.00960943 0.0172973 -0.00271062 -0.960917 0 -0.276836
-0.00970172 0.0185595 -0.00239028 -0.960917 0 -0.276836
-0.0095873 0.0147657 -0.00278744 -0.960917 0 -0.276836
-0.00974643 0.00558025 -0.00223509 -0.960917 0 -0.276836
-0.00960132 0.000447277 -0.00273879 -0.960917 0 -0.276836
-0.0094631 0.00272212 -0.00321855 -0.960917 0 -0.276836
-0.00951534 0.00708937 -0.00303722 -0.960917 0 -0.276836
-0.00950679 0.0135862 -0.00306692 -0.960917 0 -0.276836
-0.00951166 0.00981882 -0.00305 -0.960917 0 -0.276836
-0.00952318 0.0122475 -0.00301003 -0.960917 0 -0.276836
-0.00913391 0.0189005 -0.00403893 -0.92388 0 -0.382683
-0.00931726 0.0178755 -0.0035963 -0.92388 0 -0.382683
-0.00943558 0.00578455 -0.00331064 -0.92388 0 -0.382683
-0.00930905 0.0167087 -0.00361612 -0.92388 0 -0.382683
-0.00907802 3.53139e-05 -0.00417388 -0.92388 0 -0.382683
-0.00910759 0.0119155 -0.00410248 -0.92388 0 -0.382683
-0.00931509 0.00134662 -0.00360153 -0.92388 0 -0.382683
-0.00927392 0.00385465 -0.00370092 -0.92388 0 -0.382683
-0.00926014 0.00821474 -0.0037342 -0.92388 0 -0.382683
-0.00902855 0.00657973 -0.0042933 -0.92388 0 -0.382683
-0.00904028 0.0156261 -0.00426498 -0.92388 0 -0.382683
-0.00903033 0.00541716 -0.004289 -0.92388 0 -0.382683
-0.00915282 0.0107748 -0.00399329 -0.92388 0 -0.382683
-0.0088268 0.0134373 -0.00466976 -0.875223 0 -0.483719
-0.00882077 0.00781699 -0.00468065 -0.875223 0 -0.483719
-0.00885608 0.0177944 -0.00461677 -0.875223 0 -0.483719
-0.00896549 0.00960656 -0.00441882 -0.875223 0 -0.483719
-0.00888876 0.0144979 -0.00455764 -0.875223 0 -0.483719
-0.00881329 0.0198651 -0.00469419 -0.875223 0 -0.483719
-0.00900509 0.0021631 -0.00434716 -0.875223 0 -0.483719
-0.00849107 0.00216421 -0.00527721 -0.875223 0 -0.483719
-0.00861233 0.0105046 -0.00505781 -0.875223 0 -0.483719
-0.00871881 0.00108902 -0.00486514 -0.875223 0 -0.483719
-0.00879419 0.00450771 -0.00472875 -0.875223 0 -0.483719
-0.00868227 0.00333944 -0.00493125 -0.875223 0 -0.483719
-0.00817048 0.0178263 -0.00573857 -0.815561 0 -0.578671
-0.00808953 0.013543 -0.00585265 -0.815561 0 -0.578671
-0.00832095 0.0166864 -0.0055265 -0.815561 0 -0.578671
-0.00841248 0.0188035 -0.0053975 -0.815561 0 -0.578671
-0.00817294 0.0148013 -0.0057351 -0.815561 0 -0.578671
-0.0081467 0.0124473 -0.00577209 -0.815561 0 -0.578671
-0.00820708 0.00958307 -0.00568698 -0.815561 0 -0.578671
-0.0080107 0.00341943 -0.00596376 -0.815561 0 -0.578671
-0.00810961 1.3833e-05 -0.00582436 -0.815561 0 -0.578671
-0.00818128 0.00705643 -0.00572335 -0.815561 0 -0.578671
-0.00819047 0.00835186 -0.0057104 -0.815561 0 -0.578671
-0.00817517 0.00461775 -0.00573196 -0.815561 0 -0.578671
-0.00733458 0.0183951 -0.00677619 -0.745642 0 -0.666347
-0.00755332 0.0117627 -0.00653143 -0.745642 0 -0.666347
-0.0072602 0.0149636 -0.00685942 -0.745642 0 -0.666347
-0.00780561 0.00595591 -0.00624912 -0.745642 0 -0.666347
-0.00726832 0.0196985 -0.00685034 -0.745642 0 -0.666347
-0.00780975 0.0106327 -0.00624449 -0.745642 0 -0.666347
-0.0075855 0.0166761 -0.00649541 -0.745642 0 -0.666347
-0.00736471 0.00403697 -0.00674248 -0.745642 0 -0.666347
-0.00733695 0.00968851 -0.00677354 -0.745642 0 -0.666347
-0.00712735 0.000649372 -0.00700809 -0.745642 0 -0.666347
-0.00737427 0.00696047 -0.00673179 -0.745642 0 -0.666347
-0.00763685 0.00221433 -0.00643796 -0.745642 0 -0.666347
-0.00721376 0.0130378 -0.0069114 -0.745642 0 -0.666347
-0.00642245 0.0187755 -0.0076507 -0.666347 0 -0.745642
-0.00674448 0.0160057 -0.00736292 -0.666347 0 -0.745642
-0.00680143 0.0172463 -0.00731203 -0.666347 0 -0.745642
-0.00646666 0.0148198 -0.0076112 -0.666347 0 -0.745642
-0.00698242 0.00511923 -0.00715028 -0.666347 0 -0.745642
-0.0063645 0.00879499 -0.00770249 -0.666347 0 -0.745642
-0.00653626 0.0077403 -0.007549 -0.666347 0 -0.745642
-0.00647983 0.0104693 -0.00759943 -0.666347 0 -0.745642
-0.00666591 0.00347927 -0.00743314 -0.666347 0 -0.745642
-0.0062805 0.00110185 -0.00777756 -0.666347 0 -0.745642
-0.00617917 0.00674799 -0.00785786 -0.578671 0 -0.815561
-0.00572236 0.0177172 -0.00818198 -0.578671 0 -0.815561
-0.00586536 0.0156342 -0.00808052 -0.578671 0 -0.815561
-0.00616616 0.0137495 -0.00786709 -0.578671 0 -0.815561
-0.00557667 0.019258 -0.00828535 -0.578671 0 -0.815561
-0.00575154 0.0112361 -0.00816127 -0.578671 0 -0.815561
-0.00619531 0.0022914 -0.0078464 -0.578671 0 -0.815561
-0.00623475 0.0125937 -0.00781842 -0.578671 0 -0.815561
-0.00584399 0.00518727 -0.00809568 -0.578671 0 -0.815561
-0.00534905 0.0042826 -0.00844686 -0.578671 0 -0.815561
-0.00564863 0.000242672 -0.0082343 -0.578671 0 -0.815561
-0.005435 0.00911103 -0.00838588 -0.578671 0 -0.815561
-0.00444115 0.018326 -0.00895314 -0.483719 0 -0.875223
-0.00506196 0.0124319 -0.00861003 -0.483719 0 -0.875223
-0.00516703 0.00611512 -0.00855197 -0.483719 0 -0.875223
-0.00475659 0.0167243 -0.0087788 -0.483719 0 -0.875223
-0.00441238 0.019764 -0.00896904 -0.483719 0 -0.875223
-0.00527257 0.0135719 -0.00849363 -0.483719 0 -0.875223
-0.00496461 0.010176 -0.00866384 -0.483719 0 -0.875223
-0.00443635 0.0145719 -0.0089558 -0.483719 0 -0.875223
-0.00434653 0.00893436 -0.00900544 -0.483719 0 -0.875223
-0.00438206 0.00557494 -0.0089858 -0.483719 0 -0.875223
-0.00498442 0.0031811 -0.00865289 -0.483719 0 -0.875223
-0.00442885 0.0112004 -0.00895994 -0.483719 0 -0.875223
-0.004641 0.000163392 -0.00884269 -0.483719 0 -0.875223
-0.00521724 0.00190968 -0.00852421 -0.483719 0 -0.875223
-0.00476876 0.00791976 -0.00877208 -0.483719 0 -0.875223
-0.00423197 0.00436175 -0.00905396 -0.382683 0 -0.92388
-0.00357684 0.0151899 -0.00932532 -0.382683 0 -0.92388
-0.00411562 0.0123856 -0.00910215 -0.382683 0 -0.92388
-0.00429316 0.0066582 -0.00902861 -0.382683 0 -0.92388
-0.00376074 0.0098499 -0.00924914 -0.382683 0 -0.92388
-0.0033398 0.0172189 -0.0094235 -0.382683 0 -0.92388
-0.00352662 0.00296116 -0.00934612 -0.382683 0 -0.92388
-0.00333027 0.00852639 -0.00942745 -0.382683 0 -0.92388
-0.00422325 0.00132901 -0.00905757 -0.382683 0 -0.92388
-0.00339651 0.0137776 -0.00940001 -0.382683 0 -0.92388
-0.00322027 0.0183888 -0.00946261 -0.276836 0 -0.960917
-0.00262478 0.0146489 -0.00963416 -0.276836 0 -0.960917
-0.00309942 0.0125123 -0.00949742 -0.276836 0 -0.960917
-0.00315074 0.00715554 -0.00948264 -0.276836 0 -0.960917
-0.00313287 0.00483967 -0.00948779 -0.276836 0 -0.960917
-0.003038 0.0109034 -0.00951512 -0.276836 0 -0.960917
-0.00318007 0.0016934 -0.00947419 -0.276836 0 -0.960917
-0.00239441 0.000978251 -0.00970053 -0.276836 0 -0.960917
-0.00234805 0.0081507 -0.00971389 -0.276836 0 -0.960917
-0.00225202 0.0168117 -0.00974156 -0.276836 0 -0.960917
-0.00223426 0.00260317 -0.00974667 -0.276836 0 -0.960917
-0.00252642 0.00577081 -0.0096625 -0.276836 0 -0.960917
-0.0027244 0.00371884 -0.00960546 -0.276836 0 -0.960917
-0.00200559 0.0103764 -0.00978659 -0.167506 0 -0.985871
-0.00221402 0.0194412 -0.00975118 -0.167506 0 -0.985871
-0.00198067 0.0127354 -0.00979083 -0.167506 0 -0.985871
-0.0020115 0.0115544 -0.00978559 -0.167506 0 -0.985871
-0.00143913 0.0145215 -0.00988284 -0.167506 0 -0.985871
-0.00208535 0.018081 -0.00977304 -0.167506 0 -0.985871
-0.00180678 0.0155918 -0.00982037 -0.167506 0 -0.985871
-0.00118475 0.00817999 -0.00992606 -0.167506 0 -0.985871
-0.00148938 0.000138689 -0.0098743 -0.167506 0 -0.985871
-0.0014714 0.00500651 -0.00987736 -0.167506 0 -0.985871
-0.00150398 0.00354234 -0.00987182 -0.167506 0 -0.985871
-0.00135465 0.00700726 -0.00989719 -0.167506 0 -0.985871
-0.00112652 0.0185111 -0.00993595 -0.167506 0 -0.985871
-0.00152826 0.00935707 -0.0098677 -0.167506 0 -0.985871
-0.00128466 0.00163874 -0.00990909 -0.167506 0 -0.985871
-0.000825008 0.0122395 -0.00995367 -0.0560699 0 -0.998427
-0.000409398 0.0153264 -0.00997701 -0.0560699 0 -0.998427
-0.000244112 0.0193923 -0.00998629 -0.0560699 0 -0.998427
-0.00107651 0.0169424 -0.00993954 -0.0560699 0 -0.998427
-0.00081235 0.00265979 -0.00995438 -0.0560699 0 -0.998427
-1.5082e-05 0.00837426 -0.00999915 -0.0560699 0 -0.998427
-0.000163248 0.000597075 -0.00999083 -0.0560699 0 -0.998427
-0.000248993 0.00445377 -0.00998602 -0.0560699 0 -0.998427
-0.000179467 0.0138171 -0.00998992 -0.0560699 0 -0.998427
-0.000543732 0.00983082 -0.00996946 -0.0560699 0 -0.998427
0.000934817 0.0183822 -0.0099475 0.0560699 0 -0.998427
0.000135175 0.0110188 -0.00999241 0.0560699 0 -0.998427
0.000339056 0.0124217 -0.00998096 0.0560699 0 -0.998427
0.000137808 0.00550328 -0.00999226 0.0560699 0 -0.998427
0.000507902 0.00997783 -0.00997148 0.0560699 0 -0.998427
5.70516e-05 0.0168074 -0.0099968 0.0560699 0 -0.998427
0.000451061 0.02 0.0066626 0 1 0
0.000533433 0.02 0.00875881 0 1 0
0.000461458 0.02 0.00542349 0 1 0
-0.000641906 0.02 0.00949404 0 1 0
-3.18663e-05 0.02 0.00767986 0 1 0
-0.0010176 0.02 0.00269506 0 1 0
-0.00164697 0.02 0.00366225 0 1 0
-0.00329885 0.02 0.00730789 0 1 0
-0.00193415 0.02 0.00521306 0 1 0
-0.00176764 0.02 0.00771097 0 1 0
-0.00256858 0.02 0.00840506 0 1 0
-0.00218326 0.02 0.00658102 0 1 0
-0.000709547 0.02 0.00544477 0 1 0
-0.000892108 0.02 0.006676 0 1 0
-0.000501297 0.02 0.0041629 0 1 0
-0.00568817 0.02 0.00674109 0 1 0
-0.00510387 0.02 0.00513035 0 1 0
-0.00240747 0.02 0.00243535 0 1 0
-0.00396132 0.02 0.00498707 0 1 0
-0.0047987 0.02 0.00740284 0 1 0
-0.00259615 0.02 0.00423414 0 1 0
-0.0042163 0.02 0.00868919 0 1 0
-0.00328122 0.02 0.00584024 0 1 0
-0.00714286 0.02 0.00393659 0 1 0
-0.00539253 0.02 0.00324161 0 1 0
-0.00423679 0.02 0.002969 0 1 0
-0.00194042 0.02 0.00134493 0 1 0
-0.00772052 0.02 0.00535239 0 1 0
-0.00607654 0.02 0.0044473 0 1 0
-0.00454359 0.02 0.00401704 0 1 0
-0.0062667 0.02 0.00561465 0 1 0
-0.00680554 0.02 0.00150147 0 1 0
-0.00406686 0.02 0.000595812 0 1 0
-0.00841019 0.02 0.00143381 0 1 0
-0.00764476 0.02 0.00241179 0 1 0
-0.00305508 0.02 0.00123738 0 1 0
-0.00416784 0.02 0.00183081 0 1 0
-0.00843547 0.02 0.00390201 0 1 0
-0.00587222 0.02 0.00213339 0 1 0
-0.00924576 0.02 -0.00158811 0 1 0
-0.00819517 0.02 -0.000929441 0 1 0
-0.00597073 0.02 -0.000732576 0 1 0
-0.00163471 0.02 -0.000101588 0 1 0
-0.00687802 0.02 -2.81828e-05 0 1 0
-0.00488074 0.02 -0.000297531 0 1 0
-0.00580432 0.02 0.00047618 0 1 0
-0.00995336 0.02 0.000577265 0 1 0
-0.0002932 0.02 2.51551e-05 0 1 0
-0.00334431 0.02 -0.00190293 0 1 0
-0.00465734 0.02 -0.00241663 0 1 0
-0.0071901 0.02 -0.00357758 0 1 0
-0.00615859 0.02 -0.00375421 0 1 0
-0.00603946 0.02 -0.00248629 0 1 0
-0.00269362 0.02 -0.00092745 0 1 0
-0.00396023 0.02 -0.000968238 0 1 0
-0.00833167 0.02 -0.00279825 0 1 0
-0.00723851 0.02 -0.0019379 0 1 0
-0.00640061 0.02 -0.00747835 0 1 0
-0.00525629 0.02 -0.00649683 0 1 0
-0.00270915 0.02 -0.00295344 0 1 0
-0.00433621 0.02 -0.0048484 0 1 0
-0.00633798 0.02 -0.00627597 0 1 0
-0.00212675 0.02 -0.00188867 0 1 0
-0.0039557 0.02 -0.00335526 0 1 0
-0.00550851 0.02 -0.00489333 0 1 0
-0.00510308 0.02 -0.00351699 0 1 0
-0.00772196 0.02 -0.00513884 0 1 0
-0.00657743 0.02 -0.00522794 0 1 0
-0.00209723 0.02 -0.00570045 0 1 0
-0.00368251 0.02 -0.0081093 0 1 0
-0.00268317 0.02 -0.00723463 0 1 0
-0.00162263 0.02 -0.004067 0 1 0
-0.00387527 0.02 -0.0068649 0 1 0
-0.000969031 0.02 -0.00187571 0 1 0
-0.00145977 0.02 -0.00286165 0 1 0
-0.00492779 0.02 -0.00785953 0 1 0
-0.00360278 0.02 -0.00573974 0 1 0
-0.00287178 0.02 -0.0040785 0 1 0
-0.000210462 0.02 -0.00428828 0 1 0
-0.000717615 0.02 -0.00850842 0 1 0
-0.000930371 0.02 -0.00729758 0 1 0
-0.00173433 0.02 -0.0086974 0 1 0
-0.00125594 0.02 -0.0098737 0 1 0
-0.00100449 0.02 -0.00507371 0 1 0
-0.00320537 0.02 -0.00939267 0 1 0
0.00117628 0.02 -0.00512316 0 1 0
0.000824712 0.02 -0.00353187 0 1 0
0.0018497 0.02 -0.00885195 0 1 0
0.00104885 0.02 -0.00773443 0 1 0
0.00110049 0.02 -0.00637551 0 1 0
0.000107307 0.02 -0.00250482 0 1 0
5.47704e-05 0.02 -0.00146172 0 1 0
6.74443e-05 0.02 -0.00686572 0 1 0
0.000426367 0.02 -0.00930016 0 1 0
0.00474434 0.02 -0.00630991 0 1 0
0.00595735 0.02 -0.00790164 0 1 0
0.00195439 0.02 -0.00402479 0 1 0
0.0013347 0.02 -0.00215721 0 1 0
0.00354703 0.02 -0.0064729 0 1 0
0.00215947 0.02 -0.00576064 0 1 0
0.00356036 0.02 -0.00767358 0 1 0
0.00250957 0.02 -0.00704386 0 1 0
0.004064 0.02 -0.00873487 0 1 0
0.000842752 0.02 -0.000579973 0 1 0
0.00679657 0.02 -0.00533988 0 1 0
0.00498066 0.02 -0.00360287 0 1 0
0.00558782 0.02 -0.00463659 0 1 0
0.00254729 0.02 -0.0023869 0 1 0
0.0042178 0.02 -0.00522289 0 1 0
0.003664 0.02 -0.00416941 0 1 0
0.00613659 0.02 -0.00684925 0 1 0
0.00254642 0.02 -0.000851126 0 1 0
0.00707132 0.02 -0.00235199 0 1 0
0.00479762 0.02 -0.00205352 0 1 0
0.00821561 0.02 -0.0029185 0 1 0
0.00591116 0.02 -0.00281186 0 1 0
0.00914883 0.02 -0.00349185 0 1 0
0.006985 0.02 -0.00369204 0 1 0
0.0036411 0.02 -0.00216792 0 1 0
0.00761109 0.02 -0.00459003 0 1 0
0.00606144 0.02 7.99993e-05 0 1 0
0.00756126 0.02 0.000347738 0 1 0
0.00868019 0.02 0.000860934 0 1 0
0.00692992 0.02 -0.000646492 0 1 0
0.00974799 0.02 -0.000632766 0 1 0
0.00870004 0.02 -0.000244043 0 1 0
0.00890386 0.02 -0.00141896 0 1 0
0.00593857 0.02 -0.00116331 0 1 0
0.00374241 0.02 -0.000534539 0 1 0
0.00777191 0.02 0.00357935 0 1 0
0.00681823 0.02 0.00282795 0 1 0
0.00583314 0.02 0.00254105 0 1 0
0.00750956 0.02 0.00179981 0 1 0
0.00852111 0.02 0.00214499 0 1 0
0.00392171 0.02 0.00131208 0 1 0
0.00631992 0.02 0.00115434 0 1 0
0.00169947 0.02 0.00020106 0 1 0
0.0028527 0.02 0.000639037 0 1 0
0.00401001 0.02 0.00395938 0 1 0
0.00519173 0.02 0.00511337 0 1 0
0.00358974 0.02 0.00302373 0 1 0
0.00611068 0.02 0.00575521 0 1 0
0.00272168 0.02 0.00190102 0 1 0
0.00629397 0.02 0.00468712 0 1 0
0.00532453 0.02 0.00374289 0 1 0
0.00734857 0.02 0.00575309 0 1 0
0.00454459 0.02 0.00228441 0 1 0
0.00890705 0.02 0.00452192 0 1 0
0.00773802 0.02 0.00472005 0 1 0
0.00509805 0.02 0.00843959 0 1 0
0.00449433 0.02 0.00720521 0 1 0
0.00295971 0.02 0.00598657 0 1 0
0.00414102 0.02 0.00595368 0 1 0
0.00300559 0.02 0.00469438 0 1 0
0.000752921 0.02 0.000786504 0 1 0
0.0015187 0.02 0.00186137 0 1 0
0.00565517 0.02 0.00674058 0 1 0
0.00196926 0.02 0.0086923 0 1 0
0.00129233 0.02 0.00745058 0 1 0
0.00120024 0.02 0.00987024 0 1 0
0.000408355 0.02 0.00212165 0 1 0
0.000719857 0.02 0.00428751 0 1 0
0.00148554 0.02 0.0061725 0 1 0
0.00186654 0.02 0.004621 0 1 0
0.00301792 0.02 0.00828355 0 1 0
0.00151956 0.02 0.00319179 0 1 0
0.00343176 0.02 0.00720574 0 1 0
-0.000487293 0 0.00784738 0 -1 0
-8.04631e-05 0 0.00891311 0 -1 0
-0.000632341 0 0.0057216 0 -1 0
8.01541e-05 0 0.00471745 0 -1 0
0.000193591 0 0.00350797 0 -1 0
0.000161887 0 0.00656298 0 -1 0
0.00347333 0 0.00814359 0 -1 0
0.00204294 0 0.00546195 0 -1 0
0.00225939 0 0.00958946 0 -1 0
0.0023557 0 0.00735292 0 -1 0
0.00117435 0 0.00419498 0 -1 0
0.000651964 0 0.00235224 0 -1 0
0.0011827 0 0.00707233 0 -1 0
0.000954 0 0.00558815 0 -1 0
0.00158531 0 0.00834362 0 -1 0
0.00587658 0 0.00587988 0 -1 0
0.00351811 0 0.00436349 0 -1 0
0.00488286 0 0.00498801 0 -1 0
0.00457812 0 0.00681676 0 -1 0
0.00250869 0 0.003533 0 -1 0
0.00561328 0 0.00739834 0 -1 0
0.0015191 0 0.00310436 0 -1 0
0.00354595 0 0.0069843 0 -1 0
0.00327784 0 0.00581702 0 -1 0
0.000564097 0 0.00107834 0 -1 0
0.00817494 0 0.00466329 0 -1 0
0.00705973 0 0.00407557 0 -1 0
0.00174087 0 0.000935331 0 -1 0
0.00524305 0 0.00271673 0 -1 0
0.0069885 0 0.00526367 0 -1 0
0.00597293 0 0.00435361 0 -1 0
0.00448672 0 0.0036949 0 -1 0
0.00286433 0 0.002339 0 -1 0
0.00970392 0 0.00207898 0 -1 0
0.00394806 0 0.00081242 0 -1 0
0.0076754 0 0.00171344 0 -1 0
0.00535966 0 0.000861552 0 -1 0
0.00639057 0 0.00152025 0 -1 0
0.00862418 0 0.00247492 0 -1 0
0.00639308 0 0.00306587 0 -1 0
0.00757206 0 0.00303459 0 -1 0
0.00284675 0 0.00122846 0 -1 0
0.00419824 0 0.00200701 0 -1 0
0.00666564 0 -0.000832919 0 -1 0
0.000685546 0 -0.000103862 0 -1 0
0.00504781 0 -0.000573701 0 -1 0
0.00785282 0 -0.000907619 0 -1 0
0.00303586 0 -0.000110554 0 -1 0
0.00863492 0 -0.000184884 0 -1 0
0.00994373 0 -0.000501854 0 -1 0
0.00770776 0 0.000520905 0 -1 0
0.00644506 0 0.000435926 0 -1 0
0.00941662 0 0.00103383 0 -1 0
0.00284569 0 -0.00176281 0 -1 0
0.00804282 0 -0.00477655 0 -1 0
0.00552114 0 -0.0032173 0 -1 0
0.0073891 0 -0.0034747 0 -1 0
0.00740705 0 -0.00228071 0 -1 0
0.00402757 0 -0.00114081 0 -1 0
0.00190612 0 -0.000515276 0 -1 0
0.00593006 0 -0.00154683 0 -1 0
0.00956551 0 -0.00246962 0 -1 0
0.0085026 0 -0.00196585 0 -1 0
0.0025499 0 -0.00303447 0 -1 0
0.00364496 0 -0.00406444 0 -1 0
0.00474789 0 -0.00569608 0 -1 0
0.00484577 0 -0.00404858 0 -1 0
0.00580069 0 -0.00569411 0 -1 0
0.00672347 0 -0.00626052 0 -1 0
0.00580431 0 -0.00452124 0 -1 0
0.00412454 0 -0.00282743 0 -1 0
0.00684943 0 -0.00470241 0 -1 0
0.0030843 0 -0.00730697 0 -1 0
0.00380103 0 -0.00816561 0 -1 0
0.00134187 0 -0.00371154 0 -1 0
0.00236309 0 -0.00637431 0 -1 0
0.0023984 0 -0.00441488 0 -1 0
0.00142195 0 -0.00260825 0 -1 0
0.00404222 0 -0.00666342 0 -1 0
0.000807012 0 -0.00149054 0 -1 0
0.00341901 0 -0.00550047 0 -1 0
0.00528125 0 -0.00673893 0 -1 0
0.00553625 0 -0.00808806 0 -1 0
0.00032098 0 -0.00900819 0 -1 0
0.000282211 0 -0.00649009 0 -1 0
0.00106638 0 -0.00729428 0 -1 0
0.00156291 0 -0.0085562 0 -1 0
0.000977991 0 -0.0053986 0 -1 0
-0.00262539 0 -0.00818928 0 -1 0
-0.00161061 0 -0.00664132 0 -1 0
-0.00168051 0 -0.00534347 0 -1 0
-0.00102118 0 -0.00878645 0 -1 0
-0.00091051 0 -0.00765941 0 -1 0
-0.000663649 0 -0.0043906 0 -1 0
-0.000328312 0 -0.00550227 0 -1 0
-0.000107845 0 -0.00334465 0 -1 0
-0.00016409 0 -0.0022157 0 -1 0
-0.00488009 0 -0.00745685 0 -1 0
-0.00405292 0 -0.00673597 0 -1 0
-0.00313489 0 -0.00558507 0 -1 0
-0.00132818 0 -0.00230075 0 -1 0
-0.00296855 0 -0.00704933 0 -1 0
-0.00170962 0 -0.00368152 0 -1 0
-0.00363243 0 -0.0091432 0 -1 0
-0.00512886 0 -0.00361335 0 -1 0
-0.00698671 0 -0.00520494 0 -1 0
-0.00384995 0 -0.00297012 0 -1 0
-0.00287322 0 -0.00231619 0 -1 0
-0.00553409 0 -0.00522154 0 -1 0
-0.00106347 0 -0.00103931 0 -1 0
-0.00602597 0 -0.00713714 0 -1 0
-0.00346166 0 -0.00420285 0 -1 0
-0.00451801 0 -0.00501393 0 -1 0
-0.00770149 0 -0.00257192 0 -1 0
-0.00601569 0 -0.00182093 0 -1 0
-0.00488478 0 -0.0022641 0 -1 0
-0.00395699 0 -0.00154955 0 -1 0
-0.00646672 0 -0.00279423 0 -1 0
-0.00212206 0 -0.00121246 0 -1 0
-0.00645879 0 -0.00402281 0 -1 0
-0.00776941 0 -0.00412368 0 -1 0
-0.00527541 0 0.000198691 0 -1 0
-0.00409505 0 -0.000104109 0 -1 0
-0.00672981 0 -0.000248132 0 -1 0
-0.00778556 0 -0.000493263 0 -1 0
-0.00886154 0 -0.000123903 0 -1 0
-0.00876249 0 -0.00197046 0 -1 0
-0.00508883 0 -0.000989401 0 -1 0
-0.00714241 0 -0.00141899 0 -1 0
-0.00308138 0 -0.000604448 0 -1 0
-0.00777714 0 0.00311393 0 -1 0
-0.00874035 0 0.0036092 0 -1 0
-0.0066434 0 0.00204953 0 -1 0
-0.0026814 0 0.000702404 0 -1 0
-0.00380919 0 0.00121396 0 -1 0
-0.00862515 0 0.00241239 0 -1 0
-0.00533063 0 0.00130148 0 -1 0
-0.00629694 0 0.000771245 0 -1 0
-0.00775034 0 0.00154759 0 -1 0
-0.00898475 0 0.00134131 0 -1 0
-0.00112438 0 0.000203518 0 -1 0
-0.00481489 0 0.0041206 0 -1 0
-0.00396008 0 0.0034758 0 -1 0
-0.00579905 0 0.00502885 0 -1 0
-0.00705254 0 0.00688024 0 -1 0
-0.00195999 0 0.0015418 0 -1 0
-0.0035953 0 0.00230449 0 -1 0
-0.006906 0 0.00544192 0 -1 0
-0.00646696 0 0.00363872 0 -1 0
-0.00535329 0 0.00301202 0 -1 0
-0.00739043 0 0.00420541 0 -1 0
-0.00322552 0 0.00593957 0 -1 0
-0.00417642 0 0.00656552 0 -1 0
-0.000754757 0 0.00118981 0 -1 0
-0.00311664 0 0.00433864 0 -1 0
-0.00494583 0 0.00746322 0 -1 0
-0.00596136 0 0.00619934 0 -1 0
-0.00244176 0 0.00272364 0 -1 0
-0.00138534 0 0.00922778 0 -1 0
-0.00193198 0 0.00591098 0 -1 0
-0.00248236 0 0.0092701 0 -1 0
-0.00218889 0 0.00787866 0 -1 0
-0.00115841 0 0.00317449 0 -1 0
-0.0033642 0 0.00733482 0 -1 0
-0.00375293 0 0.00869705 0 -1 0
-0.00188581 0 0.00444956 0 -1 0
