ply
format ascii 1.0
comment Created by Open3D
element vertex 1000
property double x
property double y
property double z
property double nx
property double ny
property double nz
end_header
0.000560178 0.00280767 -0.00996854 0.0560699 0 -0.998427
0.0005221 0.00130034 -0.00997068 0.0560699 0 -0.998427
0.000487201 0.00606496 -0.00997264 0.0560699 0 -0.998427
0.000876755 0.0143907 -0.00995076 0.0560699 0 -0.998427
0.00171061 0.0187058 -0.00983671 0.167506 0 -0.985871
0.00116179 0.00733371 -0.00992996 0.167506 0 -0.985871
0.00130509 0.00396279 -0.00990561 0.167506 0 -0.985871
0.00178548 0.00226754 -0.00982399 0.167506 0 -0.985871
0.00221568 0.00963174 -0.0097509 0.167506 0 -0.985871
0.00214854 0.00668711 -0.00976231 0.167506 0 -0.985871
0.00222285 0.00827102 -0.00974968 0.167506 0 -0.985871
0.00219663 0.0131715 -0.00975413 0.167506 0 -0.985871
0.00166716 0.00560757 -0.0098441 0.167506 0 -0.985871
0.00258352 0.0166038 -0.00964605 0.276836 0 -0.960917
0.0024373 0.0153693 -0.00968818 0.276836 0 -0.960917
0.0022391 0.0113336 -0.00974528 0.276836 0 -0.960917
0.00261497 0.000359511 -0.00963699 0.276836 0 -0.960917
0.0029608 0.00487708 -0.00953736 0.276836 0 -0.960917
0.00274059 0.00318754 -0.0096008 0.276836 0 -0.960917
0.00288438 0.00165262 -0.00955938 0.276836 0 -0.960917
0.00351076 0.00931032 -0.00935269 0.382683 0 -0.92388
0.00361668 0.0156708 -0.00930882 0.382683 0 -0.92388
0.0036899 0.0080272 -0.00927849 0.382683 0 -0.92388
0.00372386 0.0176998 -0.00926442 0.382683 0 -0.92388
0.00334216 0.0190417 -0.00942253 0.382683 0 -0.92388
0.00392514 0.0137221 -0.00918105 0.382683 0 -0.92388
0.0033703 0.00612428 -0.00941087 0.382683 0 -0.92388
0.00358714 0.0115698 -0.00932105 0.382683 0 -0.92388
0.00411852 0.0103868 -0.00910095 0.382683 0 -0.92388
0.00424752 0.00522309 -0.00904751 0.382683 0 -0.92388
0.00422674 0.00400104 -0.00905612 0.382683 0 -0.92388
0.00391257 0.00275136 -0.00918625 0.382683 0 -0.92388
0.00478278 0.0114346 -0.00876433 0.483719 0 -0.875223
0.00465818 0.0166223 -0.0088332 0.483719 0 -0.875223
0.00445583 0.0188484 -0.00894503 0.483719 0 -0.875223
0.00477343 0.0148845 -0.0087695 0.483719 0 -0.875223
0.00471629 0.0127761 -0.00880108 0.483719 0 -0.875223
0.00470607 0.00730897 -0.00880672 0.483719 0 -0.875223
0.00529762 0.0138222 -0.00847979 0.483719 0 -0.875223
0.00491839 0.00857969 -0.00868938 0.483719 0 -0.875223
0.00510901 0.00119359 -0.00858403 0.483719 0 -0.875223
0.00585582 0.0120436 -0.00808729 0.578671 0 -0.815561
0.00534466 0.00585875 -0.00844998 0.578671 0 -0.815561
0.00577006 0.0156668 -0.00814814 0.578671 0 -0.815561
0.00589798 0.0175057 -0.00805737 0.578671 0 -0.815561
0.0056182 0.0186109 -0.00825589 0.578671 0 -0.815561
0.00598911 0.0106025 -0.00799271 0.578671 0 -0.815561
0.00584177 0.00780462 -0.00809726 0.578671 0 -0.815561
0.00622707 0.00167589 -0.00782387 0.578671 0 -0.815561
0.00559604 0.00421607 -0.00827161 0.578671 0 -0.815561
0.00591829 0.0030372 -0.00804296 0.578671 0 -0.815561
0.00608294 0.0092127 -0.00792614 0.578671 0 -0.815561
0.00674951 0.0144567 -0.00735843 0.666347 0 -0.745642
0.00630169 0.00646137 -0.00775863 0.666347 0 -0.745642
0.00637777 0.0131758 -0.00769064 0.666347 0 -0.745642
0.00672205 0.0194532 -0.00738296 0.666347 0 -0.745642
0.00689137 0.0166622 -0.00723165 0.666347 0 -0.745642
0.00692004 0.00798013 -0.00720604 0.666347 0 -0.745642
0.00703246 0.010164 -0.00710557 0.666347 0 -0.745642
0.00685714 0.00426654 -0.00726225 0.666347 0 -0.745642
0.00704864 0.000832494 -0.00709111 0.666347 0 -0.745642
0.00693739 0.00272528 -0.00719053 0.666347 0 -0.745642
0.00770363 0.0186886 -0.00636323 0.745642 0 -0.666347
0.00707321 0.0118084 -0.00706867 0.745642 0 -0.666347
0.00759029 0.015377 -0.00649005 0.745642 0 -0.666347
0.0076995 0.0108081 -0.00636786 0.745642 0 -0.666347
0.00777684 0.0172253 -0.00628131 0.745642 0 -0.666347
0.00779753 0.00321128 -0.00625816 0.745642 0 -0.666347
0.00787634 0.00732493 -0.00615312 0.815561 0 -0.578671
0.00836088 0.0178209 -0.00547022 0.815561 0 -0.578671
0.00784447 0.00604918 -0.00619804 0.815561 0 -0.578671
0.00786018 0.012742 -0.0061759 0.815561 0 -0.578671
0.00788024 0.00896561 -0.00614763 0.815561 0 -0.578671
0.00805398 0.0198929 -0.00590276 0.815561 0 -0.578671
0.00784169 0.0139067 -0.00620196 0.815561 0 -0.578671
0.00803363 0.00142967 -0.00593143 0.815561 0 -0.578671
0.00840699 0.000175336 -0.00540524 0.815561 0 -0.578671
0.00843354 0.0028713 -0.00536782 0.815561 0 -0.578671
0.0084234 0.0163747 -0.00538211 0.815561 0 -0.578671
0.00834046 0.00433848 -0.005499 0.815561 0 -0.578671
0.00850171 0.0104433 -0.00525796 0.875223 0 -0.483719
0.00892432 0.0197773 -0.0044933 0.875223 0 -0.483719
0.0085477 0.00572219 -0.00517474 0.875223 0 -0.483719
0.00867396 0.00894255 -0.00494629 0.875223 0 -0.483719
0.00868283 0.0139099 -0.00493024 0.875223 0 -0.483719
0.00872921 0.0074084 -0.00484633 0.875223 0 -0.483719
0.00872835 0.00159484 -0.00484788 0.875223 0 -0.483719
0.00893649 0.0125864 -0.00447129 0.875223 0 -0.483719
0.00940299 0.0190533 -0.00338932 0.92388 0 -0.382683
0.00905766 0.0110183 -0.00422302 0.92388 0 -0.382683
0.00904359 0.0174104 -0.00425699 0.92388 0 -0.382683
0.00911933 0.0059712 -0.00407413 0.92388 0 -0.382683
0.00917678 0.0150454 -0.00393545 0.92388 0 -0.382683
0.00940077 0.0118615 -0.00339469 0.92388 0 -0.382683
0.00917742 0.000548044 -0.00393389 0.92388 0 -0.382683
0.0092949 0.00843365 -0.00365028 0.92388 0 -0.382683
0.00913408 0.00450434 -0.00403852 0.92388 0 -0.382683
0.0093233 0.00266317 -0.00358172 0.92388 0 -0.382683
0.00953047 0.0133609 -0.00298472 0.960917 0 -0.276836
0.00952009 0.0170106 -0.00302076 0.960917 0 -0.276836
0.00950818 0.00656345 -0.00306209 0.960917 0 -0.276836
0.00968743 0.00965474 -0.00243988 0.960917 0 -0.276836
0.00966478 0.00785553 -0.0025185 0.960917 0 -0.276836
0.00973242 0.00235712 -0.00228375 0.960917 0 -0.276836
0.00953277 0.00525531 -0.00297673 0.960917 0 -0.276836
0.00970898 0.00370156 -0.0023651 0.960917 0 -0.276836
0.00974253 0.018537 -0.00224864 0.960917 0 -0.276836
0.00981437 0.0112522 -0.00184209 0.985871 0 -0.167506
0.00984839 0.0197297 -0.00164191 0.985871 0 -0.167506
0.00984379 0.0139845 -0.00166894 0.985871 0 -0.167506
0.0099359 0.00174895 -0.00112686 0.985871 0 -0.167506
0.0099235 0.0125335 -0.00119981 0.985871 0 -0.167506
0.00988244 0.00708526 -0.00144146 0.985871 0 -0.167506
0.00992384 0.00841336 -0.00119784 0.985871 0 -0.167506
0.00990991 0.00972181 -0.00127979 0.985871 0 -0.167506
0.00983308 0.000657149 -0.00173199 0.985871 0 -0.167506
0.00994431 0.00502903 -0.00099174 0.998427 0 -0.0560699
0.00994707 0.0183813 -0.000942516 0.998427 0 -0.0560699
0.00998244 0.0198309 -0.000312751 0.998427 0 -0.0560699
0.00994235 0.0155773 -0.00102664 0.998427 0 -0.0560699
0.00996533 0.0169834 -0.000617311 0.998427 0 -0.0560699
0.00999584 0.00597758 -7.40446e-05 0.998427 0 -0.0560699
0.00997652 0.000709638 -0.000418141 0.998427 0 -0.0560699
0.00998088 0.00278998 -0.000340496 0.998427 0 -0.0560699
0.00997441 0.0113125 -0.000455589 0.998427 0 -0.0560699
0.00998719 0.013713 -0.000228017 0.998427 0 -0.0560699
0.00999417 0.00410559 0.000103752 0.998427 0 0.0560699
0.00994256 0.0192255 0.00102283 0.998427 0 0.0560699
0.00998366 0.00902295 0.000290912 0.998427 0 0.0560699
0.00999642 0.0124716 6.36669e-05 0.998427 0 0.0560699
0.00994482 0.0172333 0.000982603 0.998427 0 0.0560699
0.00994255 0.00123649 0.00102297 0.998427 0 0.0560699
0.00994095 0.0103382 0.00105148 0.998427 0 0.0560699
0.00994662 0.00538492 0.000950593 0.998427 0 0.0560699
0.00987836 0.0132931 0.0014655 0.985871 0 0.167506
0.00992892 0.0152059 0.00116792 0.985871 0 0.167506
0.00993127 0.00798048 0.00115409 0.985871 0 0.167506
0.00984513 0.00668291 0.00166106 0.985871 0 0.167506
0.00986856 0.00237658 0.0015232 0.985871 0 0.167506
0.00976364 0.00956604 0.00214069 0.985871 0 0.167506
0.00981051 0.00388618 0.00186483 0.985871 0 0.167506
0.0097571 0.00554637 0.00217918 0.985871 0 0.167506
0.00972238 0.0113838 0.00231857 0.960917 0 0.276836
0.00965275 0.00795518 0.00256026 0.960917 0 0.276836
0.00967438 0.013918 0.00248518 0.960917 0 0.276836
0.00974748 0.000354274 0.00223144 0.960917 0 0.276836
0.00971433 0.0196895 0.00234654 0.960917 0 0.276836
0.00972208 0.0170395 0.00231962 0.960917 0 0.276836
0.00960229 0.00161232 0.0027354 0.960917 0 0.276836
0.00947535 0.012713 0.00317603 0.960917 0 0.276836
0.00945715 0.00904842 0.00323921 0.960917 0 0.276836
0.00951708 0.00434948 0.00303118 0.960917 0 0.276836
0.00933564 0.0172255 0.00355192 0.92388 0 0.382683
0.00934089 0.0194987 0.00353926 0.92388 0 0.382683
0.00923951 0.0159086 0.003784 0.92388 0 0.382683
0.00931509 0.0115797 0.00360154 0.92388 0 0.382683
0.00934948 0.00598318 0.00351852 0.92388 0 0.382683
0.00905537 0.000941346 0.00422856 0.92388 0 0.382683
0.00911666 0.013792 0.00408058 0.92388 0 0.382683
0.00901075 0.00457923 0.00433627 0.92388 0 0.382683
0.00911079 0.00314081 0.00409476 0.92388 0 0.382683
0.0090469 0.00789357 0.00424901 0.92388 0 0.382683
0.00894595 0.00959307 0.00445417 0.875223 0 0.483719
0.0088122 0.0181968 0.00469616 0.875223 0 0.483719
0.00877497 0.0110726 0.00476353 0.875223 0 0.483719
0.00894576 0.0123306 0.00445451 0.875223 0 0.483719
0.0085659 0.0142502 0.00514181 0.875223 0 0.483719
0.00873686 0.00652101 0.00483248 0.875223 0 0.483719
0.00854423 0.00183645 0.00518102 0.875223 0 0.483719
0.00828776 0.00861383 0.00557328 0.815561 0 0.578671
0.00844811 0.0171479 0.00534728 0.815561 0 0.578671
0.00806253 0.0154239 0.0058907 0.815561 0 0.578671
0.00822352 0.0129123 0.00566382 0.815561 0 0.578671
0.00823734 0.00981151 0.00564433 0.815561 0 0.578671
0.00846068 0.00372951 0.00532956 0.815561 0 0.578671
0.00789622 0.017838 0.0061251 0.815561 0 0.578671
0.00828326 0.0050024 0.00557962 0.815561 0 0.578671
0.00788463 0.0139232 0.00614144 0.815561 0 0.578671
0.00820137 0.000758954 0.00569503 0.815561 0 0.578671
0.00785545 0.0117684 0.00618256 0.815561 0 0.578671
0.00794119 0.00260552 0.00606172 0.815561 0 0.578671
0.00804718 0.00717381 0.00591234 0.815561 0 0.578671
0.00754362 0.00836739 0.00654228 0.745642 0 0.666347
0.00742486 0.016466 0.00667518 0.745642 0 0.666347
0.00746146 0.0197209 0.00663422 0.745642 0 0.666347
0.00708698 0.00572703 0.00705326 0.745642 0 0.666347
0.00707586 0.0122272 0.0070657 0.745642 0 0.666347
0.0070883 0.0133816 0.00705179 0.745642 0 0.666347
0.00725422 0.0147877 0.00686612 0.745642 0 0.666347
0.00729512 0.00325368 0.00682035 0.745642 0 0.666347
0.00663515 0.0189218 0.00746062 0.666347 0 0.745642
0.00687448 0.0175892 0.00724675 0.666347 0 0.745642
0.00687053 0.00914115 0.00725028 0.666347 0 0.745642
0.0069309 0.0103959 0.00719633 0.666347 0 0.745642
0.00653455 0.00438837 0.00755053 0.666347 0 0.745642
0.00643424 8.0939e-05 0.00764017 0.666347 0 0.745642
0.00645341 0.00692341 0.00762304 0.666347 0 0.745642
0.00637153 0.011407 0.00769621 0.666347 0 0.745642
0.00621786 0.0166861 0.00783041 0.578671 0 0.815561
0.00590788 0.00960092 0.00805035 0.578671 0 0.815561
0.00577769 0.0142092 0.00814272 0.578671 0 0.815561
0.00590487 0.0154633 0.00805249 0.578671 0 0.815561
0.00584805 0.0196545 0.0080928 0.578671 0 0.815561
0.0053891 0.01125 0.00841844 0.578671 0 0.815561
0.00536534 0.00620743 0.0084353 0.578671 0 0.815561
0.00611583 0.00147146 0.0079028 0.578671 0 0.815561
0.00608784 0.00300787 0.00792266 0.578671 0 0.815561
0.00538771 0.0127013 0.00841943 0.578671 0 0.815561
0.00538311 0.0177746 0.00842269 0.578671 0 0.815561
0.00565693 0.00814512 0.00822841 0.578671 0 0.815561
0.0052059 0.00480545 0.00853048 0.483719 0 0.875223
0.00483611 0.0189388 0.00873485 0.483719 0 0.875223
0.00451212 0.015187 0.00891392 0.483719 0 0.875223
0.0045611 7.46938e-05 0.00888685 0.483719 0 0.875223
0.00441694 0.0166161 0.00896652 0.483719 0 0.875223
0.00502119 0.00351183 0.00863257 0.483719 0 0.875223
0.0044767 0.00233002 0.00893349 0.483719 0 0.875223
0.0046965 0.00755602 0.00881202 0.483719 0 0.875223
0.00511603 0.00125171 0.00858015 0.483719 0 0.875223
0.00479587 0.00903397 0.00875709 0.483719 0 0.875223
0.00411253 0.017909 0.00910343 0.382683 0 0.92388
0.00375243 0.0120478 0.00925259 0.382683 0 0.92388
0.00343702 0.0189156 0.00938323 0.382683 0 0.92388
0.00382347 0.0138124 0.00922316 0.382683 0 0.92388
0.00338343 0.000851053 0.00940543 0.382683 0 0.92388
0.00361136 0.00497428 0.00931102 0.382683 0 0.92388
0.00363078 0.0106253 0.00930297 0.382683 0 0.92388
0.00358331 0.00917702 0.00932264 0.382683 0 0.92388
0.00334806 0.0030086 0.00942008 0.382683 0 0.92388
0.00307541 0.00689677 0.00950434 0.276836 0 0.960917
0.00268977 0.0165415 0.00961544 0.276836 0 0.960917
0.00281472 0.0178888 0.00957944 0.276836 0 0.960917
0.0027013 0.0199302 0.00961212 0.276836 0 0.960917
0.00262191 0.00857058 0.00963499 0.276836 0 0.960917
0.00238052 0.00434058 0.00970454 0.276836 0 0.960917
0.00223854 0.00583728 0.00974544 0.276836 0 0.960917
0.00248274 0.0145773 0.00967509 0.276836 0 0.960917
0.00258653 0.0130747 0.00964518 0.276836 0 0.960917
0.00152648 0.0152587 0.009868 0.167506 0 0.985871
0.00187806 0.018699 0.00980826 0.167506 0 0.985871
0.00154379 0.0174215 0.00986506 0.167506 0 0.985871
0.0021652 0.0104037 0.00975948 0.167506 0 0.985871
0.001432 0.00678601 0.00988405 0.167506 0 0.985871
0.00201039 0.00293816 0.00978578 0.167506 0 0.985871
0.0014108 0.00829723 0.00988765 0.167506 0 0.985871
0.00131987 0.00139945 0.0099031 0.167506 0 0.985871
0.000237206 0.0195473 0.00998668 0.0560699 0 0.998427
0.000338919 0.0146072 0.00998097 0.0560699 0 0.998427
0.000778965 0.0112444 0.00995625 0.0560699 0 0.998427
0.00027593 0.0172732 0.0099845 0.0560699 0 0.998427
0.000953463 0.00945739 0.00994645 0.0560699 0 0.998427
0.000746458 0.0126645 0.00995808 0.0560699 0 0.998427
0.000807755 0.00543084 0.00995464 0.0560699 0 0.998427
0.000437323 0.00743923 0.00997544 0.0560699 0 0.998427
0.000819941 0.00424135 0.00995395 0.0560699 0 0.998427
0.000269668 6.5414e-05 0.00998486 0.0560699 0 0.998427
-6.55431e-05 0.0087483 0.00999632 -0.0560699 0 0.998427
-0.000105705 0.010123 0.00999406 -0.0560699 0 0.998427
-0.000870634 0.0185994 0.00995111 -0.0560699 0 0.998427
-0.000342881 0.0118862 0.00998074 -0.0560699 0 0.998427
-0.000771106 0.016254 0.0099567 -0.0560699 0 0.998427
-0.00110947 0.00561587 0.00993769 -0.0560699 0 0.998427
-0.000843795 0.0131661 0.00995261 -0.0560699 0 0.998427
-0.000435192 0.00435654 0.00997556 -0.0560699 0 0.998427
-0.000926607 0.000497958 0.00994796 -0.0560699 0 0.998427
-0.000782369 0.00689273 0.00995606 -0.0560699 0 0.998427
-0.000486884 0.00291849 0.00997266 -0.0560699 0 0.998427
-0.0013781 0.00938784 0.00989321 -0.167506 0 0.985871
-0.00149423 0.0107074 0.00987348 -0.167506 0 0.985871
-0.00130614 0.0146762 0.00990544 -0.167506 0 0.985871
-0.00222247 0.0160678 0.00974974 -0.167506 0 0.985871
-0.001725 0.00409789 0.00983427 -0.167506 0 0.985871
-0.00208218 0.00751699 0.00977358 -0.167506 0 0.985871
-0.001705 0.00289926 0.00983767 -0.167506 0 0.985871
-0.00226909 0.00635498 0.00973664 -0.276836 0 0.960917
-0.00238632 0.012574 0.00970286 -0.276836 0 0.960917
-0.00227712 0.00121936 0.00973432 -0.276836 0 0.960917
-0.00252286 0.0187609 0.00966353 -0.276836 0 0.960917
-0.00249457 0.0139594 0.00967168 -0.276836 0 0.960917
-0.00256794 0.017214 0.00965054 -0.276836 0 0.960917
-0.00311859 0.00556817 0.0094919 -0.276836 0 0.960917
-0.00317936 0.0109983 0.00947439 -0.276836 0 0.960917
-0.00307507 0.00303759 0.00950444 -0.276836 0 0.960917
-0.00325922 0.00434903 0.00945138 -0.276836 0 0.960917
-0.00279757 0.00861635 0.00958439 -0.276836 0 0.960917
-0.00369335 0.0176512 0.00927706 -0.382683 0 0.92388
-0.00374394 0.0191437 0.0092561 -0.382683 0 0.92388
-0.00367688 0.0124784 0.00928388 -0.382683 0 0.92388
-0.00344045 0.00726572 0.00938181 -0.382683 0 0.92388
-0.00346472 0.0156879 0.00937176 -0.382683 0 0.92388
-0.00391623 0.00958597 0.00918474 -0.382683 0 0.92388
-0.0042528 0.003237 0.00904533 -0.382683 0 0.92388
-0.0043358 0.0135039 0.00901095 -0.382683 0 0.92388
-0.00412774 0.000869309 0.00909713 -0.382683 0 0.92388
-0.00429952 0.00501318 0.00902597 -0.382683 0 0.92388
-0.00475754 0.0121725 0.00877828 -0.483719 0 0.875223
-0.00453176 0.0146932 0.00890306 -0.483719 0 0.875223
-0.00443851 0.00806508 0.0089546 -0.483719 0 0.875223
-0.00477291 0.0172037 0.00876978 -0.483719 0 0.875223
-0.00474293 0.00628683 0.00878635 -0.483719 0 0.875223
-0.00503614 0.00208458 0.0086243 -0.483719 0 0.875223
-0.00529326 0.00407391 0.0084822 -0.483719 0 0.875223
-0.00524809 0.0156949 0.00850716 -0.483719 0 0.875223
-0.00494584 2.21298e-05 0.00867421 -0.483719 0 0.875223
-0.00506272 0.0103221 0.00860961 -0.483719 0 0.875223
-0.00540907 0.00545336 0.00840427 -0.578671 0 0.815561
-0.0057119 0.0115973 0.0081894 -0.578671 0 0.815561
-0.00541761 0.0187614 0.00839821 -0.578671 0 0.815561
-0.00557586 0.00789773 0.00828593 -0.578671 0 0.815561
-0.00561436 0.0135676 0.00825861 -0.578671 0 0.815561
-0.00594288 0.0167647 0.00802551 -0.578671 0 0.815561
-0.00612187 0.00998545 0.00789851 -0.578671 0 0.815561
-0.00612098 0.00326054 0.00789915 -0.578671 0 0.815561
-0.00630611 0.00870819 0.00775467 -0.666347 0 0.745642
-0.00653115 0.00719543 0.00755357 -0.666347 0 0.745642
-0.00681133 0.016022 0.00730318 -0.666347 0 0.745642
-0.00675798 0.0134905 0.00735086 -0.666347 0 0.745642
-0.00627293 0.0148991 0.00778433 -0.666347 0 0.745642
-0.00647129 0.0188118 0.00760706 -0.666347 0 0.745642
-0.00682473 0.00578454 0.00729121 -0.666347 0 0.745642
-0.00673011 0.011017 0.00737577 -0.666347 0 0.745642
-0.00685592 0.0040372 0.00726334 -0.666347 0 0.745642
-0.00679037 0.00181869 0.00732192 -0.666347 0 0.745642
-0.00732594 0.00804737 0.00678586 -0.745642 0 0.666347
-0.00746011 0.01532 0.00663573 -0.745642 0 0.666347
-0.00735957 0.00995641 0.00674823 -0.745642 0 0.666347
-0.00710693 0.0122156 0.00703093 -0.745642 0 0.666347
-0.00716488 0.0180893 0.00696609 -0.745642 0 0.666347
-0.00778899 0.00669019 0.00626771 -0.745642 0 0.666347
-0.00759173 0.00483412 0.00648845 -0.745642 0 0.666347
-0.00718579 0.00293441 0.00694269 -0.745642 0 0.666347
-0.00771496 0.00155749 0.00635055 -0.745642 0 0.666347
-0.00762467 0.0139454 0.00645159 -0.745642 0 0.666347
-0.00791015 0.0110405 0.00610547 -0.815561 0 0.578671
-0.00803311 0.0198324 0.00593218 -0.815561 0 0.578671
-0.00790122 0.00886508 0.00611806 -0.815561 0 0.578671
-0.00829145 0.0185908 0.00556807 -0.815561 0 0.578671
-0.00799328 0.0163401 0.00598831 -0.815561 0 0.578671
-0.00840116 0.00547614 0.00541345 -0.815561 0 0.578671
-0.0081474 0.000232865 0.00577109 -0.815561 0 0.578671
-0.00826196 0.0076843 0.00560964 -0.815561 0 0.578671
-0.00832767 0.0147581 0.00551703 -0.815561 0 0.578671
-0.00826699 0.00328969 0.00560255 -0.815561 0 0.578671
-0.0087335 0.0176144 0.00483857 -0.875223 0 0.483719
-0.00870704 0.0135792 0.00488644 -0.875223 0 0.483719
-0.00863249 0.0158009 0.00502133 -0.875223 0 0.483719
-0.00856394 0.0122814 0.00514536 -0.875223 0 0.483719
-0.0084999 0.00161777 0.00526123 -0.875223 0 0.483719
-0.00882493 0.000217716 0.00467313 -0.875223 0 0.483719
-0.00877887 0.00925357 0.00475647 -0.875223 0 0.483719
-0.00900555 0.00788275 0.00434632 -0.875223 0 0.483719
-0.00877521 0.00415322 0.00476309 -0.875223 0 0.483719
-0.00915392 0.0146581 0.00399064 -0.92388 0 0.382683
-0.00922946 0.0104425 0.00380827 -0.92388 0 0.382683
-0.00912085 0.0163929 0.00407047 -0.92388 0 0.382683
-0.00910963 0.0116744 0.00409756 -0.92388 0 0.382683
-0.00912519 0.0185602 0.00405999 -0.92388 0 0.382683
-0.00926994 0.00134922 0.00371053 -0.92388 0 0.382683
-0.00940436 0.0128154 0.00338602 -0.92388 0 0.382683
-0.00943084 0.0175145 0.00332209 -0.92388 0 0.382683
-0.00913683 0.0031598 0.00403189 -0.92388 0 0.382683
-0.00914899 0.00567036 0.00400254 -0.92388 0 0.382683
-0.00956332 0.0155165 0.0028707 -0.960917 0 0.276836
-0.00958921 0.0138181 0.00278083 -0.960917 0 0.276836
-0.00953933 0.011397 0.00295396 -0.960917 0 0.276836
-0.00946162 0.00934903 0.0032237 -0.960917 0 0.276836
-0.00964142 0.0186694 0.0025996 -0.960917 0 0.276836
-0.00973744 0.0166853 0.0022663 -0.960917 0 0.276836
-0.00960405 0.00363432 0.00272932 -0.960917 0 0.276836
-0.00956057 0.00778619 0.00288023 -0.960917 0 0.276836
-0.00965012 0.00582607 0.0025694 -0.960917 0 0.276836
-0.00962297 0.00176695 0.00266364 -0.960917 0 0.276836
-0.00981857 0.00850252 0.00181738 -0.985871 0 0.167506
-0.00979991 0.0100589 0.00192719 -0.985871 0 0.167506
-0.00976097 0.0123481 0.00215638 -0.985871 0 0.167506
-0.00981236 0.00686802 0.00185394 -0.985871 0 0.167506
-0.0099099 0.0184176 0.00127986 -0.985871 0 0.167506
-0.00993313 0.0109542 0.00114313 -0.985871 0 0.167506
-0.00991651 0.0143907 0.00124099 -0.985871 0 0.167506
-0.00992623 0.0156164 0.00118377 -0.985871 0 0.167506
-0.0098474 0.00286311 0.0016477 -0.985871 0 0.167506
-0.00989114 0.00545672 0.00139029 -0.985871 0 0.167506
-0.00996008 0.0199598 0.000710795 -0.998427 0 0.0560699
-0.00995348 0.00768231 0.000828329 -0.998427 0 0.0560699
-0.00994687 0.0173007 0.000946009 -0.998427 0 0.0560699
-0.00995519 0.0121314 0.000797831 -0.998427 0 0.0560699
-0.00995596 0.004419 0.000784285 -0.998427 0 0.0560699
-0.00997489 0.00991048 0.000447188 -0.998427 0 0.0560699
-0.00998836 0.00108363 0.000207303 -0.998427 0 0.0560699
-0.00996897 0.00650686 0.000552455 -0.998427 0 0.0560699
-0.00998915 0.018976 -0.000193114 -0.998427 0 -0.0560699
-0.00996626 0.0155176 -0.000600881 -0.998427 0 -0.0560699
-0.00999184 0.0143121 -0.000145265 -0.998427 0 -0.0560699
-0.00997122 0.0127955 -0.000512415 -0.998427 0 -0.0560699
-0.00997701 0.0175331 -0.000409451 -0.998427 0 -0.0560699
-0.00998446 0.0111911 -0.00027668 -0.998427 0 -0.0560699
-0.00998778 0.00557808 -0.00021758 -0.998427 0 -0.0560699
-0.00997055 0.00232401 -0.00052447 -0.998427 0 -0.0560699
-0.00996484 0.00688387 -0.000626012 -0.998427 0 -0.0560699
-0.00996287 0.00835492 -0.000661217 -0.998427 0 -0.0560699
-0.0099634 0.00387962 -0.000651803 -0.998427 0 -0.0560699
-0.00980778 0.0171402 -0.00188089 -0.985871 0 -0.167506
-0.0098683 0.0111741 -0.00152468 -0.985871 0 -0.167506
-0.00991744 0.00973947 -0.00123548 -0.985871 0 -0.167506
-0.0099097 0.0137613 -0.00128107 -0.985871 0 -0.167506
-0.00983498 0.0157343 -0.00172078 -0.985871 0 -0.167506
-0.00984663 0.0189211 -0.00165222 -0.985871 0 -0.167506
-0.00982659 0.00321944 -0.00177017 -0.985871 0 -0.167506
-0.00977751 0.00882965 -0.00205908 -0.985871 0 -0.167506
-0.00978872 0.00202205 -0.0019931 -0.985871 0 -0.167506
-0.00984904 0.0047417 -0.00163804 -0.985871 0 -0.167506
-0.00967518 0.0132087 -0.0024824 -0.960917 0 -0.276836
-0.00963147 0.0181882 -0.00263412 -0.960917 0 -0.276836
-0.0096077 0.014798 -0.00271663 -0.960917 0 -0.276836
-0.00958641 0.019381 -0.00279053 -0.960917 0 -0.276836
-0.00962782 0.0105384 -0.00264682 -0.960917 0 -0.276836
-0.00947218 0.0162283 -0.00318705 -0.960917 0 -0.276836
-0.00955076 0.0119455 -0.00291428 -0.960917 0 -0.276836
-0.00956486 0.00455239 -0.00286535 -0.960917 0 -0.276836
-0.00948972 0.00317276 -0.00312615 -0.960917 0 -0.276836
-0.00961654 0.00591153 -0.00268596 -0.960917 0 -0.276836
-0.00955787 0.001317 -0.0028896 -0.960917 0 -0.276836
-0.00950776 0.0071213 -0.00306355 -0.960917 0 -0.276836
-0.00931948 0.0130767 -0.00359093 -0.92388 0 -0.382683
-0.00925564 0.0097974 -0.00374507 -0.92388 0 -0.382683
-0.00935918 0.00855927 -0.00349508 -0.92388 0 -0.382683
-0.00907766 0.0075472 -0.00417473 -0.92388 0 -0.382683
-0.00904939 0.0174824 -0.00424299 -0.92388 0 -0.382683
-0.00877208 0.01619 -0.00476876 -0.875223 0 -0.483719
-0.00870377 0.0146688 -0.00489236 -0.875223 0 -0.483719
-0.00877843 0.0186541 -0.00475726 -0.875223 0 -0.483719
-0.00898791 0.0046322 -0.00437823 -0.875223 0 -0.483719
-0.00888951 0.0061949 -0.00455628 -0.875223 0 -0.483719
-0.00879176 0.0133545 -0.00473316 -0.875223 0 -0.483719
-0.00854023 0.0199806 -0.00518826 -0.875223 0 -0.483719
-0.0088106 0.0119463 -0.00469906 -0.875223 0 -0.483719
-0.00890631 0.00141311 -0.00452589 -0.875223 0 -0.483719
-0.00862541 0.00262873 -0.00503414 -0.875223 0 -0.483719
-0.00884832 1.12979e-05 -0.00463082 -0.875223 0 -0.483719
-0.00872408 0.0085943 -0.00485561 -0.875223 0 -0.483719
-0.00800241 0.0150584 -0.00597543 -0.815561 0 -0.578671
-0.00839668 0.00408525 -0.00541977 -0.815561 0 -0.578671
-0.00820617 0.0171734 -0.00568827 -0.815561 0 -0.578671
-0.0081462 0.0135612 -0.00577278 -0.815561 0 -0.578671
-0.00843672 0.00548925 -0.00536333 -0.815561 0 -0.578671
-0.00836703 0.010628 -0.00546156 -0.815561 0 -0.578671
-0.00801955 0.018584 -0.00595129 -0.815561 0 -0.578671
-0.00796314 0.00908529 -0.00603079 -0.815561 0 -0.578671
-0.00781897 3.02004e-05 -0.00623397 -0.815561 0 -0.578671
-0.00791474 0.0077417 -0.006099 -0.815561 0 -0.578671
-0.00777659 0.0124047 -0.00628159 -0.745642 0 -0.666347
-0.00779474 0.00215115 -0.00626128 -0.745642 0 -0.666347
-0.00771949 0.0197837 -0.00634549 -0.745642 0 -0.666347
-0.00737354 0.0178428 -0.0067326 -0.745642 0 -0.666347
-0.00725721 0.0156722 -0.00686278 -0.745642 0 -0.666347
-0.00743256 0.0141754 -0.00666656 -0.745642 0 -0.666347
-0.00773156 0.00521552 -0.00633198 -0.745642 0 -0.666347
-0.00714151 0.00128466 -0.00699225 -0.745642 0 -0.666347
-0.00714191 0.00656234 -0.0069918 -0.745642 0 -0.666347
-0.00730798 0.0109204 -0.00680597 -0.745642 0 -0.666347
-0.00729646 0.00345584 -0.00681885 -0.745642 0 -0.666347
-0.00699994 0.00960406 -0.00713463 -0.666347 0 -0.745642
-0.0067784 0.0190428 -0.00733261 -0.666347 0 -0.745642
-0.0069227 0.00817187 -0.00720366 -0.666347 0 -0.745642
-0.00662247 0.0133527 -0.00747196 -0.666347 0 -0.745642
-0.00630444 0.0179767 -0.00775617 -0.666347 0 -0.745642
-0.00666801 0.0050172 -0.00743126 -0.666347 0 -0.745642
-0.00655507 0.00223617 -0.00753219 -0.666347 0 -0.745642
-0.00631288 0.0158621 -0.00774862 -0.666347 0 -0.745642
-0.00635761 0.0146127 -0.00770866 -0.666347 0 -0.745642
-0.00621457 0.00378347 -0.00783274 -0.578671 0 -0.815561
-0.00613898 0.00738875 -0.00788637 -0.578671 0 -0.815561
-0.00609626 0.0118435 -0.00791668 -0.578671 0 -0.815561
-0.00575657 0.0169984 -0.00815771 -0.578671 0 -0.815561
-0.00613969 0.00616542 -0.00788587 -0.578671 0 -0.815561
-0.00541398 0.0131374 -0.00840079 -0.578671 0 -0.815561
-0.00540281 0.0144375 -0.00840871 -0.578671 0 -0.815561
-0.00557204 0.00226373 -0.00828864 -0.578671 0 -0.815561
-0.00571314 0.00909976 -0.00818852 -0.578671 0 -0.815561
-0.00537391 0.00540373 -0.00842922 -0.578671 0 -0.815561
-0.005292 0.0188185 -0.0084829 -0.483719 0 -0.875223
-0.00522119 0.0103771 -0.00852203 -0.483719 0 -0.875223
-0.00500683 0.00647875 -0.0086405 -0.483719 0 -0.875223
-0.00483099 0.0118449 -0.00873768 -0.483719 0 -0.875223
-0.00483833 0.0157957 -0.00873363 -0.483719 0 -0.875223
-0.00481467 0.0175834 -0.00874671 -0.483719 0 -0.875223
-0.00486936 0.00778991 -0.00871648 -0.483719 0 -0.875223
-0.00490838 0.0012189 -0.00869491 -0.483719 0 -0.875223
-0.00452586 0.00231919 -0.00890633 -0.483719 0 -0.875223
-0.00467912 0.00923792 -0.00882162 -0.483719 0 -0.875223
-0.00409827 0.0192031 -0.00910934 -0.382683 0 -0.92388
-0.00433612 0.0140206 -0.00901081 -0.382683 0 -0.92388
-0.00376208 0.0128594 -0.00924859 -0.382683 0 -0.92388
-0.00353293 0.0164718 -0.00934351 -0.382683 0 -0.92388
-0.00362412 0.0114745 -0.00930573 -0.382683 0 -0.92388
-0.00342426 0.0150894 -0.00938852 -0.382683 0 -0.92388
-0.00373945 0.00130699 -0.00925796 -0.382683 0 -0.92388
-0.00342826 0.00283786 -0.00938686 -0.382683 0 -0.92388
-0.00400786 0.00598529 -0.00914678 -0.382683 0 -0.92388
-0.00403552 0.00430197 -0.00913533 -0.382683 0 -0.92388
-0.00385486 0.00726147 -0.00921016 -0.382683 0 -0.92388
-0.00300696 0.0138773 -0.00952406 -0.276836 0 -0.960917
-0.00320331 0.0176613 -0.00946749 -0.276836 0 -0.960917
-0.00241405 0.0189121 -0.00969487 -0.276836 0 -0.960917
-0.00310306 0.0100974 -0.00949637 -0.276836 0 -0.960917
-0.00282489 0.00775198 -0.00957651 -0.276836 0 -0.960917
-0.00282098 0.006064 -0.00957764 -0.276836 0 -0.960917
-0.00231891 0.0115553 -0.00972228 -0.276836 0 -0.960917
-0.00270952 0.00459669 -0.00960975 -0.276836 0 -0.960917
-0.00262248 0.00103439 -0.00963483 -0.276836 0 -0.960917
-0.00166676 0.0134921 -0.00984416 -0.167506 0 -0.985871
-0.00173135 0.0163233 -0.00983319 -0.167506 0 -0.985871
-0.00216382 0.00928815 -0.00975971 -0.167506 0 -0.985871
-0.00199338 0.0176004 -0.00978867 -0.167506 0 -0.985871
-0.00212473 0.00261107 -0.00976635 -0.167506 0 -0.985871
-0.00115897 0.00826315 -0.00993044 -0.167506 0 -0.985871
-0.00123274 0.00421102 -0.00991791 -0.167506 0 -0.985871
-0.00141334 0.00144432 -0.00988722 -0.167506 0 -0.985871
-0.00132881 0.010262 -0.00990158 -0.167506 0 -0.985871
-0.00147433 0.00669954 -0.00987686 -0.167506 0 -0.985871
-0.000735001 0.015293 -0.00995872 -0.0560699 0 -0.998427
-0.00106991 0.0184853 -0.00993992 -0.0560699 0 -0.998427
-0.000881836 0.0123052 -0.00995048 -0.0560699 0 -0.998427
-0.000771233 0.0171276 -0.00995669 -0.0560699 0 -0.998427
-0.000372677 0.0137618 -0.00997907 -0.0560699 0 -0.998427
-3.62529e-06 0.0108565 -0.0099998 -0.0560699 0 -0.998427
-4.25833e-05 0.00492206 -0.00999761 -0.0560699 0 -0.998427
-0.000653963 0.000377968 -0.00996327 -0.0560699 0 -0.998427
-0.000952924 0.0028791 -0.00994649 -0.0560699 0 -0.998427
-2.63621e-05 0.00712479 -0.00999852 -0.0560699 0 -0.998427
0.000487072 0.0168716 -0.00997265 0.0560699 0 -0.998427
0.000413473 0.00928762 -0.00997678 0.0560699 0 -0.998427
0.000289486 0.0183341 -0.00998374 0.0560699 0 -0.998427
0.000492433 0.0155077 -0.00997235 0.0560699 0 -0.998427
0.000439736 0.0125361 -0.0099753 0.0560699 0 -0.998427
0.000111966 0.0197125 -0.00999371 0.0560699 0 -0.998427
-0.00565597 0.02 -0.00620963 0 1 0
0.00431762 0.02 0.00895558 0 1 0
0.00447967 0.02 0.00748231 0 1 0
0.00431221 0.02 0.00595213 0 1 0
0.00782289 0.02 0.00336662 0 1 0
-0.00576175 0.02 0.00806634 0 1 0
-0.00449439 0.02 0.00779157 0 1 0
-0.00451047 0.02 0.00625659 0 1 0
-0.00226244 0.02 0.00448411 0 1 0
-0.00065956 0.02 0.00605192 0 1 0
0.00127576 0.02 0.00541647 0 1 0
0.00256321 0.02 0.00485811 0 1 0
-0.00156048 0.02 0.00698915 0 1 0
-0.000805013 0.02 0.00894046 0 1 0
-1.60247e-05 0.02 0.00753159 0 1 0
0.00147158 0.02 0.00720962 0 1 0
0.00224007 0.02 0.00624708 0 1 0
0.00120153 0.02 0.00905435 0 1 0
0.00298361 0.02 0.00847242 0 1 0
0.00307204 0.02 0.00718577 0 1 0
-0.00663925 0.02 -0.0049064 0 1 0
-0.00797559 0.02 -0.0037526 0 1 0
-0.00560839 0.02 0.00550985 0 1 0
-0.00662162 0.02 0.00702266 0 1 0
0.00530473 0.02 -0.00802079 0 1 0
0.00472001 0.02 0.00489518 0 1 0
0.00613304 0.02 0.00590313 0 1 0
-0.00258393 0.02 0.0091186 0 1 0
-0.00311928 0.02 0.00781105 0 1 0
-0.00335755 0.02 0.00575894 0 1 0
0.00394507 0.02 -0.00859528 0 1 0
0.0039351 0.02 -0.00594521 0 1 0
0.00353496 0.02 -0.00734053 0 1 0
0.00277979 0.02 -0.00876013 0 1 0
0.00814595 0.02 0.00574012 0 1 0
0.00847087 0.02 0.00458275 0 1 0
0.00677242 0.02 0.00424364 0 1 0
0.00783789 0.02 -0.00309391 0 1 0
0.00622447 0.02 -0.00459533 0 1 0
0.00750732 0.02 -0.00429921 0 1 0
-0.00749861 0.02 0.000783804 0 1 0
-0.00434039 0.02 -0.00238788 0 1 0
-0.00630324 0.02 -0.000134039 0 1 0
-0.00740378 0.02 -0.000574734 0 1 0
-0.00511286 0.02 0.000283207 0 1 0
-0.00878458 0.02 -0.000237042 0 1 0
-0.00551061 0.02 -0.00241917 0 1 0
-0.00570993 0.02 0.0013679 0 1 0
-0.0041472 0.02 0.00193984 0 1 0
-0.00462466 0.02 -0.00104955 0 1 0
-0.0084678 0.02 0.00158131 0 1 0
-0.00710671 0.02 0.00204648 0 1 0
0.00541351 0.02 0.00344107 0 1 0
0.00777182 0.02 0.0019544 0 1 0
0.00650839 0.02 0.0027266 0 1 0
0.005221 0.02 0.000979256 0 1 0
0.00865811 0.02 0.000618501 0 1 0
0.00734004 0.02 0.000114291 0 1 0
0.00547208 0.02 -0.00058544 0 1 0
0.00888776 0.02 -0.00068675 0 1 0
0.00464547 0.02 -0.00192597 0 1 0
0.00647869 0.02 0.00136148 0 1 0
0.0062933 0.02 -0.0025061 0 1 0
0.00882925 0.02 -0.00230349 0 1 0
0.00450535 0.02 -0.00377356 0 1 0
0.00571618 0.02 -0.00643463 0 1 0
0.00497752 0.02 -0.005026 0 1 0
-0.00666617 0.02 -0.00363789 0 1 0
-0.00933287 0.02 -0.0014451 0 1 0
-0.00507754 0.02 -0.00365236 0 1 0
-0.00819489 0.02 -0.00205774 0 1 0
-0.00697501 0.02 -0.00219308 0 1 0
-0.00908349 0.02 0.00263531 0 1 0
-0.00474993 0.02 0.0040318 0 1 0
-0.00599979 0.02 0.00374567 0 1 0
-0.00704856 0.02 0.00456722 0 1 0
-0.00877114 0.02 0.00435927 0 1 0
-0.00299614 0.02 -0.00920833 0 1 0
-0.00337264 0.02 -0.00692729 0 1 0
0.00148367 0.02 -0.00957299 0 1 0
0.00199749 0.02 -0.00749802 0 1 0
-0.00126764 0.02 -0.00590083 0 1 0
-0.00184914 0.02 -0.00701296 0 1 0
0.00247608 0.02 -0.00501532 0 1 0
-0.000852301 0.02 -0.00473339 0 1 0
0.000419776 0.02 -0.00871928 0 1 0
-0.000635054 0.02 -0.00731512 0 1 0
-0.00278501 0.02 -0.00419338 0 1 0
0.000848017 0.02 -0.00462927 0 1 0
9.44398e-07 0.02 -0.00564197 0 1 0
0.000523202 0.02 -0.00675486 0 1 0
-0.00135858 0.02 -0.00861153 0 1 0
-0.00107351 0.02 -0.0097532 0 1 0
-0.00293252 0.02 -0.00586886 0 1 0
-0.0025204 0.02 -0.00805208 0 1 0
-0.00428839 0.02 -0.00573177 0 1 0
-0.00470558 0.02 -0.00745173 0 1 0
-0.00588646 0.02 -0.00764374 0 1 0
-0.00425362 0.02 -0.00445237 0 1 0
0.00606427 0 -0.0078318 0 -1 0
0.00734792 0 -0.00204057 0 -1 0
0.00514909 0 -0.00332622 0 -1 0
0.00905756 0 -0.00112174 0 -1 0
0.0078301 0 0.00355163 0 -1 0
0.00918277 0 0.00350833 0 -1 0
0.00640701 0 0.00342452 0 -1 0
-0.00669535 0 -0.00740584 0 -1 0
-0.00525908 0 -0.00588068 0 -1 0
0.00141505 0 -0.00949309 0 -1 0
0.00831151 0 0.00476406 0 -1 0
0.00709707 0 0.00495813 0 -1 0
0.00519065 0 0.00444923 0 -1 0
0.00725557 0 0.00665304 0 -1 0
0.00293373 0 -0.00811966 0 -1 0
0.00396974 0 -0.00616458 0 -1 0
0.0043483 0 -0.00879133 0 -1 0
0.00450098 0 -0.00749328 0 -1 0
0.00324375 0 0.00661379 0 -1 0
0.0037957 0 0.00785254 0 -1 0
-0.00605609 0 0.00763573 0 -1 0
0.0044595 0 -0.00427204 0 -1 0
0.00606806 0 -0.00591098 0 -1 0
0.00604146 0 -0.00445732 0 -1 0
0.00764907 0 -0.00451064 0 -1 0
0.00589312 0 -0.00233149 0 -1 0
0.00413647 0 0.000663032 0 -1 0
0.00549672 0 -0.000582434 0 -1 0
0.00564317 0 0.00117401 0 -1 0
0.00448428 0 -0.00228427 0 -1 0
0.00688618 0 -0.00019871 0 -1 0
0.00513099 0 0.0024524 0 -1 0
0.00703156 0 0.00111311 0 -1 0
0.00865115 0 0.000458117 0 -1 0
0.0082846 0 0.00173659 0 -1 0
0.00718956 0 0.00229863 0 -1 0
0.00986672 0 0.000776428 0 -1 0
0.0058734 0 0.00604874 0 -1 0
0.00467978 0 0.00705223 0 -1 0
0.00709589 0 -0.00318967 0 -1 0
0.00911525 0 -0.00250118 0 -1 0
-0.00533984 0 -0.00770592 0 -1 0
-0.00471734 0 -0.00873279 0 -1 0
-0.00392734 0 -0.00686683 0 -1 0
-0.00342313 0 -0.00853161 0 -1 0
-0.00544657 0 0.00520836 0 -1 0
-0.00679922 0 0.00535964 0 -1 0
-0.00851457 0 0.00109995 0 -1 0
-0.00455894 0 -0.00266984 0 -1 0
-0.00518413 0 -0.000290214 0 -1 0
-0.00581545 0 0.00101326 0 -1 0
-0.00571085 0 -0.00196831 0 -1 0
-0.00641192 0 0.00264916 0 -1 0
-0.00400088 0 0.000683045 0 -1 0
-0.00416834 0 -0.00115104 0 -1 0
-0.00745584 0 -0.000914958 0 -1 0
-0.00488032 0 0.00213176 0 -1 0
-0.00715837 0 0.00036271 0 -1 0
-0.00775016 0 -0.0020605 0 -1 0
-0.0097469 0 -0.000814052 0 -1 0
-0.00763936 0 -0.00466884 0 -1 0
-0.0047106 0 -0.00434229 0 -1 0
-0.00612332 0 -0.00470648 0 -1 0
0.00238265 0 0.0090718 0 -1 0
0.00222837 0 0.00737486 0 -1 0
0.000834477 0 0.00884415 0 -1 0
0.00203388 0 0.00550707 0 -1 0
0.00357199 0 0.00450041 0 -1 0
0.00100175 0 0.00681006 0 -1 0
-0.00130805 0 0.00425642 0 -1 0
-0.000564296 0 0.00844615 0 -1 0
-0.00154556 0 0.00626725 0 -1 0
-0.00235504 0 0.00510581 0 -1 0
-0.0003252 0 0.0071113 0 -1 0
0.000186814 0 0.00538241 0 -1 0
-0.00172467 0 0.00800011 0 -1 0
-0.00371142 0 0.00474398 0 -1 0
-0.00686833 0 0.00390105 0 -1 0
-0.00921284 0 0.00340092 0 -1 0
-0.00797018 0 0.00337963 0 -1 0
-0.00508908 0 0.00364147 0 -1 0
-0.00968636 0 0.00139918 0 -1 0
-0.00789588 0 0.00214673 0 -1 0
-0.00910129 0 -0.00198191 0 -1 0
-0.00560295 0 -0.0035198 0 -1 0
-0.00832464 0 -0.00323207 0 -1 0
-0.0070059 0 -0.00329555 0 -1 0
-0.00237574 0 0.00928016 0 -1 0
-0.00356045 0 0.00676956 0 -1 0
-0.00370839 0 0.00806404 0 -1 0
-0.00459496 0 0.00607964 0 -1 0
-0.00251835 0 -0.00763941 0 -1 0
-0.00183577 0 -0.00948106 0 -1 0
-0.000771708 0 -0.00622449 0 -1 0
-0.00102009 0 -0.00478105 0 -1 0
-0.00347438 0 -0.00473711 0 -1 0
-0.000198326 0 -0.00880596 0 -1 0
-0.00229391 0 -0.00610701 0 -1 0
0.00277208 0 -0.00536004 0 -1 0
0.00102454 0 -0.00433009 0 -1 0
0.000218127 0 -0.00528523 0 -1 0
-0.00150205 0 -0.00836977 0 -1 0
0.000994679 0 -0.00639365 0 -1 0
-4.82672e-05 0 -0.00725417 0 -1 0
0.0020854 0 -0.00705852 0 -1 0
0.00135525 0 -0.00818752 0 -1 0
0.004 0.0172413 0.00349753 -1 0 0
0.004 0.0163086 -0.0013152 -1 0 0
0.004 0.0187356 -0.00173091 -1 0 0
0.004 0.0172491 0.00186124 -1 0 0
0.004 0.00898098 0.00292809 -1 0 0
0.004 0.0111276 0.00116324 -1 0 0
0.004 0.0149141 0.00325996 -1 0 0
0.004 0.019863 0.00104871 -1 0 0
0.004 0.0154129 -0.000432211 -1 0 0
0.004 0.0191069 -0.00300915 -1 0 0
0.004 0.00623813 0.00251424 -1 0 0
0.004 0.0124632 0.00203083 -1 0 0
0.004 0.0194549 -0.000424263 -1 0 0
0.004 0.00794772 0.00381021 -1 0 0
0.004 0.0122639 0.00344709 -1 0 0
0.004 0.0161017 0.00261127 -1 0 0
0.004 0.0182948 0.00295866 -1 0 0
0.004 0.0174798 -0.00097444 -1 0 0
0.004 0.0138757 0.00024457 -1 0 0
0.004 0.011056 0.00285515 -1 0 0
0.004 0.0130838 -0.00104212 -1 0 0
0.004 0.0151828 0.00123422 -1 0 0
0.004 0.0195258 0.00335329 -1 0 0
0.004 0.00404821 0.00295789 -1 0 0
0.004 0.0142186 0.00198905 -1 0 0
0.004 0.010126 0.00202796 -1 0 0
0.004 0.0123032 0.000403629 -1 0 0
0.004 0.00781308 0.00256885 -1 0 0
0.004 0.0135412 0.0033899 -1 0 0
0.004 0.00908011 0.00140755 -1 0 0
0.004 0.0165131 0.000702154 -1 0 0
0.004 0.00256449 0.00369833 -1 0 0
0.004 0.0183437 0.00150405 -1 0 0
0.004 0.0168732 -0.0035965 -1 0 0
0.004 0.00789653 -0.00160935 -1 0 0
0.004 0.00696088 -0.00349757 -1 0 0
0.004 0.00463165 -0.000519487 -1 0 0
0.004 0.000911885 -0.00311626 -1 0 0
0.004 0.00393412 0.000517373 -1 0 0
0.004 0.00866785 -0.000168845 -1 0 0
0.004 0.0047701 0.00196135 -1 0 0
0.004 0.00240266 0.000935465 -1 0 0
0.004 0.00139285 -0.00149274 -1 0 0
0.004 0.000580583 0.00168944 -1 0 0
0.004 0.00198068 0.00242735 -1 0 0
0.004 0.00339794 -0.00109296 -1 0 0
0.004 0.0114762 -0.000994019 -1 0 0
0.004 0.00360419 -0.00266003 -1 0 0
0.004 0.00945144 -0.00110349 -1 0 0
0.004 0.00657381 -0.00233346 -1 0 0
0.004 0.00495722 -0.00201802 -1 0 0
0.004 0.00947974 -0.0035436 -1 0 0
0.004 0.0129083 -0.00389147 -1 0 0
0.004 0.00825392 -0.00295984 -1 0 0
0.004 0.0106043 -0.00198151 -1 0 0
0.004 0.0074128 0.000320543 -1 0 0
0.004 0.0133754 -0.00252455 -1 0 0
0.004 0.000225692 0.00326141 -1 0 0
0.004 0.0112667 -0.00321142 -1 0 0
0.004 0.00341387 0.00178701 -1 0 0
0.004 0.00565674 0.000149266 -1 0 0
0.004 0.00660919 0.00126301 -1 0 0
0.004 0.0157399 -0.00261959 -1 0 0
0.004 0.0120428 -0.00216833 -1 0 0
0.004 0.0024388 -0.000214265 -1 0 0
0.004 0.00217361 -0.00257776 -1 0 0
0.004 0.00922659 -0.00227979 -1 0 0
-0.00240175 0.0180101 -0.004 0 0 1
0.00313617 0.00825274 -0.004 0 0 1
0.00344847 0.018214 -0.004 0 0 1
0.00195009 0.0117802 -0.004 0 0 1
0.000950424 0.0188179 -0.004 0 0 1
0.00321286 0.0195749 -0.004 0 0 1
0.00391204 0.00580347 -0.004 0 0 1
0.00314073 0.0137799 -0.004 0 0 1
-0.000128658 0.0172162 -0.004 0 0 1
0.002097 0.00634897 -0.004 0 0 1
0.00310556 0.010051 -0.004 0 0 1
0.00375381 0.00164887 -0.004 0 0 1
0.00046871 0.0137347 -0.004 0 0 1
-0.00112458 0.0189311 -0.004 0 0 1
-0.00129222 0.0174646 -0.004 0 0 1
0.000539079 0.0114524 -0.004 0 0 1
0.000126864 0.0155667 -0.004 0 0 1
-0.00115719 0.0148973 -0.004 0 0 1
0.00155779 0.0159288 -0.004 0 0 1
0.00137214 0.0176989 -0.004 0 0 1
0.00200005 0.00919442 -0.004 0 0 1
0.00168753 0.00785384 -0.004 0 0 1
0.00180084 0.013379 -0.004 0 0 1
0.00398782 0.014834 -0.004 0 0 1
0.00141264 0.0145754 -0.004 0 0 1
0.00123759 0.0103551 -0.004 0 0 1
0.00288828 0.0160405 -0.004 0 0 1
-0.000182105 0.0125571 -0.004 0 0 1
0.00259932 0.017406 -0.004 0 0 1
0.00196088 0.0199049 -0.004 0 0 1
0.00313841 0.0120695 -0.004 0 0 1
0.00249827 0.00458334 -0.004 0 0 1
0.00333621 0.00308812 -0.004 0 0 1
-0.0011059 0.00884884 -0.004 0 0 1
0.00220334 0.00190566 -0.004 0 0 1
0.000169299 0.00874282 -0.004 0 0 1
-0.00284403 0.010847 -0.004 0 0 1
-0.00335019 0.00605915 -0.004 0 0 1
-0.00395389 0.0137997 -0.004 0 0 1
0.000186645 0.00430438 -0.004 0 0 1
-0.00254164 0.00888658 -0.004 0 0 1
-2.93738e-05 0.0056426 -0.004 0 0 1
-0.000844412 0.0028171 -0.004 0 0 1
-0.00284459 0.0133196 -0.004 0 0 1
-0.00398475 0.00745047 -0.004 0 0 1
-0.00250628 3.79377e-05 -0.004 0 0 1
-0.00153192 0.00739593 -0.004 0 0 1
-0.00276636 0.0152389 -0.004 0 0 1
-7.23437e-05 0.00160122 -0.004 0 0 1
-0.00321727 0.0121102 -0.004 0 0 1
-4.90682e-05 0.00721707 -0.004 0 0 1
0.000607665 0.00275002 -0.004 0 0 1
-0.00262159 0.00126857 -0.004 0 0 1
-0.00399154 0.00885236 -0.004 0 0 1
-0.00174217 0.00601677 -0.004 0 0 1
-0.000210771 0.0104421 -0.004 0 0 1
-0.00135555 0.0103423 -0.004 0 0 1
-0.00324202 0.00450736 -0.004 0 0 1
-0.00348438 0.016746 -0.004 0 0 1
-0.00138063 0.0119956 -0.004 0 0 1
-0.00257123 0.00289776 -0.004 0 0 1
-0.00190583 0.00479822 -0.004 0 0 1
0.0025873 0.000532097 -0.004 0 0 1
-0.00280433 0.00754556 -0.004 0 0 1
0.00138661 0.00403979 -0.004 0 0 1
0.00121548 0.0011369 -0.004 0 0 1
-0.00131992 0.00136336 -0.004 0 0 1
-0.004 0.0180365 -0.00384276 1 0 0
-0.004 0.0132084 -0.000508193 1 0 0
-0.004 0.0181522 -0.00236681 1 0 0
-0.004 0.0186751 0.00281892 1 0 0
-0.004 0.00495273 -0.00307672 1 0 0
-0.004 0.0186422 0.00146944 1 0 0
-0.004 0.0137227 -0.00162327 1 0 0
-0.004 0.0140283 0.000409582 1 0 0
-0.004 0.00743781 -0.00242505 1 0 0
-0.004 0.00628245 -0.00174431 1 0 0
-0.004 0.0164781 -0.00137827 1 0 0
-0.004 0.00968607 -0.00275346 1 0 0
-0.004 0.0167352 -0.00266404 1 0 0
-0.004 0.0109165 -0.00350748 1 0 0
-0.004 0.0150866 -0.00182537 1 0 0
-0.004 0.0155576 -0.00358677 1 0 0
-0.004 0.0161255 0.00135885 1 0 0
-0.004 0.0123195 -0.00265845 1 0 0
-0.004 0.0166237 0.000217673 1 0 0
-0.004 0.0151251 -0.00062696 1 0 0
-0.004 0.0121676 -0.00121551 1 0 0
-0.004 0.014332 -0.0028106 1 0 0
-0.004 0.0106416 -0.001751 1 0 0
-0.004 0.0111457 -0.000370109 1 0 0
-0.004 0.0172245 0.00190226 1 0 0
-0.004 0.00850458 -0.00197204 1 0 0
-0.004 0.0196062 0.000530143 1 0 0
-0.004 0.0185968 -0.000748606 1 0 0
-0.004 0.014762 0.00182493 1 0 0
-0.004 0.00352948 -0.00240819 1 0 0
-0.004 0.0048742 0.000964168 1 0 0
-0.004 0.00387753 0.0026464 1 0 0
-0.004 0.0011107 0.00206151 1 0 0
-0.004 0.0157879 0.00263312 1 0 0
-0.004 0.00161972 0.000890995 1 0 0
-0.004 0.00722337 0.00389967 1 0 0
-0.004 0.00563412 0.00204935 1 0 0
-0.004 0.00999682 0.00235858 1 0 0
-0.004 0.00106735 -0.000119565 1 0 0
-0.004 0.00517469 -0.000357945 1 0 0
-0.004 0.0156985 0.00389719 1 0 0
-0.004 0.00150064 -0.00137136 1 0 0
-0.004 0.00683999 0.00247458 1 0 0
-0.004 0.0111951 0.00293656 1 0 0
-0.004 0.00225031 0.0038294 1 0 0
-0.004 0.00243419 -0.000107995 1 0 0
-0.004 0.0056795 0.00326168 1 0 0
-0.004 0.00714011 -0.000744582 1 0 0
-0.004 0.00898925 0.00350753 1 0 0
-0.004 0.00885928 -9.78667e-05 1 0 0
-0.004 0.00646809 0.00111654 1 0 0
-0.004 0.00980666 0.000571754 1 0 0
-0.004 0.0173476 0.00364308 1 0 0
-0.004 0.00394151 -0.00088098 1 0 0
-0.004 0.0125859 0.00263494 1 0 0
-0.004 0.0133337 0.00155755 1 0 0
-0.004 0.00343236 0.00138768 1 0 0
-0.004 0.00839828 0.00152375 1 0 0
-0.004 0.000958681 -0.00354204 1 0 0
-0.004 0.0116662 0.000740685 1 0 0
-0.004 0.00200479 -0.00269751 1 0 0
0.0020763 0.0191458 0.004 0 0 -1
-0.00390506 0.0128657 0.004 0 0 -1
0.000563775 0.0188585 0.004 0 0 -1
-0.000627611 0.00945688 0.004 0 0 -1
-0.00221784 0.0187656 0.004 0 0 -1
-0.000173385 0.0163095 0.004 0 0 -1
-0.00303667 0.00592505 0.004 0 0 -1
-0.00247824 0.0151938 0.004 0 0 -1
-0.000688012 0.0198645 0.004 0 0 -1
-0.00262797 0.0117338 0.004 0 0 -1
-0.0027872 0.013594 0.004 0 0 -1
-0.00155575 0.0108997 0.004 0 0 -1
0.000126661 0.0175429 0.004 0 0 -1
-0.00177611 0.016867 0.004 0 0 -1
-0.00123878 0.0130211 0.004 0 0 -1
0.00221118 0.0177877 0.004 0 0 -1
-0.00355782 0.0189366 0.004 0 0 -1
-0.00011118 0.0110546 0.004 0 0 -1
-0.00243298 0.00433083 0.004 0 0 -1
0.000752528 0.0125446 0.004 0 0 -1
0.000800127 0.0152939 0.004 0 0 -1
-0.00295495 0.0164134 0.004 0 0 -1
-0.00270919 0.00756863 0.004 0 0 -1
-0.000841077 0.018416 0.004 0 0 -1
-0.00397415 0.00406352 0.004 0 0 -1
-0.00184721 0.00654542 0.004 0 0 -1
0.000594961 0.0140415 0.004 0 0 -1
-0.00293605 0.0102859 0.004 0 0 -1
-0.00390916 0.0142544 0.004 0 0 -1
-0.000751157 0.0148024 0.004 0 0 -1
-0.00279785 0.00894477 0.004 0 0 -1
0.00153383 0.0166017 0.004 0 0 -1
0.0030288 0.00659918 0.004 0 0 -1
0.000972093 0.00313612 0.004 0 0 -1
0.00153745 0.00131999 0.004 0 0 -1
-0.00130968 0.00350603 0.004 0 0 -1
-0.00284577 0.00134477 0.004 0 0 -1
0.00252156 0.00523461 0.004 0 0 -1
0.00225176 0.0154307 0.004 0 0 -1
0.000743529 0.00028056 0.004 0 0 -1
-0.00110903 0.00524939 0.004 0 0 -1
-0.00146694 0.00157005 0.004 0 0 -1
0.0034573 0.00904253 0.004 0 0 -1
0.00300233 0.0129315 0.004 0 0 -1
0.00162743 0.00666852 0.004 0 0 -1
0.00398371 0.0053593 0.004 0 0 -1
-0.00058059 0.00790648 0.004 0 0 -1
0.00119041 0.0108368 0.004 0 0 -1
0.00191564 0.00398608 0.004 0 0 -1
0.00146883 0.00967624 0.004 0 0 -1
0.00325587 0.0162881 0.004 0 0 -1
0.0023757 0.0023324 0.004 0 0 -1
0.0038864 0.00132391 0.004 0 0 -1
0.00346207 0.0103092 0.004 0 0 -1
0.00338883 0.0181503 0.004 0 0 -1
0.00049333 0.00572382 0.004 0 0 -1
0.0030098 0.0141807 0.004 0 0 -1
0.000465539 0.00206514 0.004 0 0 -1
0.00215048 0.0118845 0.004 0 0 -1
0.000766424 0.00832574 0.004 0 0 -1
0.00171951 0.0132537 0.004 0 0 -1
-4.09635e-05 0.00420747 0.004 0 0 -1
0.000290029 0.00704689 0.004 0 0 -1
-0.00235899 0.00278349 0.004 0 0 -1
